<?xml version="1.0" standalone="no"?>
<!DOCTYPE svg PUBLIC "-//W3C//DTD SVG 1.1//EN" "http://www.w3.org/Graphics/SVG/1.1/DTD/svg11.dtd" >
<svg xmlns="http://www.w3.org/2000/svg" xmlns:xlink="http://www.w3.org/1999/xlink" version="1.1">
<metadata></metadata>
<defs>
<font id="playfair_displayblack" horiz-adv-x="1660" >
<font-face units-per-em="2048" ascent="1638" descent="-410" />
<missing-glyph horiz-adv-x="456" />
<glyph unicode="&#xfb01;" horiz-adv-x="1376" d="M23 1020v41h143q0 238 172 399q76 72 196.5 107t251.5 35q142 0 217.5 -20.5t145.5 -61.5q37 -23 64.5 -66t27.5 -90q0 -174 -233 -174q-115 0 -174.5 44t-59.5 126q0 66 47 112t133 66q-16 8 -51 15.5t-69 7.5q-164 0 -244 -148q-31 -53 -43 -130t-12 -222h186 q190 0 296.5 5t207.5 19v-895q0 -84 29.5 -115.5t105.5 -31.5v-43q-238 8 -309 8q-72 0 -310 -8v43q63 0 89 31.5t26 115.5v650q0 94 -29.5 137t-105.5 43h-186v-830q0 -84 37.5 -115.5t117.5 -31.5v-43l-55 2q-215 6 -275 6q-70 0 -284 -6q-16 -2 -45 -2v43 q76 0 105.5 31.5t29.5 115.5v830h-143z" />
<glyph unicode="&#xfb02;" horiz-adv-x="1384" d="M23 1020v41h143q0 150 41 251t119 167q76 63 175 93t204 30q39 0 133 -5q74 -6 161 -6q57 0 226 15v-1416q0 -84 29.5 -115.5t105.5 -31.5v-43q-238 8 -309 8q-72 0 -310 -8v43q63 0 89 31.5t26 115.5v1231q0 76 -29 109q-27 31 -75 31q-57 0 -93 -17.5t-67 -56.5 q-37 -45 -47 -120t-10 -247v-59h186v-41h-186v-830q0 -84 37.5 -115.5t117.5 -31.5v-43l-55 2q-215 6 -275 6q-70 0 -284 -6q-16 -2 -45 -2v43q76 0 105.5 31.5t29.5 115.5v830h-143z" />
<glyph horiz-adv-x="0" />
<glyph unicode="&#xd;" horiz-adv-x="456" />
<glyph horiz-adv-x="0" />
<glyph horiz-adv-x="0" />
<glyph unicode=" "  horiz-adv-x="456" />
<glyph unicode="&#x09;" horiz-adv-x="456" />
<glyph unicode="&#xa0;" horiz-adv-x="456" />
<glyph unicode="!" horiz-adv-x="657" d="M113 1057q0 98 60 157.5t157 59.5q88 0 152.5 -60.5t64.5 -156.5q0 -51 -19.5 -107.5t-62.5 -156.5q-53 -127 -82 -212t-35 -180h-37q-6 94 -34.5 179.5t-81.5 212.5q-43 100 -62.5 156.5t-19.5 107.5zM129 147q0 86 52 131.5t151 45.5q98 0 150.5 -45.5t52.5 -131.5 t-52.5 -131t-150.5 -45t-150.5 45t-52.5 131z" />
<glyph unicode="&#x22;" horiz-adv-x="854" d="M61 1329q0 74 47.5 120t118.5 46q72 0 119 -45t47 -119q0 -45 -15.5 -85t-47.5 -101q-51 -90 -88 -187h-29q-35 88 -84 175q-37 68 -52.5 107.5t-15.5 88.5zM460 1329q0 74 47.5 120t118.5 46q72 0 119 -45t47 -119q0 -45 -15.5 -85t-47.5 -101q-51 -90 -88 -187h-29 q-35 88 -84 175q-37 68 -52.5 107.5t-15.5 88.5z" />
<glyph unicode="#" horiz-adv-x="1247" d="M70 506l8 41h301l65 342h-299l7 41h301l59 303h41l-59 -303h342l59 303h41l-59 -303h301l-7 -41h-303l-65 -342h301l-8 -41h-301l-58 -299h-41l58 299h-342l-58 -299h-41l58 299h-301zM420 547h342l65 342h-342z" />
<glyph unicode="$" horiz-adv-x="1234" d="M94 -14q8 123 8 532h48q20 -236 110 -351.5t262 -137.5v413l-20 11q-111 61 -192 119.5t-143.5 148.5t-62.5 205q0 152 114 238.5t304 105.5v184h41v-182q16 2 51 2q31 0 80 -4v184h41v-188q111 -14 209 -68q23 -12 40 -20.5t28 -8.5q20 0 30.5 21.5t16.5 69.5h47 q-10 -133 -10 -459h-47q-27 190 -104 288.5t-210 124.5v-397l82 -45q98 -55 169 -108.5t123 -136.5t52 -191q0 -158 -114.5 -248t-311.5 -111v-186h-41v182q-25 -2 -76 -2q-39 0 -55 2v-182h-41v184q-66 8 -122 25.5t-142 52.5q-55 23 -70 23q-20 0 -30.5 -21.5t-16.5 -68.5 h-47zM381 1108q0 -45 30.5 -82t110.5 -88v281q-141 -18 -141 -111zM563 25q20 -2 62 -2q24 0 69 4v321q-39 25 -131 72v-395zM563 913l84 -47l47 -26v381q-49 4 -80 4q-35 0 -51 -2v-310zM735 35q56 14 88.5 44t32.5 73q0 53 -26.5 91t-94.5 81v-289z" />
<glyph unicode="%" horiz-adv-x="1472" d="M66 1214q0 100 46 179.5t125.5 122.5t180.5 43q157 0 253.5 -89.5t96.5 -244.5q0 -102 -45 -180t-125 -121t-180 -43q-158 0 -255 89t-97 244zM125 -86l1198 1774l39 -27l-1198 -1774zM297 1217q0 -147 32.5 -223t92.5 -76q115 0 115 303q0 150 -32 225.5t-91 75.5 q-117 0 -117 -305zM705 305q0 100 46 179t125.5 122t180.5 43q157 0 253.5 -89t96.5 -245q0 -102 -45 -180t-125 -121t-180 -43q-158 0 -255 89.5t-97 244.5zM936 307q0 -147 32.5 -223t92.5 -76q115 0 115 303q0 150 -32 225.5t-91 75.5q-117 0 -117 -305z" />
<glyph unicode="&#x26;" horiz-adv-x="1906" d="M66 379q0 123 80.5 211t186 135t193.5 63q-131 41 -209.5 99.5t-78.5 150.5q0 123 138 179.5t316 56.5q109 0 189 -29q61 -23 107 -65.5t46 -114.5t-52 -115t-136 -43q-76 0 -125 37t-49 105q0 59 39 106t106 66q-37 16 -84 16q-53 0 -105.5 -29.5t-85 -89t-32.5 -145.5 q0 -49 7 -90t36 -82q31 12 53.5 15t52.5 3q35 0 53.5 -16.5t18.5 -40.5q0 -23 -16.5 -35t-40.5 -12q-51 0 -119 57q-20 -47 -30.5 -93t-10.5 -110q0 -213 130 -309t390 -96q238 0 403 83t165 290q0 63 -15.5 101t-46.5 73l-55 -13l-213 -41q-158 -31 -247 -55t-140 -61 t-51 -95q0 -72 73.5 -118.5t169.5 -46.5q23 0 56 4q-57 20 -83 62t-26 89q0 74 55.5 115t143.5 41q90 0 140 -42t50 -116q0 -96 -85 -144t-222 -48q-168 0 -260 71.5t-92 212.5q0 178 132 265.5t335 130.5l209 45l45 8q98 20 163.5 39.5t112.5 60.5t47 105q0 80 -69.5 128 t-157.5 48q-23 0 -55 -4q59 -23 92.5 -64t33.5 -94q0 -70 -54 -108.5t-140 -38.5q-92 0 -143.5 43t-51.5 116q0 84 69 137.5t206 53.5q162 0 254 -79t92 -233q0 -276 -301 -366q41 -39 64.5 -102.5t23.5 -141.5q0 -160 -101.5 -272.5t-290 -172t-444.5 -59.5 q-231 0 -402 48.5t-264 139.5t-93 220z" />
<glyph unicode="'" horiz-adv-x="454" d="M61 1329q0 74 47.5 120t118.5 46q72 0 119 -45t47 -119q0 -45 -15.5 -85t-47.5 -101q-51 -90 -88 -187h-29q-35 88 -84 175q-37 68 -52.5 107.5t-15.5 88.5z" />
<glyph unicode="(" horiz-adv-x="690" d="M72 639q0 -207 136 -392.5t376 -316.5l24 29q-88 131 -134 305t-46 375t46 377t134 307l-24 25q-240 -131 -376 -316.5t-136 -392.5z" />
<glyph unicode=")" horiz-adv-x="690" d="M82 -41q88 131 134 305t46 375t-46 377t-134 307l24 25q240 -131 376 -316.5t136 -392.5t-136 -392.5t-376 -316.5z" />
<glyph unicode="*" horiz-adv-x="968" d="M92 911q0 53 58 88q33 18 76.5 27.5t123.5 17.5l119 15q-25 4 -53.5 7t-61.5 9q-84 10 -129 18.5t-75 26.5q-57 33 -58 90q0 35 19 66q37 63 92 63q29 0 61 -18q31 -18 57.5 -48t79.5 -99q47 -66 74 -99q-12 35 -45 109q-33 76 -47 119t-14 79q0 57 33.5 84t82.5 27 t82 -26.5t33 -84.5q0 -37 -14.5 -77.5t-44.5 -110.5l-47 -117l73 97q45 61 76 96t62 53q35 18 59 18q31 0 55.5 -17t38.5 -46q20 -35 21 -68q0 -53 -58 -88q-33 -18 -76 -26.5t-120 -18.5l-117 -14q131 -20 113 -16q82 -10 126 -18.5t74 -27.5q58 -33 58 -90q0 -35 -19 -65 q-37 -63 -92 -64q-29 0 -61 19q-31 18 -57.5 48t-80.5 99q-47 66 -73 99q12 -35 45 -109q33 -76 47 -119t14 -80q0 -57 -33.5 -83.5t-81.5 -26.5q-49 0 -82.5 26.5t-33.5 83.5q0 37 14 80t49 121l43 104l-74 -96q-45 -61 -75.5 -96t-61.5 -53q-35 -18 -59 -19 q-31 0 -55.5 17.5t-38.5 46.5q-20 35 -21 67z" />
<glyph unicode="+" horiz-adv-x="1157" d="M66 696v62h477v483h73v-483h476v-62h-476v-481h-73v481h-477z" />
<glyph unicode="," horiz-adv-x="569" d="M84 147q0 80 53 128.5t139 48.5q111 0 162 -76q23 -31 37 -82t14 -113q0 -106 -55 -196t-162 -140l-18 37q53 25 95 71t59 97q10 29 10 68q0 31 -4 45q-53 -63 -150 -64q-82 0 -131 46t-49 130z" />
<glyph unicode="-" horiz-adv-x="1001" d="M131 512v203h739v-203h-739z" />
<glyph unicode="." horiz-adv-x="577" d="M86 147q0 86 52 131.5t151 45.5q98 0 150.5 -45.5t52.5 -131.5t-52.5 -131t-150.5 -45t-150.5 45t-52.5 131z" />
<glyph unicode="/" horiz-adv-x="749" d="M63 -29l558 1508h67l-557 -1508h-68z" />
<glyph unicode="0" horiz-adv-x="1382" d="M82 516q0 162 78 293t218 207t324 76q175 0 311 -68t211.5 -191.5t75.5 -283.5q0 -164 -77.5 -295t-219 -207t-323.5 -76q-172 0 -308 67.5t-213 191.5t-77 286zM465 522q0 -260 65.5 -387t167.5 -127q63 0 113.5 64.5t78.5 185.5t28 285q0 260 -66 386t-168 126 q-63 0 -113.5 -64.5t-78 -184.5t-27.5 -284z" />
<glyph unicode="1" horiz-adv-x="802" d="M74 0v43q88 0 132 37t44 131v504q0 98 -15.5 144t-51.5 61.5t-109 15.5v45q199 4 324.5 27.5t219.5 76.5v-895q0 -84 26 -115.5t89 -31.5v-43q-221 8 -282 8q-72 0 -318 -6z" />
<glyph unicode="2" horiz-adv-x="1132" d="M74 0v43q-8 -8 90 84q117 104 198.5 190t143 198t61.5 233q0 104 -45 152t-137 48q-86 0 -151.5 -34.5t-122.5 -102.5l-35 25q80 121 206 188.5t322 67.5q170 0 268.5 -70t98.5 -193q0 -82 -51.5 -150.5t-123 -119.5t-190.5 -121q-147 -84 -209 -137h463q55 0 83 7 t38 24.5t16 52.5h47q0 -279 9 -395q-45 10 -305 10h-674z" />
<glyph unicode="3" horiz-adv-x="1048" d="M49 -266q129 6 259 61t217 158.5t87 247.5q0 121 -57 197.5t-156 84.5q-41 -18 -64.5 -26t-47.5 -8q-20 0 -30.5 7t-10.5 25q0 25 20.5 36t52.5 11q20 0 39 -2t33 -4q158 102 158 260q0 88 -48 133.5t-136 45.5q-80 0 -149 -38t-116 -108l-37 21q70 117 178.5 186.5 t288.5 69.5q170 0 279 -63.5t109 -174.5q0 -119 -128 -212t-362 -126q25 2 72 2q225 0 358 -85t133 -230q0 -150 -139 -267.5t-358.5 -181t-444.5 -63.5v43z" />
<glyph unicode="4" horiz-adv-x="1126" d="M4 49v43l830 1000h32v-783h13q55 0 82.5 7.5t38 24.5t16.5 52h47q0 -248 8 -354q-45 8 -205 8v-336h-286v338h-576zM240 309h340v412z" />
<glyph unicode="5" horiz-adv-x="1001" d="M41 -266q133 2 253 58t194.5 160.5t74.5 246.5q0 127 -55 194.5t-164 67.5q-59 0 -105 -19.5t-92 -56.5l-32 23l82 661q41 -8 110 -8h408q45 0 68.5 14.5t27.5 48.5h47q0 -261 8 -374q-43 10 -284 10h-381l-39 -320q57 43 148 69t208 26q209 0 316.5 -92.5t107.5 -235.5 q0 -152 -131 -268.5t-340 -179t-430 -62.5v37z" />
<glyph unicode="6" horiz-adv-x="1210" d="M86 555q0 285 141.5 483.5t347 305t410.5 137.5l8 -41q-135 -43 -233 -105.5t-173 -193.5t-104 -350q78 115 252 114q119 0 215.5 -54t152.5 -154.5t56 -233.5q0 -154 -74.5 -265.5t-200.5 -169t-276 -57.5q-246 0 -384 154t-138 430zM469 535q0 -184 23.5 -301 t60.5 -169.5t78 -52.5q61 0 103 107.5t42 324.5q0 207 -39 304.5t-104 97.5q-39 0 -85 -35t-73 -102q-6 -80 -6 -174z" />
<glyph unicode="7" horiz-adv-x="999" d="M43 1071q45 -10 305 -10h660v-43q-18 -39 -97 -178q-84 -152 -136 -259.5t-92 -246.5t-40 -289q2 -20 6 -73.5t4 -94.5q0 -74 -47 -127t-139 -53t-139 59.5t-47 163.5q0 109 59 226.5t141 221t215 253.5q53 59 123 139h-583q-55 0 -83 -7.5t-38.5 -24.5t-16.5 -52h-47 q0 279 -8 395z" />
<glyph unicode="8" horiz-adv-x="1204" d="M76 326q0 127 90 217t248 153q-131 117 -201 217.5t-70 223.5q0 170 137.5 256t335.5 86q131 0 232.5 -38t157 -104.5t55.5 -148.5q0 -94 -73 -164t-224 -135l35 -31q111 -102 177 -174t112.5 -156t46.5 -174q0 -109 -71 -196.5t-195 -137t-277 -49.5q-141 0 -258 41 t-187.5 122t-70.5 192zM379 367q0 -358 223 -359q88 0 131 52.5t43 136.5q0 88 -45 166.5t-104.5 138t-182.5 168.5q-66 -106 -65 -303zM487 1305q0 -94 63.5 -185.5t182.5 -204.5q23 51 32 127t9 136q0 127 -45 195.5t-125 68.5q-57 0 -87 -37t-30 -100z" />
<glyph unicode="9" horiz-adv-x="1191" d="M47 600q0 154 75 265.5t201 169t275 57.5q246 0 384 -154t138 -430q0 -252 -138 -430t-340 -273.5t-400 -119.5l-9 41q125 35 217.5 89t164 162.5t102.5 286.5q-39 -55 -102.5 -80.5t-143.5 -25.5q-119 0 -215 54t-152.5 154.5t-56.5 233.5zM430 618q0 -207 39 -304 t104 -97q39 0 84 33t72 98q8 74 8 180q0 184 -23.5 301t-60.5 169.5t-78 52.5q-61 0 -103 -107.5t-42 -325.5z" />
<glyph unicode=":" horiz-adv-x="626" d="M111 147q0 86 52 131.5t151 45.5q98 0 150.5 -45.5t52.5 -131.5t-52.5 -131t-150.5 -45t-150.5 45t-52.5 131zM111 915q0 86 52 131.5t151 45.5q98 0 150.5 -45.5t52.5 -131.5t-52.5 -131t-150.5 -45t-150.5 45t-52.5 131z" />
<glyph unicode=";" horiz-adv-x="622" d="M109 147q0 80 53 128.5t139 48.5q111 0 162 -76q23 -31 37 -82t14 -113q0 -106 -55 -196t-162 -140l-18 37q53 25 95 71t59 97q10 29 10 68q0 31 -4 45q-53 -63 -150 -64q-82 0 -131 46t-49 130zM109 915q0 86 52 131.5t151 45.5q98 0 150.5 -45.5t52.5 -131.5 t-52.5 -131t-150.5 -45t-150.5 45t-52.5 131z" />
<glyph unicode="&#x3c;" horiz-adv-x="1224" d="M55 727l998 465l34 -74l-837 -391l837 -391l-34 -74z" />
<glyph unicode="=" horiz-adv-x="1284" d="M129 553v61h1026v-61h-1026zM129 840v61h1026v-61h-1026z" />
<glyph unicode="&#x3e;" horiz-adv-x="1224" d="M138 336l34 -74l998 465l-998 465l-34 -74l837 -391z" />
<glyph unicode="?" horiz-adv-x="1103" d="M59 1006q0 70 35 115.5t96 80.5q57 33 140.5 52.5t183.5 19.5q242 0 387.5 -77t145.5 -210q0 -145 -167 -245.5t-458 -147.5l74 -152l-41 -20l-95 188q176 57 248 142.5t72 195.5q0 145 -61.5 215t-165.5 70q-55 0 -101 -10q-41 -8 -61 -29q68 -25 100.5 -69t32.5 -111 q0 -74 -54.5 -123t-142.5 -49q-74 0 -121 48t-47 116zM295 147q0 86 52 131.5t151 45.5q98 0 150 -45.5t52 -131.5t-52 -131t-150 -45t-150.5 45t-52.5 131z" />
<glyph unicode="@" horiz-adv-x="1806" d="M78 293q0 274 136 522t367.5 400.5t505.5 152.5q295 0 477.5 -139t182.5 -424q0 -219 -94 -390t-237.5 -266.5t-282.5 -95.5q-172 1 -172 146q0 31 6 61q-96 -207 -281 -207q-111 0 -182.5 67.5t-71.5 211.5q0 139 67.5 291.5t181.5 254t243 101.5q68 0 109.5 -37 t56.5 -92l20 100q193 0 309 29l-155 -731q-10 -51 -11 -80q0 -43 27 -43q8 0 33 10q94 45 184 137.5t149.5 228.5t59.5 306q0 268 -173 396t-443 128q-252 0 -476.5 -142t-359.5 -381t-135 -511q0 -301 172 -445.5t463 -144.5q238 0 422 111l14 -27q-80 -55 -192.5 -88 t-245.5 -33q-309 0 -491.5 155t-182.5 468zM754 328q0 -86 17 -119t52 -33q54 0 96 59.5t85 184.5l69 346q2 45 -17.5 85t-54.5 40q-51 0 -109 -83t-98 -214t-40 -266z" />
<glyph unicode="A" horiz-adv-x="1417" d="M-43 0v41q51 8 96 63.5t92 176.5l455 1169q66 -4 109 -4q41 0 106 4l496 -1278q26 -66 58 -97.5t63 -33.5v-41q-147 6 -373 6q-233 0 -344 -6v41q78 4 110.5 19.5t32.5 54.5q0 37 -24 98l-121 336h-414l-35 -92q-67 -171 -67 -264q0 -87 47 -117.5t139 -34.5v-41 q-154 6 -268 6q-96 0 -158 -6zM315 590h383l-186 512z" />
<glyph unicode="B" horiz-adv-x="1441" d="M57 0v41q66 4 95.5 16.5t40 47t10.5 112.5v1016q0 78 -11.5 112.5t-40 47t-94.5 16.5v41q117 -6 353 -6l235 2q41 2 94 2q270 0 412.5 -87t142.5 -235q0 -76 -53 -152.5t-159.5 -134t-260.5 -75.5v-4q201 -10 331 -63.5t189.5 -132.5t59.5 -167q0 -201 -160 -299 t-455 -98q-59 0 -100 2q-139 4 -272 4q-240 0 -357 -6zM618 217q0 -74 10.5 -108.5t38 -48t85.5 -13.5q219 1 219 359q0 162 -78 245.5t-246 83.5h-29v-518zM618 770h56q111 0 154.5 91t43.5 243q0 156 -33.5 230.5t-109.5 74.5q-47 0 -70.5 -14.5t-32 -51t-8.5 -110.5v-463 z" />
<glyph unicode="C" horiz-adv-x="1468" d="M74 713q0 225 98 399t274.5 270.5t401.5 96.5q123 0 209 -35t168 -98q20 -18 39 -19q41 0 53 123h47q-8 -145 -8 -512h-47q-14 164 -53 258t-136 158q-96 61 -190 61q-213 0 -299 -204.5t-86 -489.5t86 -489.5t299 -204.5q94 0 190 61q96 59 135 159.5t54 284.5h47 q0 -383 8 -532h-47q-6 66 -17.5 93.5t-31.5 27.5q-16 0 -43 -17q-92 -66 -176 -99.5t-203 -33.5q-231 0 -405.5 88t-270.5 255t-96 399z" />
<glyph unicode="D" d="M57 0v41q66 4 95.5 16.5t40 47t10.5 112.5v1016q0 78 -11.5 112.5t-40 47t-94.5 16.5v41q94 -6 279 -6h74l90 2q172 4 239 4q424 0 635 -181.5t211 -527.5q0 -223 -103.5 -390t-298 -259t-462.5 -92l-127 2q-123 4 -180 4q-240 0 -357 -6zM618 213q0 -74 12.5 -110.5 t44.5 -51t97 -14.5q203 0 293 175t90 521t-93 513t-292 167q-63 0 -95 -14.5t-44.5 -51t-12.5 -110.5v-1024z" />
<glyph unicode="E" horiz-adv-x="1331" d="M57 0v41q66 4 95.5 16.5t40 47t10.5 112.5v1016q0 78 -11.5 112.5t-40 47t-94.5 16.5v41q238 -6 717 -6q301 0 428 6q-14 -193 -14 -344q0 -94 6 -148h-47q-37 238 -137.5 341.5t-239.5 103.5h-27q-55 0 -80.5 -9.5t-35 -35t-9.5 -84.5v-524h21q106 0 182 84t97 186h47 q-6 -86 -7 -193v-98q0 -104 13 -291h-47q-18 117 -95 194t-190 77h-21v-533q0 -59 9.5 -84.5t35 -35t80.5 -9.5h68q119 0 225.5 116t151.5 369h47q-6 -74 -6 -188q0 -209 14 -344q-139 6 -469 6q-479 0 -717 -6z" />
<glyph unicode="F" horiz-adv-x="1245" d="M57 0v41q66 4 95.5 16.5t40 47t10.5 112.5v1016q0 78 -11.5 112.5t-40 47t-94.5 16.5v41q238 -6 717 -6q301 0 428 6q-14 -192 -14 -344q0 -94 6 -148h-47q-49 238 -150.5 341.5t-226.5 103.5h-27q-55 0 -80.5 -9.5t-35 -35t-9.5 -84.5v-524h21q106 0 182 84t97 186h47 q-6 -86 -7 -193v-98q0 -104 13 -291h-47q-18 117 -95 194t-190 77h-21v-471q0 -86 17.5 -125t63.5 -52.5t147 -13.5v-47q-276 6 -422 6q-96 0 -268 -4z" />
<glyph unicode="G" horiz-adv-x="1548" d="M74 713q0 225 101 399t281.5 270.5t411.5 96.5q131 0 225.5 -35t172.5 -98q23 -18 41 -19q20 0 32.5 29.5t18.5 93.5h47q-8 -145 -8 -512h-47q-14 162 -53.5 256t-135.5 160q-43 29 -99 45t-112 16q-147 0 -238 -103.5t-129 -261t-38 -329.5q0 -356 87 -532.5t242 -176.5 q63 0 101 25q43 31 43 102v205q0 102 -16.5 150.5t-58.5 66t-132 21.5v41q139 -6 391 -7q211 0 316 7v-41q-37 -4 -54.5 -16.5t-23.5 -47.5t-6 -112v-406h-41q-2 43 -18.5 80t-45.5 37q-43 0 -139 -47q-205 -98 -346 -99q-381 0 -575.5 192.5t-194.5 549.5z" />
<glyph unicode="H" horiz-adv-x="1697" d="M57 0v41q66 4 95.5 16.5t40 47t10.5 112.5v1016q0 78 -11.5 112.5t-40 47t-94.5 16.5v41q117 -6 365 -6q221 0 342 6v-41q-66 -4 -95.5 -16.5t-40 -47t-10.5 -112.5v-483h461v483q0 78 -11 112.5t-40 47t-94 16.5v41q127 -6 362 -6q233 0 344 6v-41q-65 -4 -94.5 -16.5 t-40 -47t-10.5 -112.5v-1016q0 -78 11.5 -112.5t40 -47t93.5 -16.5v-41q-111 6 -344 6q-236 0 -362 -6v41q66 4 95.5 16.5t39.5 47t10 112.5v492h-461v-492q0 -78 11.5 -112.5t40 -47t94.5 -16.5v-41q-119 6 -342 6q-248 0 -365 -6z" />
<glyph unicode="I" horiz-adv-x="821" d="M57 0v41q66 4 95.5 16.5t40 47t10.5 112.5v1016q0 78 -11.5 112.5t-40 47t-94.5 16.5v41q117 -6 365 -6q221 0 342 6v-41q-66 -4 -95.5 -16.5t-40 -47t-10.5 -112.5v-1016q0 -78 11.5 -112.5t40 -47t94.5 -16.5v-41q-119 6 -342 6q-248 0 -365 -6z" />
<glyph unicode="J" horiz-adv-x="798" d="M-51 -342q82 12 134 51t81 135.5t29 268.5v1120q0 78 -11.5 112.5t-40 47t-94.5 16.5v41q111 -6 342 -6q240 0 365 6v-41q-66 -4 -95.5 -16.5t-40 -47t-10.5 -112.5v-750v-170q0 -119 -7 -209t-28 -155q-49 -150 -206.5 -242t-417.5 -92v43z" />
<glyph unicode="K" horiz-adv-x="1544" d="M57 0v41q66 4 95.5 16.5t40 47t10.5 112.5v1016q0 78 -11.5 112.5t-40 47t-94.5 16.5v41q117 -6 365 -6q221 0 342 6v-41q-66 -4 -95.5 -16.5t-40 -47t-10.5 -112.5v-463q82 6 160 61.5t191 182.5l69 78q90 102 90 184q0 59 -47 95t-120 40v39q172 -6 346 -6q125 0 206 6 v-39q-178 -47 -335 -225l-201 -228l475 -792q29 -47 55.5 -75t69.5 -50v-41q-172 6 -369 6q-152 0 -293 -6v41q66 4 91.5 11t25.5 28q0 20 -20 53l-297 502q-29 49 -48.5 67.5t-48.5 22.5v-508q0 -78 11.5 -112.5t40 -47t94.5 -16.5v-41q-119 6 -342 6q-248 0 -365 -6z" />
<glyph unicode="L" horiz-adv-x="1282" d="M57 0v41q66 4 95.5 16.5t40 47t10.5 112.5v1016q0 78 -11.5 112.5t-40 47t-94.5 16.5v41q117 -6 365 -6q236 0 362 6v-41q-74 -4 -107.5 -16.5t-46 -47t-12.5 -112.5v-1057q0 -57 8.5 -83.5t29 -36t67.5 -9.5h68q72 0 155.5 71.5t151 189.5t90.5 245h47q-6 -74 -6 -188 q0 -221 14 -365q-139 6 -469 6q-479 0 -717 -6z" />
<glyph unicode="M" horiz-adv-x="1976" d="M61 0v41q63 14 94 44t41.5 91.5t10.5 183.5v873q0 78 -11.5 112.5t-40 47t-94.5 16.5v41q61 -6 170 -6q246 0 424 6l387 -870l336 864h178q238 0 363 6v-41q-66 -4 -95.5 -16.5t-39.5 -47t-10 -112.5v-1016q0 -78 11 -112.5t39.5 -47t94.5 -16.5v-41q-125 6 -363 6 q-248 0 -364 -6v41q74 4 107.5 16.5t46 47t12.5 112.5v1047l-494 -1262h-33l-577 1315v-916q0 -152 12.5 -218t54 -97t140.5 -45v-41q-84 6 -230 6q-109 0 -170 -6z" />
<glyph unicode="N" horiz-adv-x="1499" d="M61 0v41q63 14 94 44t41.5 91.5t10.5 183.5v873q0 78 -11.5 112.5t-40 47t-94.5 16.5v41q61 -6 170 -6q111 0 189 6l837 -885v484q0 152 -12 218t-54 97t-140 45v41q84 -6 229 -6q109 0 170 6v-41q-63 -14 -94 -44t-41 -91.5t-10 -183.5v-1090q-41 4 -68 4q-23 0 -76 -4 l-907 991v-590q0 -152 12.5 -218t54 -97t140.5 -45v-41q-84 6 -230 6q-109 0 -170 -6z" />
<glyph unicode="O" horiz-adv-x="1693" d="M74 713q0 225 98 399t274.5 270.5t401.5 96.5q231 0 405 -88t270.5 -255t96.5 -399q0 -225 -98.5 -399t-274.5 -270.5t-401 -96.5q-231 0 -405.5 88t-270.5 255t-96 399zM504 721q0 -213 47 -375t127 -250t176 -88q100 0 177 91t118 255t41 375q0 213 -47 375t-127 250 t-176 88q-101 0 -177.5 -91t-117.5 -255t-41 -375z" />
<glyph unicode="P" horiz-adv-x="1388" d="M57 0v41q66 4 95.5 16.5t40 47t10.5 112.5v1016q0 78 -11.5 112.5t-40 47t-94.5 16.5v41q117 -6 353 -6l235 2q41 2 94 2q303 0 460 -109.5t157 -294.5q0 -113 -61.5 -216t-209 -172.5t-391.5 -69.5h-76v-348q0 -86 17.5 -125t63.5 -52.5t147 -13.5v-47q-276 6 -422 6 q-96 0 -268 -4zM618 627h56q143 0 197.5 106.5t54.5 288.5q0 199 -45 293t-152 94q-47 0 -70.5 -14.5t-32 -51t-8.5 -110.5v-606z" />
<glyph unicode="Q" horiz-adv-x="1693" d="M74 713q0 225 98 399t274.5 270.5t401.5 96.5q231 0 405 -88t270.5 -255t96.5 -399q0 -221 -94 -393t-264 -269.5t-390 -103.5q-47 -6 -91 -20t-83 -31q-82 -33 -135 -47l80 -2q176 -6 299 -6q213 0 348 29q115 25 180.5 63.5t116.5 116.5l39 -11q-10 -135 -48 -231 t-101 -145q-45 -35 -114 -53.5t-142 -18.5q-125 0 -244 39t-301 121l-135 57q-39 14 -49 14q-41 -23 -87.5 -37t-85.5 -14q-43 0 -69.5 15.5t-26.5 46.5t29 47t84 16q72 0 156 -37q78 20 153 56q18 6 42 16t54 20q-203 20 -353 112.5t-232 252.5t-82 373zM504 721 q0 -213 47 -375t127 -250t176 -88q100 0 177 91t118 255t41 375q0 213 -47 375t-127 250t-176 88q-100 0 -177 -91t-118 -255t-41 -375z" />
<glyph unicode="R" horiz-adv-x="1476" d="M57 0v41q66 4 95.5 16.5t40 47t10.5 112.5v1016q0 78 -11.5 112.5t-40 47t-94.5 16.5v41q117 -6 353 -6l235 2q41 2 94 2q311 0 464 -88t153 -268q0 -154 -115 -262.5t-385 -133.5q209 -14 315.5 -78.5t131.5 -189.5l43 -213q14 -76 34.5 -104.5t57.5 -28.5t63 27l27 -27 q-61 -61 -135 -86t-172 -25q-141 0 -219 50.5t-97 171.5l-31 204q-20 143 -56 217t-107 74h-93v-471q0 -78 11.5 -112.5t40 -47t94.5 -16.5v-41q-119 6 -342 6q-248 0 -365 -6zM618 729h56q145 0 198.5 89t53.5 251q0 168 -46 254t-151 86q-47 0 -70.5 -14.5t-32 -51 t-8.5 -110.5v-504z" />
<glyph unicode="S" horiz-adv-x="1255" d="M100 -14q8 139 9 594h47q14 -244 102 -395.5t270 -151.5q113 0 179.5 53t66.5 147q0 117 -72.5 200t-226.5 185q-123 82 -196.5 143.5t-120.5 142.5t-47 188q0 129 69.5 216t185 129t252.5 42q117 0 190 -21.5t142 -60.5q23 -12 40.5 -20.5t29.5 -8.5q18 0 28.5 21.5 t16.5 68.5h47q-10 -147 -10 -500h-47q-8 117 -53.5 223.5t-123 174t-180.5 67.5q-94 0 -151.5 -50t-57.5 -140q0 -70 31 -121t90.5 -99t194.5 -143q12 -6 23.5 -14t21.5 -16q113 -78 180.5 -138.5t109.5 -140.5t42 -184q0 -133 -75 -224.5t-202 -136.5t-280 -45 q-125 0 -208 20.5t-155 55.5q-45 29 -69 29q-18 0 -28.5 -21.5t-17.5 -68.5h-47z" />
<glyph unicode="T" horiz-adv-x="1431" d="M47 1450q195 -6 670 -6q473 0 667 6q-14 -228 -14 -406q0 -94 6 -147h-47q-68 268 -174 387t-229 119h-2v-1172q0 -86 17 -124.5t63.5 -52t146.5 -13.5v-41q-289 6 -449 6q-145 0 -421 -6v41q100 0 146 13.5t63.5 52t17.5 124.5v1172h-2q-125 0 -230.5 -118t-173.5 -388 h-47q6 53 6 147q0 178 -14 406z" />
<glyph unicode="U" horiz-adv-x="1419" d="M27 1409v41q117 -6 360 -6q242 0 367 6v-41q-74 -4 -108 -16.5t-46 -47t-12 -112.5v-836q0 -197 61.5 -275.5t194.5 -78.5q195 0 276.5 138t81.5 392v476q0 152 -12 218t-54 97t-141 45v41q84 -6 230 -6q109 0 170 6v-41q-63 -14 -94 -44t-41.5 -91.5t-10.5 -183.5v-494 q0 -295 -84 -434q-55 -92 -162.5 -141.5t-277.5 -49.5q-248 0 -385 99q-100 72 -134 192.5t-34 327.5v643q0 78 -10 112.5t-40 47t-95 16.5z" />
<glyph unicode="V" horiz-adv-x="1419" d="M-33 1409v41q147 -6 373 -6q233 0 344 6v-41q-78 -4 -110.5 -18.5t-32.5 -57.5q0 -35 24 -96l355 -872l198 557q68 188 68 303q0 178 -168 184v41q154 -6 268 -6q97 0 158 6v-41q-53 -27 -107.5 -96.5t-97.5 -190.5l-399 -1122q-66 4 -109 4q-41 0 -106 -4l-537 1278 q-27 66 -58.5 97.5t-62.5 33.5z" />
<glyph unicode="W" horiz-adv-x="2068" d="M-31 1409v41q147 -6 363 -6q186 0 272 6v-41q-55 -10 -55 -82q0 -43 18 -90l297 -836l180 488l-139 424q-16 51 -40.5 71.5t-63.5 24.5v41q137 -6 354 -6q213 0 318 6v-41q-74 -2 -107 -18.5t-33 -59.5q0 -39 21 -94l270 -821l158 506q55 182 55 286q0 102 -46 149.5 t-132 51.5v41q154 -6 268 -6q97 0 158 6v-41q-121 -59 -191 -287l-344 -1122q-66 4 -108 4q-41 0 -107 -4l-266 813l-289 -813q-66 4 -108 4q-41 0 -107 -4l-475 1278q-25 66 -57.5 97.5t-63.5 33.5z" />
<glyph unicode="X" horiz-adv-x="1492" d="M-12 1409v43q31 0 51 -2q240 -6 319 -6q70 0 285 6q18 2 45 2v-43q-68 0 -97.5 -8t-29.5 -27q0 -14 14 -35l297 -421l117 143q102 121 103 215q0 57 -37 92t-107 41v41q117 -6 273 -6q131 0 198 6v-41q-66 -25 -139.5 -89.5t-136.5 -141.5l-244 -299l518 -734 q43 -61 65.5 -80.5t61.5 -21.5v-43q-29 0 -47 2q-233 6 -303 6q-78 0 -311 -6q-18 -2 -45 -2v43q68 0 97.5 8t29.5 27q0 14 -15 35l-342 487l-125 -156q-104 -131 -104 -239q0 -72 45 -115t125 -49v-41q-117 6 -354 6q-131 0 -199 -6v41q160 68 340 291l246 307l-467 668 q-43 61 -65.5 80.5t-61.5 21.5z" />
<glyph unicode="Y" horiz-adv-x="1318" d="M-18 1409v43q127 -12 282 -12q176 0 451 12v-43q-82 0 -123 -8t-41 -39q0 -14 8 -31l293 -561l92 184q96 193 96 306q0 145 -163 151v41q154 -6 268 -6q97 0 158 6v-41q-104 -51 -218 -272l-190 -377v-545q0 -78 11.5 -112.5t40 -47t93.5 -16.5v-41q-119 6 -352 6 q-244 0 -354 -6v41q66 4 95.5 16.5t39.5 47t10 112.5v377l-379 700q-33 59 -63.5 87t-54.5 28z" />
<glyph unicode="Z" horiz-adv-x="1243" d="M76 0v41l620 1362h-102q-96 0 -192.5 -42t-170 -141.5t-96.5 -261.5h-47q6 53 6 148q0 152 -14 344q127 -6 428 -6q442 0 641 6v-41l-621 -1362h86q84 0 192.5 48t197 157.5t106.5 279.5h47q-6 -74 -6 -188q0 -209 14 -344q-152 6 -510 6q-399 0 -579 -6z" />
<glyph unicode="[" horiz-adv-x="722" d="M174 -111v1467h453v-39h-84v-1389h84v-39h-453z" />
<glyph unicode="\" horiz-adv-x="749" d="M62 1479l557 -1508h68l-558 1508h-67z" />
<glyph unicode="]" horiz-adv-x="722" d="M96 -72v-39h453v1467h-453v-39h84v-1389h-84z" />
<glyph unicode="^" horiz-adv-x="1196" d="M94 860q143 70 272.5 182.5t213.5 231.5h36q80 -117 210 -229.5t276 -184.5l-10 -31q-154 31 -301.5 82.5t-233.5 104.5q-74 -53 -199 -104.5t-254 -82.5z" />
<glyph unicode="_" horiz-adv-x="1267" d="M127 45h1055v-228h-1055v228z" />
<glyph unicode="`" horiz-adv-x="622" d="M555 1614q0 29 12 53q18 37 54 57.5t75 20.5q31 0 64 -14q34 -17 59 -41.5t68 -73.5q90 -113 196 -203l-14 -24q-129 39 -275 61q-59 10 -94 18.5t-67 24.5q-37 18 -57.5 51t-20.5 70z" />
<glyph unicode="a" horiz-adv-x="1298" d="M-35 0v41q49 8 91 61.5t98 178.5l419 964q45 -4 68 -4t68 4l491 -1073q62 -127 121 -131v-41q-104 6 -301 6q-248 0 -365 -6v41q63 4 94 21.5t31 58.5q0 37 -26 92l-101 233h-383q-69 -158 -69 -253q0 -85 49 -116.5t141 -35.5v-41q-154 6 -268 6q-96 0 -158 -6zM287 487 h348l-174 402z" />
<glyph unicode="b" horiz-adv-x="1392" d="M59 0v41q66 4 95.5 16.5t40 47t10.5 112.5v811q0 78 -11.5 113t-40 47t-94.5 16v41q98 -6 291 -6l250 2q43 2 100 2q279 0 407 -69.5t128 -210.5q0 -109 -97.5 -181.5t-316.5 -113.5v-4q287 -27 403.5 -111t116.5 -217q0 -164 -150.5 -250t-442.5 -86q-61 0 -107 2 q-147 4 -287 4q-197 0 -295 -6zM600 217q0 -74 7 -108.5t25.5 -48t59.5 -13.5q123 0 181.5 75t58.5 222q0 143 -62.5 216t-199.5 73h-70v-416zM600 668h35q111 0 155 71.5t44 200.5q0 133 -34 198.5t-110 65.5q-39 0 -57.5 -14t-25.5 -51t-7 -111v-360z" />
<glyph unicode="c" horiz-adv-x="1366" d="M72 610q0 195 91 345.5t247.5 234.5t349.5 84q129 0 205.5 -34t154.5 -99q23 -18 39 -19q41 0 53 123h48q-8 -123 -9 -430h-47q-23 115 -42 165t-60 97q-57 63 -125 99t-139 36q-109 0 -189 -71.5t-124 -205.5t-44 -317q0 -184 49.5 -316t133.5 -200.5t188 -68.5 q76 0 147.5 35.5t124.5 99.5q41 49 59.5 107.5t35.5 175.5h47q0 -322 8 -451h-47q-6 63 -18.5 93t-32.5 30q-16 0 -41 -19q-74 -61 -162 -97t-207 -36q-203 0 -359.5 76t-245.5 220.5t-89 342.5z" />
<glyph unicode="d" horiz-adv-x="1560" d="M59 0v41q66 4 95.5 16.5t40 47t10.5 112.5v811q0 78 -11.5 113t-40 47t-94.5 16v41q80 -6 232 -6l207 2q164 4 223 4q383 0 573.5 -153.5t190.5 -452.5q0 -193 -93.5 -337t-269.5 -223t-420 -79l-143 2q-139 4 -205 4q-197 0 -295 -6zM600 213q0 -74 8 -110.5t32 -51 t73 -14.5q203 0 282.5 144.5t79.5 449.5q0 299 -83 438t-281 139q-47 0 -71 -14t-32 -51t-8 -111v-819z" />
<glyph unicode="e" horiz-adv-x="1267" d="M59 0v41q66 4 95.5 16.5t40 47t10.5 112.5v811q0 78 -11.5 113t-40 47t-94.5 16v41q225 -6 676 -6q287 0 408 6q-14 -145 -15 -262q0 -80 7 -127h-48q-41 182 -130 262t-226 80h-26q-57 0 -81 -20.5t-24 -87.5v-443h47q98 0 156.5 70.5t75.5 159.5h47q-6 -70 -6 -164v-86 q0 -100 12 -250h-47q-14 98 -75.5 163.5t-162.5 65.5h-47v-450q0 -68 23.5 -88.5t81.5 -20.5h47q143 0 238 89t138 294h48q-6 -57 -7 -147q1 -125 15 -283q-133 6 -449 6q-451 0 -676 -6z" />
<glyph unicode="f" horiz-adv-x="1179" d="M59 0v41q66 4 95.5 16.5t40 47t10.5 112.5v811q0 78 -11.5 113t-40 47t-94.5 16v41q225 -6 676 -6q287 0 408 6q-15 -145 -15 -262q0 -80 7 -127h-48q-41 182 -130 262t-226 80h-26q-57 0 -81 -20.5t-24 -87.5v-443h47q98 0 156.5 70.5t75.5 159.5h47q-6 -70 -6 -164v-86 q0 -100 12 -250h-47q-14 98 -75.5 163.5t-162.5 65.5h-47v-368q0 -78 21.5 -119t69.5 -57.5t136 -20.5v-41q-137 6 -403 6q-248 0 -365 -6z" />
<glyph unicode="g" horiz-adv-x="1490" d="M72 598q0 205 98 357.5t273 235.5t403 83q127 0 204.5 -33t172.5 -100q27 -20 41 -21q39 0 51 125h47q-8 -117 -8 -409h-47q-33 160 -103 241q-61 63 -119.5 97t-140.5 34q-141 0 -245.5 -72.5t-161 -205.5t-56.5 -309q0 -313 94.5 -461t280.5 -148q57 0 90 37 q29 35 29 94v201q0 86 -14.5 125t-52.5 53.5t-120 18.5v41q147 -6 371 -7q197 0 295 7v-41q-39 -4 -55.5 -16.5t-22.5 -47.5t-6 -112v-365h-41q-10 94 -51 94q-35 0 -109 -39q-59 -31 -149 -57.5t-197 -26.5q-233 0 -403 75t-259 215t-89 337z" />
<glyph unicode="h" d="M59 0v41q66 4 95.5 16.5t40 47t10.5 112.5v811q0 78 -11.5 113t-40 47t-94.5 16v41q104 -6 324 -6q236 0 362 6v-41q-66 -4 -95 -16t-39.5 -47t-10.5 -113v-381h461v381q0 78 -11.5 113t-40 47t-94.5 16v41q125 -6 363 -6q219 0 324 6v-41q-66 -4 -95.5 -16t-40 -47 t-10.5 -113v-811q0 -78 11.5 -112.5t40 -47t94.5 -16.5v-41q-104 6 -324 6q-236 0 -363 -6v41q66 4 95.5 16.5t40 47t10.5 112.5v389h-461v-389q0 -78 11.5 -112.5t40 -47t93.5 -16.5v-41q-125 6 -362 6q-219 0 -324 -6z" />
<glyph unicode="i" horiz-adv-x="804" d="M59 0v41q66 4 95.5 16.5t40 47t10.5 112.5v811q0 78 -11.5 113t-40 47t-94.5 16v41q111 -6 355 -6q217 0 331 6v-41q-66 -4 -95 -16t-39.5 -47t-10.5 -113v-811q0 -78 10.5 -112.5t40 -47t94.5 -16.5v-41q-113 6 -331 6q-244 0 -355 -6z" />
<glyph unicode="j" horiz-adv-x="782" d="M-332 -193q0 72 55.5 115t145.5 43q86 0 135 -39t49 -112q0 -47 -29.5 -89t-89.5 -65q33 -4 56 -4q80 0 137 63q35 37 51.5 110t16.5 196v1003q0 78 -11.5 113t-40 47t-94.5 16v41q104 -6 324 -6q236 0 362 6v-41q-66 -4 -95.5 -16t-39.5 -47t-10 -113v-545v-170 q0 -119 -7.5 -209t-27.5 -155q-47 -147 -193.5 -240.5t-361.5 -93.5q-150 0 -229 39q-102 51 -103 153z" />
<glyph unicode="k" horiz-adv-x="1536" d="M59 0v41q66 4 95.5 16.5t40 47t10.5 112.5v811q0 78 -11.5 113t-40 47t-94.5 16v41q117 -6 355 -6q217 0 331 6v-41q-66 -4 -95 -16t-39.5 -47t-10.5 -113v-362q100 10 180 51t168 125l47 45q96 90 97 176q0 61 -50.5 100t-123.5 43v39q172 -6 364 -6q125 0 207 6v-39 q-72 -18 -148.5 -65t-148.5 -117l-205 -201l447 -657q39 -55 61.5 -79t63.5 -46v-41q-172 6 -369 6q-152 0 -293 -6v41q66 4 91.5 11t25.5 28q0 20 -21 53l-266 389q-31 45 -57.5 69.5t-69.5 29.5v-404q0 -78 10.5 -112.5t40 -47t94.5 -16.5v-41q-113 6 -331 6 q-238 0 -355 -6z" />
<glyph unicode="l" horiz-adv-x="1226" d="M59 0v41q66 4 95.5 16.5t40 47t10.5 112.5v811q0 78 -11.5 113t-40 47t-94.5 16v41q117 -6 365 -6q207 0 321 6v-41q-66 -4 -95 -16t-39.5 -47t-10.5 -113v-852q0 -80 23.5 -104.5t81.5 -24.5h47q131 0 233 106.5t143 338.5h48q-6 -68 -7 -168q0 -143 15 -324 q-133 6 -449 6q-451 0 -676 -6z" />
<glyph unicode="m" horiz-adv-x="1849" d="M45 1204v41q135 -6 416 -6q113 0 188 6l291 -696l279 690h239q223 0 342 6v-41q-74 -4 -107.5 -16t-46 -47t-12.5 -113v-811q0 -78 12.5 -112.5t46 -47t107.5 -16.5v-41q-119 6 -342 6q-276 0 -405 -6v41q74 4 107.5 16.5t46 47t12.5 112.5v899l-453 -1126h-33l-475 1124 v-815q0 -98 17.5 -147.5t64.5 -73t145 -37.5v-41q-100 6 -249 6q-109 0 -170 -6v41q66 14 95 37.5t39.5 72t10.5 148.5v729q0 78 -12.5 113t-46 47t-107.5 16z" />
<glyph unicode="n" horiz-adv-x="1419" d="M61 0v41q66 14 95.5 37.5t40 72t10.5 148.5v729q0 78 -11.5 113t-40 47t-94.5 16v41q61 -6 170 -6q168 0 291 6l654 -745v446q0 98 -17.5 147.5t-64.5 73t-146 37.5v41q100 -6 250 -6q109 0 170 6v-41q-66 -14 -95.5 -37.5t-39.5 -71.5t-10 -149v-946q-49 4 -74 4 q-27 0 -76 -4l-819 940v-641q0 -98 17.5 -147.5t64.5 -73t145 -37.5v-41q-100 6 -250 6q-109 0 -170 -6z" />
<glyph unicode="o" horiz-adv-x="1607" d="M72 610q0 197 93 347.5t260 233.5t380 83q219 0 384 -75t256 -219t91 -345q0 -197 -93 -347.5t-260 -233.5t-380 -83q-219 0 -384 75t-256 219.5t-91 344.5zM481 618q0 -182 44 -321t119 -214t167 -75q94 0 166 79t110.5 219t38.5 321q0 182 -44 321t-118.5 214 t-166.5 75q-95 0 -166.5 -79t-110.5 -219t-39 -321z" />
<glyph unicode="p" horiz-adv-x="1329" d="M59 0v41q66 4 95.5 16.5t40 47t10.5 112.5v811q0 78 -11.5 113t-40 47t-94.5 16v41q98 -6 291 -6l262 2q47 2 109 2q299 0 437 -86t138 -256t-146 -283.5t-495 -113.5h-55v-287q0 -78 12.5 -112.5t46 -47t107.5 -16.5v-41q-137 6 -404 6q-205 0 -303 -6zM600 545h35 q143 0 197.5 89t54.5 245q0 166 -40 245.5t-136 79.5q-47 0 -71 -14t-32 -51t-8 -111v-483z" />
<glyph unicode="q" horiz-adv-x="1609" d="M74 610q0 197 93 347.5t260 233.5t380 83q219 0 384 -75t256 -219t91 -345q0 -188 -87 -335.5t-243.5 -233.5t-357.5 -95q-49 -6 -91 -19t-97 -36q-10 -4 -54.5 -22.5t-91.5 -28.5q35 0 186 24q63 10 129 20.5t105 10.5q82 0 150.5 -9t177.5 -30q86 -16 148.5 -25.5 t123.5 -9.5q98 0 141 17.5t70 62.5l33 -16q-41 -141 -156 -218t-287 -77q-180 0 -347 47t-410 141l-115 43q-41 -23 -87 -37t-85 -14q-43 0 -69.5 15.5t-26.5 46.5t28.5 47t83.5 16q72 0 156 -37q78 20 164 60q16 6 36.5 15t45.5 17q-293 23 -465 190t-172 445zM483 618 q0 -182 44 -321t119 -214t167 -75q94 0 166 79t110.5 219t38.5 321q0 182 -44 321t-118.5 214t-166.5 75q-94 0 -166 -79t-111 -219t-39 -321z" />
<glyph unicode="r" horiz-adv-x="1421" d="M59 0v41q66 4 95.5 16.5t40 47t10.5 112.5v811q0 78 -11.5 113t-40 47t-94.5 16v41q98 -6 291 -6l250 2q43 2 100 2q596 0 596 -315q0 -131 -117.5 -227.5t-396.5 -120.5q8 0 21.5 -1t32.5 -6q172 -16 271 -64t126 -155l43 -180q12 -51 32.5 -70.5t53.5 -19.5q37 0 72 29 l28 -27q-57 -57 -125.5 -86t-175.5 -29q-133 0 -204.5 46t-92.5 128l-57 232q-18 113 -57 150.5t-115 37.5h-35v-348q0 -78 11.5 -112.5t40 -47t93.5 -16.5v-41q-131 6 -383 6q-205 0 -303 -6zM600 606h55q133 0 182.5 79t49.5 220q0 150 -45 224.5t-152 74.5 q-39 0 -57.5 -14t-25.5 -51t-7 -111v-422z" />
<glyph unicode="s" horiz-adv-x="1241" d="M98 -14q8 123 8 532h48q16 -238 128.5 -366.5t305.5 -128.5q86 0 148.5 38.5t62.5 118.5q0 74 -55.5 129.5t-196.5 143.5q-213 127 -325.5 236.5t-112.5 244.5q0 166 145 253t383 87q172 0 311 -76q23 -12 40.5 -20.5t29.5 -8.5q18 0 28.5 21.5t16.5 69.5h47 q-10 -133 -10 -459h-47q-29 209 -134.5 316.5t-259.5 107.5q-98 0 -155.5 -37t-57.5 -96q0 -53 39 -101.5t100.5 -91.5t194.5 -127q123 -72 201 -130t131 -139t53 -184q0 -168 -153.5 -258t-409.5 -90q-98 0 -170 21.5t-170 60.5q-55 23 -72 23q-18 0 -28 -21.5t-17 -68.5 h-47z" />
<glyph unicode="t" horiz-adv-x="1353" d="M49 1245q182 -6 619 -6q449 0 637 6q-15 -170 -15 -303q0 -123 6 -188h-47q-57 242 -140 343t-216 101h-19v-960q0 -86 16.5 -125t57.5 -53.5t133 -18.5v-41q-115 6 -413 6q-297 0 -396 -6v41q92 4 133 18.5t57.5 53.5t16.5 125v960h-18q-133 0 -216 -101.5t-141 -342.5 h-47q6 66 6 188q0 133 -14 303z" />
<glyph unicode="u" horiz-adv-x="1374" d="M20 1204v41q111 -6 345 -6q223 0 342 6v-41q-66 -4 -95.5 -16t-40 -47t-10.5 -113v-514q0 -145 19.5 -240.5t81 -153t182.5 -57.5q172 0 241.5 124t69.5 345v312q0 152 -12.5 218t-54 97t-140.5 45v41q84 -6 230 -6q123 0 190 6v-41q-74 -14 -107.5 -44t-46 -91 t-12.5 -184v-330q0 -141 -19.5 -240.5t-64.5 -173.5q-51 -78 -150.5 -124t-224.5 -46q-244 0 -385 90q-78 53 -118.5 115t-57 148t-16.5 225v479q0 78 -11.5 113t-40 47t-94.5 16z" />
<glyph unicode="v" horiz-adv-x="1298" d="M-37 1204v41q104 -6 301 -6q248 0 365 6v-41q-63 -4 -94 -21.5t-31 -58.5q0 -37 26 -92l316 -661l139 346q78 193 78 307q0 174 -170 180v41q154 -6 268 -6q97 0 158 6v-41q-109 -53 -205 -286l-373 -918q-23 4 -67 4q-45 0 -68 -4l-522 1073q-61 127 -121 131z" />
<glyph unicode="w" horiz-adv-x="1943" d="M-33 1204v41q104 -6 301 -6q219 0 324 6v-41q-35 -4 -55.5 -27.5t-20.5 -62.5q0 -35 19 -82l268 -635l158 402l-113 274q-25 61 -57.5 95t-63.5 36v41q104 -6 301 -6q233 0 344 6v-41q-61 -4 -89 -23.5t-28 -60.5q0 -33 19 -88l237 -647l123 332q72 195 72 307 q0 174 -166 180v41q154 -6 268 -6q97 0 158 6v-41q-53 -27 -106.5 -96.5t-98.5 -189.5l-338 -918q-23 4 -67 4q-45 0 -68 -4l-303 737l-280 -737q-23 4 -68 4t-68 -4l-481 1073q-61 127 -121 131z" />
<glyph unicode="x" horiz-adv-x="1359" d="M-2 1204v43q27 0 45 -2q215 -6 285 -6t303 6q18 2 47 2v-43q-68 0 -97.5 -8t-29.5 -27q0 -14 14 -34l240 -338l51 59q106 121 107 221q0 55 -35 88t-103 39v41q117 -6 273 -6q131 0 198 6v-41q-59 -25 -122.5 -75t-118.5 -113l-224 -258l433 -613q39 -59 63.5 -79.5 t63.5 -22.5v-43q-27 0 -45 2q-215 6 -285 6t-303 -6q-18 -2 -47 -2v43q68 0 98.5 7t30.5 26q0 14 -17 37l-270 383l-100 -117q-92 -111 -93 -191q0 -66 56.5 -103.5t148.5 -43.5v-41q-117 6 -354 6q-131 0 -199 -6v41q76 39 159 109.5t140 136.5l213 248l-399 567 q-41 59 -64.5 79.5t-62.5 22.5z" />
<glyph unicode="y" horiz-adv-x="1263" d="M-2 1202v43q125 -12 283 -12q160 0 409 12v-43q-121 0 -121 -53q0 -18 15 -41l252 -459l53 99q102 193 102 307q0 143 -164 149v41q154 -6 269 -6q96 0 157 6v-41q-47 -23 -98 -87t-119 -185l-176 -332v-362q0 -86 16.5 -125t57.5 -53.5t133 -18.5v-41q-113 6 -414 6 q-297 0 -395 -6v41q92 4 133 18.5t57.5 53.5t16.5 125v229l-348 620q-33 57 -59.5 83t-59.5 32z" />
<glyph unicode="z" horiz-adv-x="1189" d="M84 0v41l590 1157h-72q-188 0 -297.5 -97t-161.5 -327h-47q6 66 6 189q0 125 -14 282q158 -6 530 -6q328 0 478 6v-41l-590 -1157h61q199 0 312.5 106.5t167.5 358.5h47q-6 -86 -7 -209q0 -133 15 -303q-139 6 -479 6q-371 0 -539 -6z" />
<glyph unicode="{" horiz-adv-x="761" d="M39 608v37h10q66 4 97.5 36t45 110.5t13.5 234.5q0 125 50 198.5t160.5 106.5t301.5 33v-39q-61 -2 -91 -23.5t-41.5 -83t-11.5 -192.5q0 -139 -64.5 -221t-165.5 -120t-247 -58q145 -20 246.5 -58.5t166 -120t64.5 -221.5q0 -133 11.5 -196.5t41 -86t91.5 -24.5v-39 q-188 0 -300 34t-162 109.5t-50 202.5q0 156 -13.5 235t-45 110.5t-97.5 35.5h-10z" />
<glyph unicode="|" horiz-adv-x="561" d="M158 -399v2156h245v-2156h-245z" />
<glyph unicode="}" horiz-adv-x="761" d="M45 -80v-39q188 0 300 34t162 109.5t50 202.5q0 156 13.5 235t45 110.5t97.5 35.5h10v37h-10q-66 4 -97.5 36t-45 110.5t-13.5 234.5q0 125 -50 198.5t-160.5 106.5t-301.5 33v-39q61 -2 91 -23.5t41 -83t11 -192.5q0 -139 64.5 -221t166 -120t247.5 -58 q-145 -20 -247 -58.5t-166.5 -120t-64.5 -221.5q0 -133 -11 -196.5t-41 -86t-91 -24.5z" />
<glyph unicode="~" horiz-adv-x="1392" d="M100 457q10 115 57.5 201.5t120 135t154.5 48.5q80 0 146.5 -24.5t162.5 -76.5q92 -49 157 -73.5t136 -24.5q164 0 226 160l36 -6q-10 -115 -57 -202t-119.5 -135t-154.5 -48q-80 0 -146.5 24.5t-163.5 75.5q-92 49 -156.5 73.5t-136.5 24.5q-164 0 -225 -159z" />
<glyph unicode="&#xa1;" horiz-adv-x="657" d="M113 188q0 51 19.5 107.5t62.5 157.5q53 127 81.5 212t34.5 179h37q6 -94 35 -179t82 -212q43 -100 62.5 -156.5t19.5 -108.5q0 -96 -64.5 -156.5t-152.5 -60.5q-96 0 -156.5 59.5t-60.5 157.5zM127 1098q0 86 52 131t151 45q98 0 150 -45t52 -131t-52 -131t-150 -45 t-150.5 45t-52.5 131z" />
<glyph unicode="&#xa2;" horiz-adv-x="1224" d="M61 610q0 164 76 285t209 186.5t303 69.5v303h41v-303q88 -2 151.5 -22.5t125.5 -55.5q18 -12 34 -12q45 0 58 82h47q-8 -106 -8 -369h-47q-20 102 -41 149.5t-62 92.5q-39 37 -98 57.5t-125 20.5q-23 0 -35 -2v-934q25 -6 49 -6q68 0 130.5 19t101.5 58 q41 47 59.5 101.5t34.5 161.5h47q0 -277 8 -390h-47q-12 82 -55 82q-18 0 -37 -10q-72 -37 -136.5 -57.5t-154.5 -22.5v-303h-41v303q-274 4 -431 133t-157 383zM451 618q0 -178 54 -293.5t144 -154.5v909q-92 -35 -145 -154.5t-53 -306.5z" />
<glyph unicode="&#xa3;" horiz-adv-x="1353" d="M61 12q0 33 44.5 61.5t130.5 45.5q23 41 29.5 86t6.5 125v96v182h-157v41h157v139v25h-157v41h159q37 420 555 420q78 0 142.5 -12.5t103.5 -32.5q59 -31 93 -79t34 -110q0 -76 -50 -127t-130 -51q-84 0 -134 45t-50 119q0 66 34.5 116t98.5 72q-18 14 -44 17.5t-73 3.5 q-80 0 -124 -36t-62.5 -117t-20.5 -228h215v-41h-215v-164h215v-41h-215q-2 -80 -33.5 -144.5t-79 -115.5t-133.5 -131q-47 -39 -92 -86q121 111 216.5 152t179.5 41q47 0 80.5 -6.5t86.5 -20.5q33 -10 68 -17.5t72 -7.5q59 0 97 34t38 83q0 55 -35 89t-98 46l8 33 q108 -18 185 -90t77 -186q0 -150 -92 -230t-274 -80q-70 0 -132.5 17.5t-156.5 52.5q-51 23 -125 45q-8 2 -40 9t-61 7q-57 0 -112 -20q-39 -55 -84 -83t-90 -28q-55 0 -56 41z" />
<glyph unicode="&#xa5;" horiz-adv-x="1359" d="M49 1202v43q127 -12 283 -12q160 0 409 12v-43q-121 0 -120 -53q0 -18 14 -41l252 -459l53 99q102 193 102 307q0 143 -163 149v41q154 -6 268 -6q97 0 158 6v-41q-47 -23 -98.5 -87t-119.5 -185l-176 -332v-92h207v-41h-207v-164h207v-41h-207v-24q0 -86 16.5 -125 t57.5 -53.5t133 -18.5v-41q-113 6 -413 6q-297 0 -396 -6v41q92 4 133 18.5t57.5 53.5t16.5 125v24h-207v41h207v164h-207v41h185l-326 579q-33 57 -59.5 83t-59.5 32z" />
<glyph unicode="&#xa7;" horiz-adv-x="1466" d="M59 641q0 186 306 293q-66 51 -93.5 102t-27.5 109q0 98 70.5 169.5t193.5 109.5t274 38q182 0 295 -49q125 -53 125 -162q0 -76 -58.5 -120t-146.5 -44q-90 0 -149.5 45.5t-59.5 114.5q0 55 39 97t99 63q-74 12 -127 12q-102 0 -154.5 -40t-52.5 -107q0 -49 29.5 -87 t91.5 -71l522 -278q88 -47 131 -92.5t43 -116.5q0 -187 -307 -293q123 -94 123 -211q0 -98 -71 -170t-192.5 -110t-273.5 -38q-184 0 -297 50q-125 53 -125 161q0 76 58.5 120t146.5 44q90 0 149.5 -45t59.5 -115q0 -55 -39 -97t-98 -62q74 -12 127 -13q102 0 154.5 40 t52.5 108q0 49 -30 87t-91 71l-523 278q-88 47 -131 92t-43 117zM324 813q0 -49 90 -98l577 -312q29 -14 84 -51q70 58 70 103q0 49 -90 98l-578 309q-37 18 -86 51q-68 -53 -67 -100z" />
<glyph unicode="&#xa8;" horiz-adv-x="1048" d="M869 1589q0 72 52 125t126 53q72 0 125 -53t53 -125q0 -74 -53 -126t-125 -52q-74 0 -126 52.5t-52 125.5zM1397 1589q0 72 52.5 125t125.5 53q72 0 125 -53t53 -125q0 -74 -53 -126t-125 -52q-74 0 -126 52.5t-52 125.5z" />
<glyph unicode="&#xa9;" horiz-adv-x="1785" d="M78 786q0 221 109.5 408.5t297 297.5t408.5 110t408.5 -110t297 -297t109.5 -409q0 -221 -109.5 -408.5t-297 -297t-408.5 -109.5t-408.5 109.5t-297 297t-109.5 408.5zM160 786q0 -203 98 -374.5t267 -273t368 -101.5t368 101.5t267 273.5t98 374q0 203 -98 375 t-267 273.5t-368 101.5t-368 -101.5t-267 -273.5t-98 -375zM420 786q0 281 144.5 421.5t381.5 140.5q82 0 152.5 -17.5t118.5 -44.5q57 -35 89.5 -90t32.5 -123q0 -86 -55 -142.5t-141 -56.5q-88 0 -138.5 50.5t-50.5 134.5q0 74 48.5 130t119.5 75q-20 12 -52 21t-64 9 q-35 0 -62 -8q-70 -23 -105.5 -127t-35.5 -344q0 -231 73.5 -328.5t182.5 -97.5q150 0 248 199l34 -13q-45 -143 -152.5 -245.5t-275.5 -102.5q-223 0 -358 133.5t-135 425.5z" />
<glyph unicode="&#xaa;" horiz-adv-x="1013" d="M78 899q0 82 65.5 128t231.5 93q70 20 117 49t47 66v37q0 90 -30 129t-89 39q-49 0 -84 -23q49 -14 75.5 -52t26.5 -79q0 -63 -50 -100t-120 -37q-72 0 -115.5 37t-43.5 96q0 49 32.5 88t85.5 62q59 25 127 36t160 11q186 0 269 -61.5t83 -198.5v-353q0 -20 7.5 -28.5 t23.5 -8.5q27 0 43 15l23 -31q-109 -76 -267 -76q-84 0 -118.5 24.5t-38.5 72.5q-49 -49 -115 -73t-135 -24q-96 0 -153.5 40t-57.5 122zM420 940q0 -41 16.5 -65.5t40.5 -24.5q37 0 62 20v306q-7 -15 -23 -36.5t-39 -45.5q-57 -63 -57 -154z" />
<glyph unicode="&#xab;" horiz-adv-x="1284" d="M55 606v41q164 111 312.5 242t314.5 303l29 -8q-31 -133 -107 -305t-141 -252q66 -80 141.5 -252t106.5 -303l-29 -9q-164 170 -312.5 301.5t-314.5 241.5zM580 606v41q139 92 265 201.5t279 261.5l29 -8q-20 -109 -78.5 -257.5t-107.5 -217.5q49 -70 107.5 -217.5 t78.5 -255.5l-29 -9q-150 150 -276.5 259.5t-267.5 201.5z" />
<glyph unicode="&#xac;" horiz-adv-x="1294" d="M139 696v62h1026v-420h-73v358h-953z" />
<glyph unicode="&#xad;" horiz-adv-x="1001" d="M131 512v203h739v-203h-739z" />
<glyph unicode="&#xae;" horiz-adv-x="1343" d="M100 1030q0 156 77 287t208 208t287 77q155 0 286.5 -77t208 -208t76.5 -287t-76.5 -287t-208 -207.5t-286.5 -76.5q-156 0 -287 76.5t-208 207.5t-77 287zM186 1030q0 -137 64.5 -252.5t176.5 -184.5t245 -69t244.5 69t176 184.5t64.5 252.5t-64.5 253t-176 184.5 t-244.5 68.5t-245 -68.5t-176.5 -184.5t-64.5 -253zM377 721v31q31 4 39 16t8 59v449q0 47 -8 60.5t-39 17.5v30q33 -2 147 -2l176 2q137 0 197.5 -40.5t60.5 -120.5q0 -51 -49 -98.5t-168 -65.5q102 -8 141.5 -35t51.5 -84l35 -145q6 -35 26 -35q12 0 23 8l12 -23 q-41 -35 -119 -34q-143 0 -159 92l-27 147q-8 47 -25.5 65.5t-68.5 24.5v-213q0 -47 8 -59t39 -16v-31l-146 2zM631 1077h8q55 0 86 36t31 104q0 66 -22.5 101.5t-65.5 35.5q-21 0 -29 -11.5t-8 -39.5v-226z" />
<glyph unicode="&#xb0;" horiz-adv-x="608" d="M55 1434q0 111 73 178t175 67q105 0 177.5 -67.5t72.5 -177.5q0 -111 -72.5 -179.5t-177.5 -68.5q-102 0 -175 68.5t-73 179.5zM106 1432q0 -100 59.5 -155.5t137.5 -55.5t138.5 55t60.5 156q0 98 -61.5 155.5t-137.5 57.5t-136.5 -57.5t-60.5 -155.5z" />
<glyph unicode="&#xb1;" horiz-adv-x="1161" d="M66 0v62h1026v-62h-1026zM70 696v62h477v483h73v-483h476v-62h-476v-481h-73v481h-477z" />
<glyph unicode="&#xb4;" horiz-adv-x="622" d="M686 1413q106 90 197 203q43 49 67.5 73.5t59.5 41.5q32 14 63 14q39 0 75 -20.5t54 -57.5q12 -25 12 -53q0 -37 -20.5 -70t-57.5 -51q-33 -16 -67.5 -24.5t-93.5 -18.5q-145 -23 -275 -61z" />
<glyph unicode="&#xb6;" horiz-adv-x="1583" d="M59 635q0 178 92.5 317.5t267.5 217t415 77.5q98 0 266 -4l221 -2q127 0 190 4v-39q-94 -4 -125.5 -35.5t-31.5 -103.5v-1221q0 -78 12 -112.5t46 -47t108 -16.5v-41q-131 6 -383 6q-276 0 -406 -6v41q86 4 130 22.5t60.5 58.5t16.5 116v133q-461 0 -670 171t-209 464z M242 596q0 -8 85 -19.5t224 -20.5t297 -9q2 -125 20.5 -236.5t40 -182.5t31.5 -71v1082q-10 0 -31.5 -72t-40 -184.5t-20.5 -235.5q-158 0 -297 -9t-224 -21.5t-85 -20.5z" />
<glyph unicode="&#xb7;" horiz-adv-x="630" d="M113 627q0 86 52 131t150 45q99 0 151 -45t52 -131t-52 -131t-151 -45q-98 0 -150 45t-52 131z" />
<glyph unicode="&#xb8;" horiz-adv-x="712" d="M528 -358l13 36q57 -10 119 -10q76 0 132 19.5t56 58.5q0 51 -98 51q-41 0 -68 -14l64 227h55l-37 -133q82 31 182 31q84 0 128 -33t44 -86q0 -86 -105.5 -130t-279.5 -44q-125 0 -205 27z" />
<glyph unicode="&#xba;" horiz-adv-x="978" d="M66 1108q0 178 114.5 274.5t308.5 96.5q195 0 309.5 -96.5t114.5 -274.5t-114.5 -274.5t-309.5 -96.5t-309 96.5t-114 274.5zM408 1108q0 -334 81 -334q82 0 82 334t-82 334q-81 0 -81 -334z" />
<glyph unicode="&#xbb;" horiz-adv-x="1284" d="M131 152q20 109 78.5 257t107.5 218q-49 70 -107 217t-79 256l29 8q149 -150 276 -259.5t269 -201.5v-41q-139 -92 -265.5 -201.5t-279.5 -261.5zM573 70q31 133 107 305t141 252q-66 80 -141.5 252t-106.5 303l29 8q164 -170 312.5 -301t314.5 -242v-41 q-164 -111 -312.5 -242t-314.5 -303z" />
<glyph unicode="&#xbf;" horiz-adv-x="1103" d="M57 258q0 145 167 245.5t458 147.5l-74 152l41 20l94 -188q-176 -57 -247.5 -142t-71.5 -196q0 -145 61.5 -215t165.5 -70q53 0 99 11q45 10 63 28q-68 25 -100.5 69t-32.5 111q0 74 54 123t143 49q74 0 120.5 -48t46.5 -115q0 -70 -34.5 -116t-96.5 -81 q-57 -33 -140 -52.5t-183 -19.5q-242 0 -387.5 77t-145.5 210zM395 1098q0 86 52.5 131t150.5 45t150.5 -45t52.5 -131t-52.5 -131t-150.5 -45t-150.5 45t-52.5 131z" />
<glyph unicode="&#xf7;" horiz-adv-x="1275" d="M131 696v62h1026v-62h-1026zM528 432q0 47 34 80t79 33q47 0 81 -33t34 -80t-34 -81t-81 -34t-80 34t-33 81zM528 1022q0 47 34 80t79 33q47 0 81 -33t34 -80t-34 -80t-81 -33t-80 33t-33 80z" />
<glyph unicode="&#x2c6;" horiz-adv-x="1007" d="M884 1397q131 61 249 156.5t196 195.5h37q73 -98 192 -193.5t252 -158.5l-10 -31q-139 20 -276.5 55t-217.5 70q-68 -35 -182.5 -70t-228.5 -55z" />
<glyph unicode="&#x2da;" horiz-adv-x="538" d="M31 1585q0 92 69.5 149.5t167.5 57.5q99 0 169.5 -57.5t70.5 -149.5q0 -94 -70.5 -151.5t-169.5 -57.5q-98 0 -167.5 57.5t-69.5 151.5zM88 1583q0 -78 54.5 -121t125.5 -43q72 0 127.5 43t55.5 121q0 76 -55.5 121t-127.5 45q-69 0 -124.5 -45t-55.5 -121z" />
<glyph unicode="&#x2dc;" horiz-adv-x="987" d="M0 1444q39 160 121 236.5t184 76.5q78 0 133.5 -19.5t118.5 -54.5q66 -33 105.5 -47t95.5 -14q117 0 198 109l29 -15q-39 -160 -120 -236.5t-183 -76.5q-78 0 -131 18.5t-125 55.5q-59 33 -101 48t-98 15q-115 0 -198 -110z" />
<glyph unicode="&#x3a9;" horiz-adv-x="1609" d="M113 967q0 242 181 377t511 135t511 -135.5t181 -376.5q0 -115 -41 -215.5t-101.5 -183.5t-168.5 -206q-86 -100 -140.5 -168.5t-105.5 -146.5h117q143 0 238.5 89t138.5 294h47q-6 -57 -6 -147q0 -125 14 -283q-90 6 -305 6q-45 0 -164 -4l-131 -2v33 q82 162 150.5 395.5t68.5 497.5q0 254 -70.5 385t-232.5 131t-232.5 -131t-70.5 -385q0 -264 68.5 -497.5t150.5 -395.5v-33l-131 2q-119 4 -164 4q-215 0 -305 -6q14 158 14 283q0 90 -6 147h47q43 -205 138.5 -294t238.5 -89h117q-51 78 -105.5 146.5t-140.5 168.5 q-109 123 -169 206t-101 183.5t-41 215.5z" />
<glyph unicode="&#x3c0;" horiz-adv-x="1226" d="M57 92q0 78 46.5 121t150.5 88q109 47 157 82t75.5 104.5t45.5 217.5h-96q-135 0 -210.5 -36t-131.5 -143l-35 9q57 264 173 395t348 131h589v-356h-389l-30 -177q-2 -12 -2 -34q0 -119 102 -119q84 0 139 43t94 143l39 -8q-33 -209 -106.5 -395.5t-200.5 -186.5 q-74 0 -110.5 50.5t-36.5 168.5q0 92 24 240l47 275h-172q-37 -440 -147 -619q-74 -115 -221 -115q-61 0 -101.5 33t-40.5 88z" />
<glyph unicode="&#x400;" horiz-adv-x="1331" d="M57 0v41q66 4 95.5 16.5t40 47t10.5 112.5v1016q0 78 -11.5 112.5t-40 47t-94.5 16.5v41q238 -6 717 -6q301 0 428 6q-14 -193 -14 -344q0 -94 6 -148h-47q-37 238 -137.5 341.5t-239.5 103.5h-27q-55 0 -80.5 -9.5t-35 -35t-9.5 -84.5v-524h21q106 0 182 84t97 186h47 q-6 -86 -7 -193v-98q0 -104 13 -291h-47q-18 117 -95 194t-190 77h-21v-533q0 -59 9.5 -84.5t35 -35t80.5 -9.5h68q119 0 225.5 116t151.5 369h47q-6 -74 -6 -188q0 -209 14 -344q-139 6 -469 6q-479 0 -717 -6zM275 1806q0 29 12 54q18 37 54 57t75 20q31 0 63 -14 q35 -16 59.5 -40.5t67.5 -74.5q90 -113 197 -202l-14 -25q-129 39 -275 61q-59 10 -94 18.5t-68 25.5q-37 18 -57 50.5t-20 69.5z" />
<glyph unicode="&#x401;" horiz-adv-x="1331" d="M57 0v41q66 4 95.5 16.5t40 47t10.5 112.5v1016q0 78 -11.5 112.5t-40 47t-94.5 16.5v41q238 -6 717 -6q301 0 428 6q-14 -193 -14 -344q0 -94 6 -148h-47q-37 238 -137.5 341.5t-239.5 103.5h-27q-55 0 -80.5 -9.5t-35 -35t-9.5 -84.5v-524h21q106 0 182 84t97 186h47 q-6 -86 -7 -193v-98q0 -104 13 -291h-47q-18 117 -95 194t-190 77h-21v-533q0 -59 9.5 -84.5t35 -35t80.5 -9.5h68q119 0 225.5 116t151.5 369h47q-6 -74 -6 -188q0 -209 14 -344q-139 6 -469 6q-479 0 -717 -6zM213 1739q0 72 52 125t126 53q69 0 123.5 -53.5t54.5 -124.5 q0 -74 -53.5 -126t-124.5 -52q-74 0 -126 52t-52 126zM741 1739q0 72 52 125t126 53q70 0 124 -53.5t54 -124.5q0 -74 -53 -126t-125 -52q-74 0 -126 52t-52 126z" />
<glyph unicode="&#x402;" horiz-adv-x="2011" d="M47 1450q195 -6 670 -6q473 0 667 6q-14 -203 -14 -365q0 -94 6 -147h-47q-72 217 -181.5 341t-221.5 124h-2v-690q86 63 208.5 101t282.5 38q162 0 291 -51t204 -152.5t75 -249.5q0 -139 -75 -235t-203 -144.5t-286 -48.5q-102 0 -193 33t-148.5 98.5t-57.5 159.5 t64.5 148.5t156.5 54.5q88 0 139.5 -50t51.5 -139q0 -88 -53.5 -144t-149.5 -83q66 -27 131 -26q104 0 169.5 94t65.5 280q0 389 -319 389q-102 0 -203.5 -33.5t-150.5 -82.5v-693q-127 29 -316 29q-172 0 -327 -6v41q100 0 146 13.5t63.5 52t17.5 124.5v1172h-2 q-125 0 -230.5 -118t-173.5 -388h-47q6 53 6 147q0 178 -14 406z" />
<glyph unicode="&#x403;" horiz-adv-x="1232" d="M57 0v41q66 4 94.5 16.5t40 47t11.5 112.5v1016q0 78 -10.5 112.5t-40 47t-95.5 16.5v41q238 -6 717 -6q301 0 428 6q-14 -192 -14 -344q0 -94 6 -148h-47q-49 238 -150.5 341.5t-226.5 103.5h-27q-55 0 -80.5 -9.5t-35 -35t-9.5 -84.5v-1057q0 -78 12.5 -112.5t46.5 -47 t107 -16.5v-41q-125 6 -362 6q-248 0 -365 -6zM424 1606q106 90 196 202q43 49 68 74t59 41q33 14 64 14q39 0 74.5 -20.5t54.5 -56.5q12 -25 12 -54q0 -37 -20.5 -69.5t-57.5 -50.5q-33 -16 -67.5 -24.5t-93.5 -19.5q-145 -23 -275 -61z" />
<glyph unicode="&#x404;" horiz-adv-x="1472" d="M74 713q0 225 98 399t274.5 270.5t401.5 96.5q123 0 209 -35t168 -98q20 -18 39 -19q41 0 53 123h47q-8 -113 -8 -389h-47q-31 113 -67 172t-122 121q-88 61 -190 61q-213 0 -299 -204.5t-86 -489.5q0 -68 2 -103q33 150 98.5 230t136.5 80q43 0 79 -18.5t87 -53.5 q43 -31 75 -47t64 -16q35 0 72 30.5t51 100.5l35 -6q-25 -197 -86 -300.5t-143 -103.5q-43 0 -79 17.5t-81 52.5q-49 33 -80 49t-69 16q-45 0 -86 -25.5t-68 -74.5q23 -227 112 -374.5t265 -147.5q94 0 190 61q96 59 135 159.5t54 284.5h47q0 -383 8 -532h-47 q-6 66 -17.5 93.5t-31.5 27.5q-16 0 -43 -17q-92 -66 -176 -99.5t-203 -33.5q-231 0 -405.5 88t-270.5 255t-96 399z" />
<glyph unicode="&#x405;" horiz-adv-x="1255" d="M100 -14q8 139 9 594h47q14 -244 102 -395.5t270 -151.5q113 0 179.5 53t66.5 147q0 117 -72.5 200t-226.5 185q-123 82 -196.5 143.5t-120.5 142.5t-47 188q0 129 69.5 216t185 129t252.5 42q117 0 190 -21.5t142 -60.5q23 -12 40.5 -20.5t29.5 -8.5q18 0 28.5 21.5 t16.5 68.5h47q-10 -147 -10 -500h-47q-8 117 -53.5 223.5t-123 174t-180.5 67.5q-94 0 -151.5 -50t-57.5 -140q0 -70 31 -121t90.5 -99t194.5 -143q12 -6 23.5 -14t21.5 -16q113 -78 180.5 -138.5t109.5 -140.5t42 -184q0 -133 -75 -224.5t-202 -136.5t-280 -45 q-125 0 -208 20.5t-155 55.5q-45 29 -69 29q-18 0 -28.5 -21.5t-17.5 -68.5h-47z" />
<glyph unicode="&#x406;" horiz-adv-x="821" d="M57 0v41q66 4 95.5 16.5t40 47t10.5 112.5v1016q0 78 -11.5 112.5t-40 47t-94.5 16.5v41q117 -6 365 -6q221 0 342 6v-41q-66 -4 -95.5 -16.5t-40 -47t-10.5 -112.5v-1016q0 -78 11.5 -112.5t40 -47t94.5 -16.5v-41q-119 6 -342 6q-248 0 -365 -6z" />
<glyph unicode="&#x407;" horiz-adv-x="821" d="M-20 1739q0 72 52 125t126 53q69 0 123.5 -53.5t54.5 -124.5q0 -74 -53.5 -126t-124.5 -52q-74 0 -126 52t-52 126zM57 0v41q66 4 95.5 16.5t40 47t10.5 112.5v1016q0 78 -11.5 112.5t-40 47t-94.5 16.5v41q117 -6 365 -6q221 0 342 6v-41q-66 -4 -95.5 -16.5t-40 -47 t-10.5 -112.5v-1016q0 -78 11.5 -112.5t40 -47t94.5 -16.5v-41q-119 6 -342 6q-248 0 -365 -6zM508 1739q0 72 52 125t126 53q70 0 124 -53.5t54 -124.5q0 -74 -53 -126t-125 -52q-74 0 -126 52t-52 126z" />
<glyph unicode="&#x408;" horiz-adv-x="798" d="M-51 -342q82 12 134 51t81 135.5t29 268.5v1120q0 78 -11.5 112.5t-40 47t-94.5 16.5v41q111 -6 342 -6q240 0 365 6v-41q-66 -4 -95.5 -16.5t-40 -47t-10.5 -112.5v-750v-170q0 -119 -7 -209t-28 -155q-49 -150 -206.5 -242t-417.5 -92v43z" />
<glyph unicode="&#x409;" horiz-adv-x="2088" d="M-43 195q0 96 65.5 155.5t163.5 59.5q84 0 133.5 -40t49.5 -112q0 -90 -60.5 -152.5t-152.5 -78.5q16 -16 51 -17q145 0 223 174t106.5 413t51.5 636q2 16 2 45q0 53 -14.5 79.5t-49 37t-104.5 14.5v41q86 -6 211 -6q31 0 92 4l88 2l137 -2q94 -4 156 -4q244 0 367 6v-41 q-74 -4 -108 -16.5t-46 -47t-12 -112.5v-369h75q362 0 512 -114.5t150 -300.5q0 -197 -145.5 -319t-425.5 -130h-9h-34q-174 0 -263 6h-75q-240 0 -367 -6v41q74 4 107.5 16.5t46 47t12.5 112.5v1016q0 106 -28.5 141t-96.5 35h-6q-55 0 -86 -37t-39 -139q-6 -57 -9 -110.5 t-8 -100.5q-23 -328 -54.5 -537t-115 -361.5t-241.5 -152.5q-109 0 -179.5 64.5t-70.5 159.5zM1307 217q0 -74 11 -108.5t41 -48t93 -17.5q88 8 125 99t37 274q0 193 -53.5 300t-198.5 107h-55v-606z" />
<glyph unicode="&#x40a;" horiz-adv-x="2265" d="M57 0v41q66 4 95.5 16.5t40 47t10.5 112.5v1016q0 78 -11.5 112.5t-40 47t-94.5 16.5v41q117 -6 365 -6q221 0 342 6v-41q-66 -4 -95.5 -16.5t-40 -47t-10.5 -112.5v-483h461v483q0 78 -11 112.5t-40 47t-94 16.5v41q127 -6 362 -6q233 0 344 6v-41q-66 -4 -95 -16.5 t-39.5 -47t-10.5 -112.5v-483h76q360 0 510.5 -100.5t150.5 -260.5q0 -172 -150.5 -278.5t-441.5 -110.5h-2h-20q-174 0 -264 6h-58q-236 0 -362 -6v41q66 4 95.5 16.5t39.5 47t10 112.5v492h-461v-492q0 -78 11.5 -112.5t40 -47t94.5 -16.5v-41q-119 6 -342 6 q-248 0 -365 -6zM1495 217q0 -76 10.5 -110.5t38 -48t88.5 -17.5q92 6 131 86t39 235q0 164 -57 255.5t-215 91.5h-35v-492z" />
<glyph unicode="&#x40b;" horiz-adv-x="1947" d="M47 1450q195 -6 670 -6q473 0 667 6q-14 -227 -14 -406q0 -94 6 -147h-47q-68 268 -174 387t-229 119h-2v-707q72 29 176 51.5t223 22.5q205 0 330 -72q78 -45 108.5 -113.5t30.5 -181.5v-186q0 -78 10 -112.5t40 -47t95 -16.5v-41q-117 6 -356 6q-229 0 -350 -6v41 q66 4 94.5 16.5t39.5 47t11 112.5v252q0 96 -13 144.5t-51 70t-116 21.5q-70 0 -144.5 -13.5t-127.5 -36.5v-424q0 -86 17 -124.5t63.5 -52t146.5 -13.5v-41q-289 6 -449 6q-145 0 -421 -6v41q100 0 146 13.5t63.5 52t17.5 124.5v1172h-2q-125 0 -230.5 -118t-173.5 -388 h-47q6 53 6 147q0 178 -14 406z" />
<glyph unicode="&#x40c;" horiz-adv-x="1536" d="M57 0v41q66 4 95.5 16.5t40 47t10.5 112.5v1016q0 78 -11.5 112.5t-40 47t-94.5 16.5v41q117 -6 365 -6q221 0 342 6v-41q-66 -4 -95.5 -16.5t-40 -47t-10.5 -112.5v-457q84 6 162 59.5t189 178.5l69 78q90 102 90 184q0 59 -47 95t-120 40v39q172 -6 346 -6q125 0 206 6 v-39q-172 -45 -335 -225l-375 -414q223 -14 338.5 -75.5t144.5 -196.5l60 -285q14 -76 35.5 -104.5t58.5 -28.5q35 0 61 27l27 -27q-61 -61 -135 -86t-172 -25q-143 0 -220 50.5t-96 171.5l-53 352q-18 109 -68.5 150.5t-165.5 47.5v-526q0 -78 11.5 -112.5t40 -47 t94.5 -16.5v-41q-119 6 -342 6q-248 0 -365 -6zM717 1606q106 90 196 202q43 49 68 74t59 41q33 14 64 14q39 0 74.5 -20.5t54.5 -56.5q12 -25 12 -54q0 -37 -20.5 -69.5t-57.5 -50.5q-33 -16 -67.5 -24.5t-93.5 -19.5q-145 -23 -275 -61z" />
<glyph unicode="&#x40d;" horiz-adv-x="1738" d="M57 0v41q66 4 94.5 16.5t40 47t11.5 112.5v1016q0 78 -11.5 112.5t-40 47t-94.5 16.5v41q117 -6 365 -6q221 0 342 6v-41q-66 -4 -94.5 -16.5t-40 -47t-11.5 -112.5v-946l502 973q-2 63 -14 92.5t-41 41t-90 15.5v41q119 -6 342 -6q248 0 364 6v-41q-65 -4 -93.5 -16.5 t-40 -47t-11.5 -112.5v-1016q0 -78 11.5 -112.5t40 -47t93.5 -16.5v-41q-117 6 -364 6q-221 0 -342 -6v41q66 4 94.5 16.5t39.5 47t11 112.5v942l-502 -975q2 -59 14.5 -88.5t42.5 -40t89 -14.5v-41q-119 6 -342 6q-248 0 -365 -6zM480 1806q0 29 12 54q18 37 54 57t75 20 q31 0 63 -14q35 -16 59.5 -40.5t67.5 -74.5q90 -113 197 -202l-14 -25q-129 39 -275 61q-59 10 -94 18.5t-68 25.5q-37 18 -57 50.5t-20 69.5z" />
<glyph unicode="&#x40e;" horiz-adv-x="1368" d="M-31 1409v41q84 -6 332 -6q262 0 354 6v-41q-80 -8 -80 -78q0 -43 25 -94l324 -551l133 266q94 190 94 301q0 150 -170 156v41q154 -6 268 -6q97 0 158 6v-41q-47 -23 -97 -86t-118 -186l-383 -775l-96 -194q-45 -92 -90 -137q-59 -59 -183 -60q-131 0 -206.5 58.5 t-75.5 144.5t66.5 140.5t162.5 54.5q102 0 162.5 -40t60.5 -112q0 -74 -52 -123t-138 -71q12 -10 59 -11q61 0 106.5 40t84.5 120l43 88l-598 1018q-72 119 -146 131zM180 1788q0 63 55.5 107t141.5 44t143 -44t57 -111q0 -57 -43 -96t-108 -56q131 -31 278 -30 q147 0 277 32q-68 18 -108 56.5t-40 93.5q0 68 56.5 111.5t142.5 43.5t142.5 -44t56.5 -107q0 -51 -38 -91t-102 -69q-66 -31 -166 -49t-221 -18t-221 18t-168 49q-61 27 -98 68t-37 92z" />
<glyph unicode="&#x40f;" horiz-adv-x="1697" d="M57 0v41q66 4 94.5 16.5t40 47t11.5 112.5v1016q0 78 -11.5 112.5t-40 47t-94.5 16.5v41q117 -6 365 -6q221 0 342 6v-41q-66 -4 -94.5 -16.5t-40 -47t-11.5 -112.5v-1016q0 -78 12.5 -113.5t47.5 -49t106 -13.5h129q72 0 107 13.5t47 49t12 113.5v1016q0 78 -11 112.5 t-40 47t-94 16.5v41q119 -6 342 -6q248 0 364 6v-41q-65 -4 -93.5 -16.5t-40 -47t-11.5 -112.5v-1016q0 -78 11.5 -112.5t40 -47t93.5 -16.5v-41q-117 6 -364 6h-8q-150 0 -261.5 -92t-134.5 -293h-47q-23 201 -134 293t-261 92h-8q-248 0 -365 -6z" />
<glyph unicode="&#x410;" horiz-adv-x="1417" d="M-43 0v41q51 8 96 63.5t92 176.5l455 1169q66 -4 109 -4q41 0 106 4l496 -1278q26 -66 58 -97.5t63 -33.5v-41q-147 6 -373 6q-233 0 -344 -6v41q78 4 110.5 19.5t32.5 54.5q0 37 -24 98l-121 336h-414l-35 -92q-68 -174 -67 -267q0 -84 47 -114.5t139 -34.5v-41 q-154 6 -268 6q-96 0 -158 -6zM315 590h383l-186 512z" />
<glyph unicode="&#x411;" horiz-adv-x="1398" d="M57 0v41q66 4 94.5 16.5t40 47t11.5 112.5v1016q0 78 -10.5 112.5t-40 47t-95.5 16.5v41q238 -6 717 -6q301 0 428 6q-14 -193 -14 -344q0 -94 6 -148h-47q-49 238 -150.5 341.5t-226.5 103.5h-27q-55 0 -80.5 -9.5t-35 -35t-9.5 -84.5v-410h76q359 0 510.5 -126 t151.5 -310q0 -195 -157 -310.5t-458 -115.5q-57 0 -96 2l-248 2q-223 0 -340 -6zM618 217q0 -104 20.5 -140t84.5 -36q111 0 157 91t46 284t-53.5 300t-198.5 107h-56v-606z" />
<glyph unicode="&#x412;" horiz-adv-x="1441" d="M57 0v41q66 4 95.5 16.5t40 47t10.5 112.5v1016q0 78 -11.5 112.5t-40 47t-94.5 16.5v41q117 -6 353 -6l235 2q41 2 94 2q270 0 412.5 -87t142.5 -235q0 -76 -53 -152.5t-159.5 -134t-260.5 -75.5v-4q201 -10 331 -63.5t189.5 -132.5t59.5 -167q0 -201 -160 -299 t-455 -98q-59 0 -100 2q-139 4 -272 4q-240 0 -357 -6zM618 217q0 -74 10.5 -108.5t38 -48t85.5 -13.5q219 1 219 359q0 162 -78 245.5t-246 83.5h-29v-518zM618 770h56q111 0 154.5 91t43.5 243q0 156 -33.5 230.5t-109.5 74.5q-47 0 -70.5 -14.5t-32 -51t-8.5 -110.5v-463 z" />
<glyph unicode="&#x413;" horiz-adv-x="1232" d="M57 0v41q66 4 94.5 16.5t40 47t11.5 112.5v1016q0 78 -10.5 112.5t-40 47t-95.5 16.5v41q238 -6 717 -6q301 0 428 6q-14 -192 -14 -344q0 -94 6 -148h-47q-49 238 -150.5 341.5t-226.5 103.5h-27q-55 0 -80.5 -9.5t-35 -35t-9.5 -84.5v-1057q0 -78 12.5 -112.5t46.5 -47 t107 -16.5v-41q-125 6 -362 6q-248 0 -365 -6z" />
<glyph unicode="&#x414;" horiz-adv-x="1368" d="M2 41h37q141 0 218 162t106.5 389t52.5 590l4 51q2 16 2 45q0 53 -14.5 79.5t-49 37t-104.5 14.5v41q86 -6 211 -6q31 0 92 4l88 2l137 -2q94 -4 156 -4q244 0 367 6v-41q-74 -4 -108 -16.5t-46 -47t-12 -112.5v-1016q0 -78 11 -113.5t41 -49t93 -13.5h62 q-15 -158 -15 -283q0 -86 6 -137h-47q-37 203 -143.5 291t-253.5 88h-438q-147 0 -254 -88t-144 -291h-47q6 51 6 137q0 125 -14 283zM176 41h381q72 0 106.5 13.5t47 49t12.5 113.5v1016q0 106 -28.5 141t-96.5 35h-27q-43 0 -70.5 -38t-33.5 -138l-16 -201 q-18 -266 -41 -443t-78.5 -331t-155.5 -217z" />
<glyph unicode="&#x415;" horiz-adv-x="1331" d="M57 0v41q66 4 95.5 16.5t40 47t10.5 112.5v1016q0 78 -11.5 112.5t-40 47t-94.5 16.5v41q238 -6 717 -6q301 0 428 6q-14 -193 -14 -344q0 -94 6 -148h-47q-37 238 -137.5 341.5t-239.5 103.5h-27q-55 0 -80.5 -9.5t-35 -35t-9.5 -84.5v-524h21q106 0 182 84t97 186h47 q-6 -86 -7 -193v-98q0 -104 13 -291h-47q-18 117 -95 194t-190 77h-21v-533q0 -59 9.5 -84.5t35 -35t80.5 -9.5h68q119 0 225.5 116t151.5 369h47q-6 -74 -6 -188q0 -209 14 -344q-139 6 -469 6q-479 0 -717 -6z" />
<glyph unicode="&#x416;" horiz-adv-x="2168" d="M-33 82l27 27q27 -27 61 -27q37 0 58.5 28.5t36.5 104.5l59 285q29 135 144.5 196.5t338.5 75.5l-362 414q-158 178 -336 225v39q84 -6 207 -6q174 0 346 6v-39q-74 -4 -121 -40t-47 -95q0 -82 90 -184l70 -78q115 -129 185.5 -180.5t152.5 -57.5v457q0 78 -10.5 112.5 t-40 47t-95.5 16.5v41q119 -6 342 -6q248 0 365 6v-41q-66 -4 -94.5 -16.5t-40 -47t-11.5 -112.5v-457q82 6 153 57.5t185 180.5l70 78q90 102 90 184q0 59 -47 95t-121 40v39q172 -6 346 -6q123 0 207 6v-39q-178 -47 -336 -225l-362 -414q223 -14 338.5 -75.5 t144.5 -196.5l59 -285q14 -76 36 -104.5t59 -28.5q35 0 61 27l27 -27q-61 -61 -135 -86t-173 -25q-143 0 -220 50.5t-95 171.5l-53 352q-18 109 -68.5 150.5t-165.5 47.5v-526q0 -78 10.5 -112.5t40 -47t95.5 -16.5v-41q-117 6 -365 6q-221 0 -342 -6v41q66 4 94.5 16.5 t40 47t11.5 112.5v526q-115 -6 -165 -48t-69 -150l-53 -352q-18 -121 -95 -171.5t-221 -50.5q-98 0 -171.5 24.5t-135.5 86.5z" />
<glyph unicode="&#x417;" horiz-adv-x="1304" d="M37 299q0 96 63.5 151.5t153.5 55.5q92 0 143.5 -50t51.5 -149q0 -76 -54.5 -134t-148.5 -83q106 -68 268 -67q168 0 266.5 92t98.5 280q0 143 -59.5 245.5t-182.5 109.5q-49 -27 -86 -27q-20 0 -32.5 8t-12.5 27q0 33 49 33q27 0 84 -13q88 41 124 136.5t36 205.5 q0 154 -59.5 220.5t-168.5 66.5q-176 0 -269 -129t-105 -340h-47q0 367 -9 512h47q6 -66 18.5 -94.5t35.5 -28.5q14 0 39 19q96 70 177 101.5t224 31.5q225 0 365.5 -83t140.5 -227q0 -154 -158 -257t-360 -144q147 -2 284.5 -45t224.5 -127t87 -207q0 -129 -99.5 -224 t-258 -144.5t-335.5 -49.5q-264 0 -413 113q-51 39 -87 94t-36 121z" />
<glyph unicode="&#x418;" horiz-adv-x="1738" d="M57 0v41q66 4 94.5 16.5t40 47t11.5 112.5v1016q0 78 -11.5 112.5t-40 47t-94.5 16.5v41q117 -6 365 -6q221 0 342 6v-41q-66 -4 -94.5 -16.5t-40 -47t-11.5 -112.5v-946l502 973q-2 63 -14 92.5t-41 41t-90 15.5v41q119 -6 342 -6q248 0 364 6v-41q-65 -4 -93.5 -16.5 t-40 -47t-11.5 -112.5v-1016q0 -78 11.5 -112.5t40 -47t93.5 -16.5v-41q-117 6 -364 6q-221 0 -342 -6v41q66 4 94.5 16.5t39.5 47t11 112.5v942l-502 -975q2 -59 14.5 -88.5t42.5 -40t89 -14.5v-41q-119 6 -342 6q-248 0 -365 -6z" />
<glyph unicode="&#x419;" horiz-adv-x="1738" d="M57 0v41q66 4 94.5 16.5t40 47t11.5 112.5v1016q0 78 -11.5 112.5t-40 47t-94.5 16.5v41q117 -6 365 -6q221 0 342 6v-41q-66 -4 -94.5 -16.5t-40 -47t-11.5 -112.5v-946l502 973q-2 63 -14 92.5t-41 41t-90 15.5v41q119 -6 342 -6q248 0 364 6v-41q-65 -4 -93.5 -16.5 t-40 -47t-11.5 -112.5v-1016q0 -78 11.5 -112.5t40 -47t93.5 -16.5v-41q-117 6 -364 6q-221 0 -342 -6v41q66 4 94.5 16.5t39.5 47t11 112.5v942l-502 -975q2 -59 14.5 -88.5t42.5 -40t89 -14.5v-41q-119 6 -342 6q-248 0 -365 -6zM346 1788q0 63 55.5 107t141.5 44t143 -44 t57 -111q0 -57 -43 -96t-108 -56q131 -31 278 -30q147 0 277 32q-68 18 -108 56.5t-40 93.5q0 68 56.5 111.5t142.5 43.5t142.5 -44t56.5 -107q0 -51 -38 -91t-102 -69q-66 -31 -166 -49t-221 -18t-221 18t-168 49q-61 27 -98 68t-37 92z" />
<glyph unicode="&#x41a;" horiz-adv-x="1536" d="M57 0v41q66 4 95.5 16.5t40 47t10.5 112.5v1016q0 78 -11.5 112.5t-40 47t-94.5 16.5v41q117 -6 365 -6q221 0 342 6v-41q-66 -4 -95.5 -16.5t-40 -47t-10.5 -112.5v-457q84 6 162 59.5t189 178.5l69 78q90 102 90 184q0 59 -47 95t-120 40v39q172 -6 346 -6q125 0 206 6 v-39q-172 -45 -335 -225l-375 -414q223 -14 338.5 -75.5t144.5 -196.5l60 -285q14 -76 35.5 -104.5t58.5 -28.5q35 0 61 27l27 -27q-61 -61 -135 -86t-172 -25q-143 0 -220 50.5t-96 171.5l-53 352q-18 109 -68.5 150.5t-165.5 47.5v-526q0 -78 11.5 -112.5t40 -47 t94.5 -16.5v-41q-119 6 -342 6q-248 0 -365 -6z" />
<glyph unicode="&#x41b;" horiz-adv-x="1517" d="M-43 195q0 96 65.5 155.5t163.5 59.5q84 0 133.5 -40t49.5 -112q0 -90 -60.5 -152.5t-152.5 -78.5q16 -16 51 -17q145 0 223 174t106.5 413t51.5 636q2 16 2 45q0 53 -14.5 79.5t-49 37t-104.5 14.5v41q86 -6 211 -6q31 0 92 4l88 2l137 -2q94 -4 156 -4q244 0 367 6v-41 q-74 -4 -108 -16.5t-46 -47t-12 -112.5v-1016q0 -78 12 -112.5t46 -47t108 -16.5v-41q-123 6 -381 6q-240 0 -367 -6v41q74 4 107.5 16.5t46 47t12.5 112.5v1016q0 106 -28.5 141t-96.5 35h-6q-55 0 -86 -37t-39 -139q-6 -57 -9 -110.5t-8 -100.5q-23 -328 -54.5 -537 t-115 -361.5t-241.5 -152.5q-109 0 -179.5 64.5t-70.5 159.5z" />
<glyph unicode="&#x41c;" horiz-adv-x="1976" d="M61 0v41q63 14 94 44t41.5 91.5t10.5 183.5v873q0 78 -11.5 112.5t-40 47t-94.5 16.5v41q61 -6 170 -6q246 0 424 6l387 -870l336 864h178q238 0 363 6v-41q-66 -4 -95.5 -16.5t-39.5 -47t-10 -112.5v-1016q0 -78 11 -112.5t39.5 -47t94.5 -16.5v-41q-125 6 -363 6 q-248 0 -364 -6v41q74 4 107.5 16.5t46 47t12.5 112.5v1047l-494 -1262h-33l-577 1315v-916q0 -152 12.5 -218t54 -97t140.5 -45v-41q-84 6 -230 6q-109 0 -170 -6z" />
<glyph unicode="&#x41d;" horiz-adv-x="1697" d="M57 0v41q66 4 95.5 16.5t40 47t10.5 112.5v1016q0 78 -11.5 112.5t-40 47t-94.5 16.5v41q117 -6 365 -6q221 0 342 6v-41q-66 -4 -95.5 -16.5t-40 -47t-10.5 -112.5v-483h461v483q0 78 -11 112.5t-40 47t-94 16.5v41q127 -6 362 -6q233 0 344 6v-41q-65 -4 -94.5 -16.5 t-40 -47t-10.5 -112.5v-1016q0 -78 11.5 -112.5t40 -47t93.5 -16.5v-41q-111 6 -344 6q-236 0 -362 -6v41q66 4 95.5 16.5t39.5 47t10 112.5v492h-461v-492q0 -78 11.5 -112.5t40 -47t94.5 -16.5v-41q-119 6 -342 6q-248 0 -365 -6z" />
<glyph unicode="&#x41e;" horiz-adv-x="1693" d="M74 713q0 225 98 399t274.5 270.5t401.5 96.5q231 0 405 -88t270.5 -255t96.5 -399q0 -225 -98.5 -399t-274.5 -270.5t-401 -96.5q-231 0 -405.5 88t-270.5 255t-96 399zM504 721q0 -213 47 -375t127 -250t176 -88q100 0 177 91t118 255t41 375q0 213 -47 375t-127 250 t-176 88q-101 0 -177.5 -91t-117.5 -255t-41 -375z" />
<glyph unicode="&#x41f;" horiz-adv-x="1697" d="M57 0v41q66 4 94.5 16.5t40 47t11.5 112.5v1016q0 78 -11.5 112.5t-40 47t-94.5 16.5v41q117 -6 365 -6q102 0 266 4l164 2l160 -2q164 -4 264 -4q248 0 364 6v-41q-66 -4 -94 -16.5t-39.5 -47t-11.5 -112.5v-1016q0 -78 11.5 -112.5t40 -47t93.5 -16.5v-41 q-117 6 -364 6q-221 0 -342 -6v41q66 4 94.5 16.5t39.5 47t11 112.5v1016q0 78 -12 113.5t-47 49t-107 13.5h-129q-72 0 -106.5 -13.5t-47 -49t-12.5 -113.5v-1016q0 -78 11.5 -112.5t40 -47t94.5 -16.5v-41q-119 6 -342 6q-248 0 -365 -6z" />
<glyph unicode="&#x420;" horiz-adv-x="1388" d="M57 0v41q66 4 95.5 16.5t40 47t10.5 112.5v1016q0 78 -11.5 112.5t-40 47t-94.5 16.5v41q117 -6 353 -6l235 2q41 2 94 2q303 0 460 -109.5t157 -294.5q0 -113 -61.5 -216t-209 -172.5t-391.5 -69.5h-76v-348q0 -86 17.5 -125t63.5 -52.5t147 -13.5v-47q-276 6 -422 6 q-96 0 -268 -4zM618 627h56q143 0 197.5 106.5t54.5 288.5q0 199 -45 293t-152 94q-47 0 -70.5 -14.5t-32 -51t-8.5 -110.5v-606z" />
<glyph unicode="&#x421;" horiz-adv-x="1468" d="M74 713q0 225 98 399t274.5 270.5t401.5 96.5q123 0 209 -35t168 -98q20 -18 39 -19q41 0 53 123h47q-8 -145 -8 -512h-47q-14 164 -53 258t-136 158q-96 61 -190 61q-213 0 -299 -204.5t-86 -489.5t86 -489.5t299 -204.5q94 0 190 61q96 59 135 159.5t54 284.5h47 q0 -383 8 -532h-47q-6 66 -17.5 93.5t-31.5 27.5q-16 0 -43 -17q-92 -66 -176 -99.5t-203 -33.5q-231 0 -405.5 88t-270.5 255t-96 399z" />
<glyph unicode="&#x422;" horiz-adv-x="1431" d="M47 1450q195 -6 670 -6q473 0 667 6q-14 -228 -14 -406q0 -94 6 -147h-47q-68 268 -174 387t-229 119h-2v-1172q0 -86 17 -124.5t63.5 -52t146.5 -13.5v-41q-289 6 -449 6q-145 0 -421 -6v41q100 0 146 13.5t63.5 52t17.5 124.5v1172h-2q-125 0 -230.5 -118t-173.5 -388 h-47q6 53 6 147q0 178 -14 406z" />
<glyph unicode="&#x423;" horiz-adv-x="1368" d="M-31 1409v41q84 -6 332 -6q262 0 354 6v-41q-80 -8 -80 -78q0 -43 25 -94l324 -551l133 266q94 190 94 301q0 150 -170 156v41q154 -6 268 -6q97 0 158 6v-41q-47 -23 -97 -86t-118 -186l-383 -775l-96 -194q-45 -92 -90 -137q-59 -59 -183 -60q-131 0 -206.5 58.5 t-75.5 144.5t66.5 140.5t162.5 54.5q102 0 162.5 -40t60.5 -112q0 -74 -52 -123t-138 -71q12 -10 59 -11q61 0 106.5 40t84.5 120l43 88l-598 1018q-72 119 -146 131z" />
<glyph unicode="&#x424;" horiz-adv-x="1992" d="M18 733q0 246 197 393.5t573 180.5v77q0 78 -11 113t-39.5 47t-94.5 17v41q117 -6 365 -7q223 0 342 7v-41q-66 -4 -95.5 -16.5t-40 -47.5t-10.5 -113v-75q770 -59 770 -572q0 -254 -196.5 -407.5t-573.5 -186.5v-77q0 -78 11.5 -113t40 -47t94.5 -17v-41q-119 6 -342 7 q-248 0 -365 -7v41q66 4 95.5 16.5t39.5 47.5t10 113v77q-770 59 -770 590zM449 741q0 -184 32.5 -298.5t106.5 -177t200 -87.5v1096q-133 -20 -206.5 -79.5t-103 -167t-29.5 -286.5zM1204 176q133 23 207 85.5t103.5 174t29.5 293.5q0 180 -32.5 290.5t-106.5 170 t-201 82.5v-1096z" />
<glyph unicode="&#x425;" horiz-adv-x="1492" d="M-12 1409v43q31 0 51 -2q240 -6 319 -6q70 0 285 6q18 2 45 2v-43q-68 0 -97.5 -8t-29.5 -27q0 -14 14 -35l297 -421l117 143q102 121 103 215q0 57 -37 92t-107 41v41q117 -6 273 -6q131 0 198 6v-41q-66 -25 -139.5 -89.5t-136.5 -141.5l-244 -299l518 -734 q43 -61 65.5 -80.5t61.5 -21.5v-43q-29 0 -47 2q-233 6 -303 6q-78 0 -311 -6q-18 -2 -45 -2v43q68 0 97.5 8t29.5 27q0 14 -15 35l-342 487l-125 -156q-104 -131 -104 -239q0 -72 45 -115t125 -49v-41q-117 6 -354 6q-131 0 -199 -6v41q160 68 340 291l246 307l-467 668 q-43 61 -65.5 80.5t-61.5 21.5z" />
<glyph unicode="&#x426;" horiz-adv-x="1718" d="M57 0v41q66 4 94.5 16.5t40 47t11.5 112.5v1016q0 78 -11.5 112.5t-40 47t-94.5 16.5v41q117 -6 365 -6q221 0 342 6v-41q-66 -4 -94.5 -16.5t-40 -47t-11.5 -112.5v-1016q0 -78 12.5 -113.5t47.5 -49t106 -13.5h129q72 0 107 13.5t47 49t12 113.5v1016q0 78 -11 112.5 t-40 47t-94 16.5v41q119 -6 342 -6q248 0 364 6v-41q-66 -4 -94 -16.5t-39.5 -47t-11.5 -112.5v-1016q0 -78 11.5 -113.5t41 -49t92.5 -13.5h62q-14 -158 -14 -283q0 -86 6 -137h-47q-37 203 -143.5 291t-254.5 88h-403l-160 2q-164 4 -264 4q-248 0 -365 -6z" />
<glyph unicode="&#x427;" horiz-adv-x="1642" d="M10 1409v41q117 -6 357 -6q229 0 350 6v-41q-66 -4 -94.5 -16.5t-40 -47t-11.5 -112.5v-395q0 -96 13.5 -144.5t51.5 -70t116 -21.5q70 0 144.5 13.5t127.5 35.5v582q0 78 -11.5 112.5t-40 47t-93.5 16.5v41q117 -6 364 -6q223 0 342 6v-41q-65 -4 -95 -16.5t-40 -47 t-10 -112.5v-1016q0 -78 10 -112.5t40 -47t95 -16.5v-41l-98 2q-172 4 -268 4q-145 0 -422 -6v47q100 0 146 13.5t63.5 52.5t17.5 125v372q-72 -29 -176.5 -51t-222.5 -22q-205 0 -330 71q-78 45 -108.5 114t-30.5 181v330q0 78 -10.5 112.5t-40 47t-95.5 16.5z" />
<glyph unicode="&#x428;" horiz-adv-x="2451" d="M57 0v41q66 4 94.5 16.5t40 47t11.5 112.5v1016q0 78 -11.5 112.5t-40 47t-94.5 16.5v41q117 -6 365 -6q209 0 321 6v-41q-57 -4 -81.5 -16.5t-34 -47t-9.5 -112.5v-1016q0 -78 12.5 -113.5t47.5 -49t106 -13.5h68q72 0 106.5 13.5t47 49t12.5 113.5v1016 q0 78 -9.5 112.5t-34 47t-81.5 16.5v41q115 -6 321 -6q233 0 345 6v-41q-57 -4 -82 -16.5t-34 -47t-9 -112.5v-1016q0 -74 15 -110.5t49 -49t101 -16.5h68q72 0 106.5 13.5t47 49t12.5 113.5v1016q0 78 -9 112.5t-34 47t-82 16.5v41q113 -6 322 -6q248 0 364 6v-41 q-66 -4 -95.5 -16.5t-39.5 -47t-10 -112.5v-1016q0 -78 10 -112.5t40 -47t95 -16.5v-41q-111 6 -344 6q-94 0 -250 -4l-153 -2l-146 2q-164 4 -266 4q-100 0 -264 -4l-160 -2l-156 2q-160 4 -254 4q-233 0 -344 -6z" />
<glyph unicode="&#x429;" horiz-adv-x="2471" d="M57 0v41q66 4 94.5 16.5t40 47t11.5 112.5v1016q0 78 -11.5 112.5t-40 47t-94.5 16.5v41q117 -6 365 -6q209 0 321 6v-41q-57 -4 -81.5 -16.5t-34 -47t-9.5 -112.5v-1016q0 -78 12.5 -113.5t47.5 -49t106 -13.5h68q72 0 106.5 13.5t47 49t12.5 113.5v1016 q0 78 -9.5 112.5t-34 47t-81.5 16.5v41q115 -6 321 -6q233 0 345 6v-41q-57 -4 -82 -16.5t-34 -47t-9 -112.5v-1016q0 -76 15 -112.5t50 -50t100 -13.5h68q72 0 106.5 13.5t47 49t12.5 113.5v1016q0 78 -9 112.5t-34 47t-82 16.5v41q113 -6 322 -6q248 0 364 6v-41 q-66 -4 -95.5 -16.5t-39.5 -47t-10 -112.5v-1016q0 -78 11 -113.5t41 -49t93 -13.5h62q-14 -158 -15 -283q0 -86 6 -137h-47q-37 203 -143.5 291t-253.5 88h-356l-146 2q-164 4 -266 4q-100 0 -264 -4l-160 -2l-156 2q-160 4 -254 4q-233 0 -344 -6z" />
<glyph unicode="&#x42a;" horiz-adv-x="1703" d="M33 1450q127 -6 428 -6q408 0 614 6v-41q-66 -4 -95.5 -16.5t-39.5 -47t-10 -112.5v-369h76q358 0 509.5 -126t151.5 -310q0 -195 -156.5 -310.5t-457.5 -115.5q-57 0 -97 2l-247 2q-223 0 -340 -6v41q66 4 94.5 16.5t39.5 47t11 112.5v1186h-29q-78 0 -161.5 -44 t-150.5 -143.5t-85 -257.5h-47q6 74 6 189q0 184 -14 303zM930 217q0 -104 20.5 -140t83.5 -36q111 0 157 91t46 284t-53.5 300t-198.5 107h-55v-606z" />
<glyph unicode="&#x42b;" horiz-adv-x="2213" d="M57 0v41q66 4 94.5 16.5t40 47t11.5 112.5v1016q0 78 -11.5 112.5t-40 47t-94.5 16.5v41q117 -6 365 -6q221 0 342 6v-41q-66 -4 -95.5 -16.5t-40 -47t-10.5 -112.5v-369h76q363 0 512.5 -114.5t149.5 -300.5q0 -205 -157 -326t-458 -121q-57 0 -96 2l-248 2 q-223 0 -340 -6zM618 217q0 -104 20.5 -140t84.5 -36q111 0 157 91t46 284t-53.5 300t-198.5 107h-56v-606zM1450 0v41q66 4 95.5 16.5t39.5 47t10 112.5v1016q0 78 -11 112.5t-39.5 47t-94.5 16.5v41q117 -6 365 -6q223 0 342 6v-41q-66 -4 -95.5 -16.5t-40 -47 t-10.5 -112.5v-1016q0 -78 11.5 -112.5t40 -47t94.5 -16.5v-41q-119 6 -342 6q-248 0 -365 -6z" />
<glyph unicode="&#x42c;" horiz-adv-x="1392" d="M57 0v41q66 4 94.5 16.5t40 47t11.5 112.5v1016q0 78 -11.5 112.5t-40 47t-94.5 16.5v41q117 -6 365 -6q221 0 342 6v-41q-66 -4 -95.5 -16.5t-40 -47t-10.5 -112.5v-369h76q363 0 512.5 -114.5t149.5 -300.5q0 -205 -157 -326t-458 -121q-57 0 -96 2l-248 2 q-223 0 -340 -6zM618 217q0 -104 20.5 -140t84.5 -36q111 0 157 91t46 284t-53.5 300t-198.5 107h-56v-606z" />
<glyph unicode="&#x42d;" horiz-adv-x="1464" d="M98 0q8 113 8 410h48q27 -115 69.5 -190t118.5 -124q96 -61 190 -61q213 0 299.5 204.5t86.5 489.5v96q-33 -141 -96.5 -215.5t-133.5 -74.5q-45 0 -81 17t-89 54q-43 33 -73.5 48.5t-63.5 15.5q-35 0 -72 -31t-51 -100l-35 4q25 197 86.5 301t143.5 104q43 0 78.5 -17.5 t80.5 -51.5q49 -33 80 -49.5t70 -16.5q43 0 84 24.5t67 71.5q-10 233 -79.5 373.5t-243.5 140.5q-55 0 -124 -17t-108 -44q-92 -66 -133 -151t-55 -232h-47q0 338 -8 471h47q6 -66 17 -93.5t32 -27.5q16 0 43 17q84 59 190.5 96t229.5 37q346 0 530.5 -193.5t184.5 -548.5 q0 -227 -94.5 -401t-269.5 -269.5t-411 -95.5q-123 0 -209 35t-167 98q-23 18 -39 19q-41 0 -54 -123h-47z" />
<glyph unicode="&#x42e;" horiz-adv-x="2304" d="M57 0v41q66 4 95.5 16.5t40 47t10.5 112.5v1016q0 78 -11.5 112.5t-40 47t-94.5 16.5v41q117 -6 365 -6q221 0 342 6v-41q-66 -4 -95.5 -16.5t-40 -47t-10.5 -112.5v-483h189q8 217 100 381.5t252 256t361 91.5q213 0 373.5 -88t248.5 -255t88 -399q0 -225 -91 -399 t-253 -270.5t-368 -96.5q-213 0 -373 87t-249 254t-89 397h-189v-492q0 -78 11.5 -112.5t40 -47t94.5 -16.5v-41q-119 6 -342 6q-248 0 -365 -6zM1237 721q0 -213 39 -375t104.5 -250t145.5 -88q82 0 144.5 91t96 255t33.5 375q0 213 -39 375t-104.5 250t-145.5 88 q-82 0 -144 -91t-96 -255t-34 -375z" />
<glyph unicode="&#x42f;" horiz-adv-x="1488" d="M-47 82l27 27q27 -27 63 -27q37 0 57.5 28.5t34.5 104.5l39 213q23 125 131.5 183.5t323.5 82.5h2q-272 23 -385 122t-113 255q0 193 151.5 285t465.5 92q53 0 94 -2l235 -2q236 0 353 6v-41q-66 -4 -94.5 -16.5t-40 -47t-11.5 -112.5v-1016q0 -78 10.5 -112.5t40 -47 t95.5 -16.5v-41q-117 6 -365 6q-221 0 -342 -6v41q66 4 94.5 16.5t39.5 47t11 112.5v471h-112q-72 0 -108 -73.5t-56 -217.5l-31 -204q-18 -121 -96 -171.5t-215 -50.5q-96 0 -170 26t-129 85zM563 1069q0 -162 53.5 -251t198.5 -89h55v504q0 74 -8 110.5t-31.5 51 t-70.5 14.5q-105 0 -151 -86t-46 -254z" />
<glyph unicode="&#x430;" horiz-adv-x="1298" d="M-35 0v41q49 8 91 61.5t98 178.5l419 964q45 -4 68 -4t68 4l491 -1073q62 -127 121 -131v-41q-104 6 -301 6q-248 0 -365 -6v41q63 4 94 21.5t31 58.5q0 37 -26 92l-101 233h-383q-70 -160 -69 -256q0 -82 49 -113.5t141 -35.5v-41q-154 6 -268 6q-96 0 -158 -6zM287 487 h348l-174 402z" />
<glyph unicode="&#x431;" horiz-adv-x="1341" d="M59 0v41q66 4 94.5 16.5t40 47t11.5 112.5v811q0 78 -10.5 113t-40 47t-95.5 16v41q98 -6 303 -6q106 0 201.5 2t165.5 2l68 2h346q-14 -145 -15 -262q0 -80 7 -127h-48q-41 182 -130 262t-226 80h-26q-57 0 -81 -20.5t-24 -87.5v-349h55q351 0 496 -97t145 -255 q0 -195 -137 -291t-438 -96q-61 0 -109 2l-262 2q-193 0 -291 -6zM600 217q0 -74 8 -110.5t32 -51t71 -14.5q96 0 136 80t40 246q0 156 -54.5 244.5t-197.5 88.5h-35v-483z" />
<glyph unicode="&#x432;" horiz-adv-x="1392" d="M59 0v41q66 4 95.5 16.5t40 47t10.5 112.5v811q0 78 -11.5 113t-40 47t-94.5 16v41q98 -6 291 -6l250 2q43 2 100 2q279 0 407 -69.5t128 -210.5q0 -109 -97.5 -181.5t-316.5 -113.5v-4q287 -27 403.5 -111t116.5 -217q0 -164 -150.5 -250t-442.5 -86q-61 0 -107 2 q-147 4 -287 4q-197 0 -295 -6zM600 217q0 -74 7 -108.5t25.5 -48t59.5 -13.5q123 0 181.5 75t58.5 222q0 143 -62.5 216t-199.5 73h-70v-416zM600 668h35q111 0 155 71.5t44 200.5q0 133 -34 198.5t-110 65.5q-39 0 -57.5 -14t-25.5 -51t-7 -111v-360z" />
<glyph unicode="&#x433;" horiz-adv-x="1150" d="M59 0v41q66 4 95.5 16.5t40 47t10.5 112.5v811q0 78 -10.5 113t-40 47t-95.5 16v41l97 -2q160 -4 245 -4q90 0 213 4l121 2h367q-15 -180 -15 -323q0 -100 7 -168h-47q-39 231 -135.5 337.5t-221.5 106.5h-4q-45 0 -65.5 -22.5t-20.5 -88.5v-849q0 -78 21.5 -119 t69.5 -57.5t136 -20.5v-41q-137 6 -403 6q-248 0 -365 -6z" />
<glyph unicode="&#x434;" horiz-adv-x="1370" d="M10 41h72q145 0 223 142.5t105.5 335t52.5 509.5q2 16 2 45q0 53 -14.5 80t-49 37t-104.5 14v41q51 -4 190 -4q35 0 52 2l88 2q117 0 215 -4l98 -2q225 0 346 6v-41q-66 -4 -95.5 -16t-39.5 -47t-10 -113v-811q0 -78 11 -113.5t41 -49t93 -13.5h62q-15 -158 -15 -283 q0 -86 6 -137h-47q-37 203 -143.5 291t-253.5 88h-432q-147 0 -254 -88t-143 -291h-48q6 51 7 137q0 125 -15 283zM231 41h359q66 0 97.5 13.5t44.5 50t13 112.5v811q0 78 -8 115t-28.5 49t-67.5 12h-27q-45 0 -64.5 -13t-26.5 -46t-13 -117l-10 -131q-16 -219 -38 -372.5 t-76 -289t-155 -194.5z" />
<glyph unicode="&#x435;" horiz-adv-x="1267" d="M59 0v41q66 4 95.5 16.5t40 47t10.5 112.5v811q0 78 -11.5 113t-40 47t-94.5 16v41q225 -6 676 -6q287 0 408 6q-14 -145 -15 -262q0 -80 7 -127h-48q-41 182 -130 262t-226 80h-26q-57 0 -81 -20.5t-24 -87.5v-443h47q98 0 156.5 70.5t75.5 159.5h47q-6 -70 -6 -164v-86 q0 -100 12 -250h-47q-14 98 -75.5 163.5t-162.5 65.5h-47v-450q0 -68 23.5 -88.5t81.5 -20.5h47q143 0 238 89t138 294h48q-6 -57 -7 -147q1 -125 15 -283q-133 6 -449 6q-451 0 -676 -6z" />
<glyph unicode="&#x436;" horiz-adv-x="2097" d="M2 82l27 27q27 -27 63 -27q31 0 52.5 24.5t41.5 108.5l43 168q39 152 167 216.5t306 74.5l-380 350q-154 143 -297 182v39q84 -6 206 -6q193 0 365 6v-39q-70 -4 -118 -43t-48 -100q0 -84 92 -176l47 -45q66 -63 131.5 -99t143.5 -53v338q0 78 -11.5 113t-40 47t-94.5 16 v41q111 -6 355 -6q217 0 331 6v-41q-66 -4 -95 -16t-39.5 -47t-10.5 -113v-338q78 16 143.5 52t130.5 100l48 45q92 92 92 176q0 61 -48.5 100t-117.5 43v39q172 -6 364 -6q125 0 207 6v-39q-143 -39 -297 -182l-381 -350q55 -2 111 -12q139 -23 234.5 -87.5t127.5 -191.5 l43 -168q20 -84 42 -108.5t53 -24.5q37 0 63 27l27 -27q-55 -59 -129 -85t-170 -26q-133 0 -212 49.5t-102 172.5l-63 319q-14 68 -51 99.5t-105 31.5h-10v-426q0 -78 10.5 -112.5t40 -47t94.5 -16.5v-41q-113 6 -331 6q-244 0 -355 -6v41q66 4 95.5 16.5t40 47t10.5 112.5 v426h-10q-68 0 -105 -31.5t-51 -99.5l-64 -319q-23 -123 -101.5 -172.5t-211.5 -49.5q-96 0 -170 26t-129 85z" />
<glyph unicode="&#x437;" horiz-adv-x="1165" d="M39 201q0 74 50 121t138 47q86 0 141.5 -46.5t55.5 -119.5q0 -63 -42 -108.5t-106 -63.5q37 -18 117 -19q162 0 238 84t76 238q0 113 -39 194.5t-113 108.5q-29 10 -70 10q-49 -27 -86 -26q-45 0 -45 34q0 33 47 33q29 0 86 -12q76 33 108 106.5t32 182.5q0 127 -42 185 t-134 58q-125 0 -195 -95t-80 -263h-47q0 291 -10 410h47q6 -47 16.5 -69t32.5 -22q16 0 66 27q68 37 129 57.5t176 20.5q198 0 324 -72t126 -198q0 -139 -148.5 -227.5t-369.5 -110.5q256 4 426 -77t170 -253q0 -113 -79 -195t-224 -126t-340 -44q-219 0 -328 64 q-51 29 -77.5 72t-26.5 94z" />
<glyph unicode="&#x438;" horiz-adv-x="1701" d="M59 0v41q66 4 95.5 16.5t40 47t10.5 112.5v811q0 78 -11.5 113t-40 47t-94.5 16v41q104 -6 324 -6q236 0 362 6v-41q-66 -4 -95 -16t-39.5 -47t-10.5 -113v-774l502 797q-2 66 -13.5 96.5t-41 41.5t-91.5 15v41q125 -6 363 -6q78 0 192 4q115 4 131 2v-41 q-65 -4 -94.5 -16t-40 -47t-10.5 -113v-811q0 -78 11.5 -112.5t40 -47t93.5 -16.5v-41q-104 6 -323 6q-236 0 -363 -6v41q66 4 95.5 16.5t40 47t10.5 112.5v748l-502 -793q4 -55 17.5 -82t42 -36t85.5 -13v-41q-125 6 -362 6q-219 0 -324 -6z" />
<glyph unicode="&#x439;" horiz-adv-x="1701" d="M59 0v41q66 4 95.5 16.5t40 47t10.5 112.5v811q0 78 -11.5 113t-40 47t-94.5 16v41q104 -6 324 -6q236 0 362 6v-41q-66 -4 -95 -16t-39.5 -47t-10.5 -113v-774l502 797q-2 66 -13.5 96.5t-41 41.5t-91.5 15v41q125 -6 363 -6q78 0 192 4q115 4 131 2v-41 q-65 -4 -94.5 -16t-40 -47t-10.5 -113v-811q0 -78 11.5 -112.5t40 -47t93.5 -16.5v-41q-104 6 -323 6q-236 0 -363 -6v41q66 4 95.5 16.5t40 47t10.5 112.5v748l-502 -793q4 -55 17.5 -82t42 -36t85.5 -13v-41q-125 6 -362 6q-219 0 -324 -6zM330 1604q0 63 55 107t141 44 t143.5 -44t57.5 -112q0 -57 -43 -96t-109 -55q131 -31 279 -31q147 0 276 33q-68 18 -107.5 56t-39.5 93q0 68 56.5 112t142.5 44t142 -44t56 -107q0 -51 -37.5 -91t-101.5 -69q-66 -31 -166 -49.5t-221 -18.5t-221.5 18.5t-167.5 49.5q-61 27 -98 67.5t-37 92.5z" />
<glyph unicode="&#x43a;" horiz-adv-x="1513" d="M59 0v41q66 4 95.5 16.5t40 47t10.5 112.5v811q0 78 -11.5 113t-40 47t-94.5 16v41q111 -6 355 -6q217 0 331 6v-41q-66 -4 -95 -16t-39.5 -47t-10.5 -113v-348q96 12 171 50t153 112l47 45q88 90 88 176q0 61 -45 100t-113 43v39q172 -6 340 -6q147 0 232 6v-39 q-143 -39 -297 -182l-381 -350q178 -10 306 -74.5t167 -216.5l43 -168q20 -84 41.5 -108.5t52.5 -24.5q37 0 63 27l27 -27q-55 -59 -129 -85t-170 -26q-133 0 -212 49.5t-101 172.5l-52 253q-18 94 -61 145.5t-152 51.5h-18v-426q0 -78 10.5 -112.5t40 -47t94.5 -16.5v-41 q-113 6 -331 6q-244 0 -355 -6z" />
<glyph unicode="&#x43b;" horiz-adv-x="1486" d="M-27 199q0 94 66.5 152.5t167.5 58.5q82 0 130 -41t48 -117q0 -84 -60.5 -146.5t-152.5 -78.5q16 -16 59 -17q141 0 218 148.5t105 351.5t50 518q2 16 2 45q0 53 -14 80t-49 37t-105 14v41q51 -4 191 -4q33 0 45 2q12 0 35.5 1t81.5 1q72 0 165 -4l158 -2q193 0 313 6 v-41q-66 -4 -95 -16t-39.5 -47t-10.5 -113v-811q0 -78 10.5 -112.5t40 -47t94.5 -16.5v-41q-113 6 -340 6q-236 0 -346 -6v41q66 4 95.5 16.5t40 47t10.5 112.5v811q0 78 -8.5 115t-29 49t-67.5 12h-26q-45 0 -64.5 -12t-27 -45t-15.5 -119l-12 -147q-20 -272 -51 -456.5 t-116 -319t-243 -134.5q-111 0 -182.5 64.5t-71.5 163.5z" />
<glyph unicode="&#x43c;" horiz-adv-x="1849" d="M45 1204v41q135 -6 416 -6q113 0 188 6l291 -696l279 690h239q223 0 342 6v-41q-74 -4 -107.5 -16t-46 -47t-12.5 -113v-811q0 -78 12.5 -112.5t46 -47t107.5 -16.5v-41q-119 6 -342 6q-276 0 -405 -6v41q74 4 107.5 16.5t46 47t12.5 112.5v899l-453 -1126h-33l-475 1124 v-815q0 -98 17.5 -147.5t64.5 -73t145 -37.5v-41q-100 6 -249 6q-109 0 -170 -6v41q66 14 95 37.5t39.5 72t10.5 148.5v729q0 78 -12.5 113t-46 47t-107.5 16z" />
<glyph unicode="&#x43d;" d="M59 0v41q66 4 95.5 16.5t40 47t10.5 112.5v811q0 78 -11.5 113t-40 47t-94.5 16v41q104 -6 324 -6q236 0 362 6v-41q-66 -4 -95 -16t-39.5 -47t-10.5 -113v-381h461v381q0 78 -11.5 113t-40 47t-94.5 16v41q125 -6 363 -6q219 0 324 6v-41q-66 -4 -95.5 -16t-40 -47 t-10.5 -113v-811q0 -78 11.5 -112.5t40 -47t94.5 -16.5v-41q-104 6 -324 6q-236 0 -363 -6v41q66 4 95.5 16.5t40 47t10.5 112.5v389h-461v-389q0 -78 11.5 -112.5t40 -47t93.5 -16.5v-41q-125 6 -362 6q-219 0 -324 -6z" />
<glyph unicode="&#x43e;" horiz-adv-x="1607" d="M72 610q0 197 93 347.5t260 233.5t380 83q219 0 384 -75t256 -219t91 -345q0 -197 -93 -347.5t-260 -233.5t-380 -83q-219 0 -384 75t-256 219.5t-91 344.5zM481 618q0 -182 44 -321t119 -214t167 -75q94 0 166 79t110.5 219t38.5 321q0 182 -44 321t-118.5 214 t-166.5 75q-95 0 -166.5 -79t-110.5 -219t-39 -321z" />
<glyph unicode="&#x43f;" d="M59 0v41q66 4 95.5 16.5t40 47t10.5 112.5v811q0 78 -11.5 113t-40 47t-94.5 16v41q104 -6 324 -6q84 0 137 2q152 4 309 4q156 0 312 -4q51 -2 137 -2q219 0 324 6v-41q-66 -4 -95.5 -16t-40 -47t-10.5 -113v-811q0 -78 11.5 -112.5t40 -47t94.5 -16.5v-41 q-104 6 -324 6q-236 0 -363 -6v41q66 4 95.5 16.5t40 47t10.5 112.5v811q0 78 -11.5 114t-41 49t-93.5 13h-170q-66 0 -95 -13t-39.5 -49t-10.5 -114v-811q0 -78 11.5 -112.5t40 -47t93.5 -16.5v-41q-125 6 -362 6q-219 0 -324 -6z" />
<glyph unicode="&#x440;" horiz-adv-x="1329" d="M59 0v41q66 4 95.5 16.5t40 47t10.5 112.5v811q0 78 -11.5 113t-40 47t-94.5 16v41q98 -6 291 -6l262 2q47 2 109 2q299 0 437 -86t138 -256t-146 -283.5t-495 -113.5h-55v-287q0 -78 12.5 -112.5t46 -47t107.5 -16.5v-41q-137 6 -404 6q-205 0 -303 -6zM600 545h35 q143 0 197.5 89t54.5 245q0 166 -40 245.5t-136 79.5q-47 0 -71 -14t-32 -51t-8 -111v-483z" />
<glyph unicode="&#x441;" horiz-adv-x="1366" d="M72 610q0 195 91 345.5t247.5 234.5t349.5 84q129 0 205.5 -34t154.5 -99q23 -18 39 -19q41 0 53 123h48q-8 -123 -9 -430h-47q-23 115 -42 165t-60 97q-57 63 -125 99t-139 36q-109 0 -189 -71.5t-124 -205.5t-44 -317q0 -184 49.5 -316t133.5 -200.5t188 -68.5 q76 0 147.5 35.5t124.5 99.5q41 49 59.5 107.5t35.5 175.5h47q0 -322 8 -451h-47q-6 63 -18.5 93t-32.5 30q-16 0 -41 -19q-74 -61 -162 -97t-207 -36q-203 0 -359.5 76t-245.5 220.5t-89 342.5z" />
<glyph unicode="&#x442;" horiz-adv-x="1353" d="M49 1245q182 -6 619 -6q449 0 637 6q-15 -170 -15 -303q0 -123 6 -188h-47q-57 242 -140 343t-216 101h-19v-960q0 -86 16.5 -125t57.5 -53.5t133 -18.5v-41q-115 6 -413 6q-297 0 -396 -6v41q92 4 133 18.5t57.5 53.5t16.5 125v960h-18q-133 0 -216 -101.5t-141 -342.5 h-47q6 66 6 188q0 133 -14 303z" />
<glyph unicode="&#x443;" horiz-adv-x="1302" d="M-8 1204v41q82 -6 336 -6q258 0 350 6v-41q-39 -4 -64.5 -24.5t-25.5 -57.5t35 -90l272 -407l68 123q109 197 108 309q0 141 -162 147v41q154 -6 269 -6q96 0 157 6v-41q-47 -23 -98 -87t-119 -185l-321 -570l-111 -194q-55 -96 -94 -135q-61 -61 -180 -62 q-129 0 -205 59.5t-76 147.5q0 82 64.5 136.5t175.5 54.5q94 0 153.5 -41t59.5 -115q0 -68 -52.5 -118t-138.5 -72q12 -10 53 -11q66 0 108 38t89 122l49 90l-553 813q-41 61 -80 93t-67 36z" />
<glyph unicode="&#x444;" horiz-adv-x="1918" d="M23 635q0 211 186 336t543 151v49q0 78 -11.5 113t-40 47t-94.5 17v41q117 -6 355 -7q219 0 331 7v-41q-66 -4 -95.5 -16.5t-39.5 -47.5t-10 -113v-47q750 -47 749 -491q0 -221 -191.5 -353.5t-557.5 -158.5v-47q0 -78 10 -113t40 -47t95 -16v-41q-113 6 -331 6 q-238 0 -355 -6v41q66 4 95.5 16t40 47t10.5 113v49q-362 27 -545.5 155t-183.5 357zM432 639q0 -156 31 -254t100.5 -152.5t188.5 -74.5v934q-125 -18 -194 -70.5t-97.5 -144t-28.5 -238.5zM1147 152q133 18 206.5 71t103.5 149.5t30 254.5q0 155 -33 249.5t-106.5 145.5 t-200.5 70v-940z" />
<glyph unicode="&#x445;" horiz-adv-x="1359" d="M-2 1204v43q27 0 45 -2q215 -6 285 -6t303 6q18 2 47 2v-43q-68 0 -97.5 -8t-29.5 -27q0 -14 14 -34l240 -338l51 59q106 121 107 221q0 55 -35 88t-103 39v41q117 -6 273 -6q131 0 198 6v-41q-59 -25 -122.5 -75t-118.5 -113l-224 -258l433 -613q39 -59 63.5 -79.5 t63.5 -22.5v-43q-27 0 -45 2q-215 6 -285 6t-303 -6q-18 -2 -47 -2v43q68 0 98.5 7t30.5 26q0 14 -17 37l-270 383l-100 -117q-92 -111 -93 -191q0 -66 56.5 -103.5t148.5 -43.5v-41q-117 6 -354 6q-131 0 -199 -6v41q76 39 159 109.5t140 136.5l213 248l-399 567 q-41 59 -64.5 79.5t-62.5 22.5z" />
<glyph unicode="&#x446;" horiz-adv-x="1685" d="M59 0v41q66 4 95.5 16.5t40 47t10.5 112.5v811q0 78 -11.5 113t-40 47t-94.5 16v41q104 -6 324 -6q236 0 362 6v-41q-66 -4 -95 -16t-39.5 -47t-10.5 -113v-811q0 -78 11.5 -113.5t41 -49t92.5 -13.5h170q66 0 95.5 13.5t40 49t10.5 113.5v811q0 78 -11.5 113t-40 47 t-94.5 16v41q125 -6 363 -6q219 0 324 6v-41q-66 -4 -95.5 -16t-40 -47t-10.5 -113v-811q0 -78 11.5 -113.5t41 -49t93.5 -13.5h61q-14 -158 -14 -283q0 -86 6 -137h-47q-37 203 -143.5 291t-254.5 88h-379q-156 0 -311 4q-51 2 -137 2q-219 0 -324 -6z" />
<glyph unicode="&#x447;" horiz-adv-x="1601" d="M8 1204v41q117 -6 354 -6q219 0 332 6v-41q-66 -4 -95.5 -16t-39.5 -47t-10 -113v-252q0 -94 14.5 -143t56.5 -70.5t128 -21.5q66 0 136 10t117 29v448q0 78 -11 113t-39.5 47t-94.5 16v41q117 -6 354 -6q219 0 332 6v-41q-65 -4 -95 -16t-40 -47t-10 -113v-811 q0 -78 10 -112.5t40 -47t95 -16.5v-41l-88 2q-164 4 -276 4q-127 0 -404 -6v47q100 0 146.5 13.5t63.5 52.5t17 125v301q-66 -25 -167 -44.5t-209 -19.5q-207 0 -332 72q-78 45 -108.5 113.5t-30.5 181.5v186q0 78 -10.5 113t-40 47t-95.5 16z" />
<glyph unicode="&#x448;" horiz-adv-x="2353" d="M59 0v41q66 4 94.5 16.5t40 47t11.5 112.5v811q0 78 -11.5 113t-40 47t-94.5 16v41q117 -6 365 -6q193 0 301 6v-41q-57 -4 -82 -16t-34 -47t-9 -113v-811q0 -78 12.5 -113.5t47 -49t106.5 -13.5h47q72 0 106.5 13.5t47 49t12.5 113.5v811q0 78 -9 113t-34 47t-82 16v41 q113 -6 322 -6q219 0 323 6v-41q-57 -4 -81.5 -16t-34 -47t-9.5 -113v-811q0 -74 15.5 -111.5t50.5 -51t100 -13.5h47q72 0 107 13.5t47 49t12 113.5v811q0 78 -9 113t-33.5 47t-82.5 16v41q115 -6 322 -6q233 0 344 6v-41q-66 -4 -95.5 -16t-40 -47t-10.5 -113v-811 q0 -78 10.5 -112.5t40 -47t95.5 -16.5v-41q-104 6 -324 6q-94 0 -250 -4l-153 -2l-131 2q-152 4 -240 4q-94 0 -250 -4l-153 -2l-150 2q-147 4 -240 4q-233 0 -344 -6z" />
<glyph unicode="&#x449;" horiz-adv-x="2377" d="M59 0v41q66 4 94.5 16.5t40 47t11.5 112.5v811q0 78 -11.5 113t-40 47t-94.5 16v41q117 -6 365 -6q193 0 301 6v-41q-57 -4 -82 -16t-34 -47t-9 -113v-811q0 -78 12.5 -113.5t47 -49t106.5 -13.5h47q72 0 106.5 13.5t47 49t12.5 113.5v811q0 78 -9 113t-34 47t-82 16v41 q113 -6 322 -6q219 0 323 6v-41q-57 -4 -81.5 -16t-34 -47t-9.5 -113v-811q0 -74 15.5 -111.5t50.5 -51t100 -13.5h47q72 0 107 13.5t47 49t12 113.5v811q0 78 -9 113t-33.5 47t-82.5 16v41q115 -6 322 -6q233 0 344 6v-41q-66 -4 -95.5 -16t-40 -47t-10.5 -113v-811 q0 -78 11.5 -113.5t41 -49t93.5 -13.5h61q-14 -158 -14 -283q0 -86 6 -137h-47q-37 203 -143.5 291t-253.5 88h-336l-131 2q-152 4 -240 4q-94 0 -250 -4l-153 -2l-150 2q-147 4 -240 4q-233 0 -344 -6z" />
<glyph unicode="&#x44a;" horiz-adv-x="1622" d="M49 1245q252 -6 598 -6q264 0 404 6v-41q-74 -4 -108 -16t-46 -47t-12 -113v-287h55q356 0 498.5 -92t142.5 -260q0 -195 -137 -291t-438 -96q-61 0 -109 2l-262 2q-193 0 -291 -6v41q66 4 94.5 16.5t39.5 47t11 112.5v981h-4q-127 0 -234.5 -108.5t-146.5 -335.5h-47 q6 68 6 168q0 143 -14 323zM885 217q0 -74 8 -110.5t31.5 -51t70.5 -14.5q97 0 136.5 80t39.5 246q0 156 -54 244.5t-197 88.5h-35v-483z" />
<glyph unicode="&#x44b;" horiz-adv-x="2080" d="M59 0v41q66 4 94.5 16.5t40 47t11.5 112.5v811q0 78 -10.5 113t-40 47t-95.5 16v41q98 -6 303 -6q266 0 404 6v-41q-74 -4 -107.5 -16t-46 -47t-12.5 -113v-287h55q357 0 499 -92t142 -260q0 -195 -137 -291t-438 -96q-61 0 -109 2l-262 2q-193 0 -291 -6zM600 217 q0 -74 8 -110.5t32 -51t71 -14.5q96 0 136 80t40 246q0 156 -54.5 244.5t-197.5 88.5h-35v-483zM1335 0v41q66 4 95.5 16.5t40 47t10.5 112.5v811q0 78 -11.5 113t-40 47t-94.5 16v41q111 -6 355 -6q219 0 331 6v-41q-65 -4 -95 -16t-40 -47t-10 -113v-811q0 -78 10 -112.5 t40 -47t95 -16.5v-41q-113 6 -331 6q-244 0 -355 -6z" />
<glyph unicode="&#x44c;" horiz-adv-x="1337" d="M59 0v41q66 4 94.5 16.5t40 47t11.5 112.5v811q0 78 -10.5 113t-40 47t-95.5 16v41q98 -6 303 -6q266 0 404 6v-41q-74 -4 -107.5 -16t-46 -47t-12.5 -113v-287h55q357 0 499 -92t142 -260q0 -195 -137 -291t-438 -96q-61 0 -109 2l-262 2q-193 0 -291 -6zM600 217 q0 -74 8 -110.5t32 -51t71 -14.5q96 0 136 80t40 246q0 156 -54.5 244.5t-197.5 88.5h-35v-483z" />
<glyph unicode="&#x44d;" horiz-adv-x="1374" d="M100 0q8 106 9 369h47q23 -119 94 -203q51 -61 126 -97t152 -36q102 0 185.5 68.5t131.5 203.5t48 330q0 43 -2 63q-35 -113 -98.5 -173t-135.5 -60q-39 0 -75.5 17.5t-79.5 49.5q-41 31 -70 45.5t-59 14.5q-33 0 -61.5 -20.5t-41.5 -67.5l-32 4q25 150 87 230.5 t142 80.5q39 0 66.5 -15.5t68.5 -47.5q37 -31 66.5 -47.5t66.5 -16.5t79 18.5t73 57.5q-23 207 -107 325.5t-213 118.5q-76 0 -157.5 -37.5t-137.5 -97.5q-41 -43 -64.5 -104.5t-37.5 -157.5h-47q0 307 -8 430h47q6 -66 17 -94.5t32 -28.5q18 0 43 19q88 66 169 99.5 t214 33.5q188 0 339.5 -77t239 -221.5t87.5 -340.5q0 -199 -89.5 -349.5t-246 -232.5t-355.5 -82q-90 0 -155.5 17.5t-110.5 43t-106 72.5q-27 20 -43 21q-20 0 -31.5 -29.5t-18.5 -95.5h-47z" />
<glyph unicode="&#x44e;" horiz-adv-x="2222" d="M59 0v41q66 4 95.5 16.5t40 47t10.5 112.5v811q0 78 -11.5 113t-40 47t-94.5 16v41q111 -6 355 -6q217 0 331 6v-41q-66 -4 -95 -16t-39.5 -47t-10.5 -113v-381h207q8 186 96 328.5t237.5 220.5t338.5 78q200 0 351.5 -75t234.5 -219t83 -345q0 -197 -86 -347.5 t-238.5 -233.5t-346.5 -83q-201 0 -351.5 75t-234.5 218.5t-84 341.5h-207v-389q0 -78 10.5 -112.5t40 -47t94.5 -16.5v-41q-113 6 -331 6q-244 0 -355 -6zM1217 618q0 -182 35.5 -321t97 -214t135.5 -75q76 0 134 79t89 219t31 321q0 182 -36 321t-97.5 214t-135.5 75 q-76 0 -134 -79t-88.5 -219t-30.5 -321z" />
<glyph unicode="&#x44f;" horiz-adv-x="1423" d="M-35 82l27 27q27 -27 63 -27q68 0 86 94l31 146q23 127 127 188t305 86q-248 12 -362.5 93t-114.5 226q0 109 52 180.5t178 109.5t345 38q61 0 109 -2l262 -2q193 0 291 6v-41q-66 -4 -94.5 -16t-39.5 -47t-11 -113v-811q0 -78 10 -112.5t39.5 -47t95.5 -16.5v-41 q-98 6 -303 6q-266 0 -404 -6v41q74 4 108 16.5t46 47t12 112.5v365h-88q-72 0 -107.5 -74t-56.5 -217l-16 -98q-18 -121 -96 -171.5t-215 -50.5q-90 0 -159 26t-120 85zM537 920q0 -137 54 -215t197 -78h35v401q0 74 -8 111t-31.5 51t-70.5 14q-97 0 -136.5 -69.5 t-39.5 -214.5z" />
<glyph unicode="&#x450;" horiz-adv-x="1267" d="M59 0v41q66 4 95.5 16.5t40 47t10.5 112.5v811q0 78 -11.5 113t-40 47t-94.5 16v41q225 -6 676 -6q287 0 408 6q-14 -145 -15 -262q0 -80 7 -127h-48q-41 182 -130 262t-226 80h-26q-57 0 -81 -20.5t-24 -87.5v-443h47q98 0 156.5 70.5t75.5 159.5h47q-6 -70 -6 -164v-86 q0 -100 12 -250h-47q-14 98 -75.5 163.5t-162.5 65.5h-47v-450q0 -68 23.5 -88.5t81.5 -20.5h47q143 0 238 89t138 294h48q-6 -57 -7 -147q1 -125 15 -283q-133 6 -449 6q-451 0 -676 -6zM248 1614q0 29 12 53q18 37 54 57.5t75 20.5q31 0 64 -14q34 -17 59 -41.5t68 -73.5 q90 -113 196 -203l-14 -24q-129 39 -275 61q-59 10 -94 18.5t-67 24.5q-37 18 -57.5 51t-20.5 70z" />
<glyph unicode="&#x451;" horiz-adv-x="1267" d="M59 0v41q66 4 95.5 16.5t40 47t10.5 112.5v811q0 78 -11.5 113t-40 47t-94.5 16v41q225 -6 676 -6q287 0 408 6q-14 -145 -15 -262q0 -80 7 -127h-48q-41 182 -130 262t-226 80h-26q-57 0 -81 -20.5t-24 -87.5v-443h47q98 0 156.5 70.5t75.5 159.5h47q-6 -70 -6 -164v-86 q0 -100 12 -250h-47q-14 98 -75.5 163.5t-162.5 65.5h-47v-450q0 -68 23.5 -88.5t81.5 -20.5h47q143 0 238 89t138 294h48q-6 -57 -7 -147q1 -125 15 -283q-133 6 -449 6q-451 0 -676 -6zM184 1589q0 72 52.5 125t125.5 53q72 0 125.5 -53t53.5 -125q0 -74 -53.5 -126 t-125.5 -52q-74 0 -126 52.5t-52 125.5zM713 1589q0 72 52 125t126 53q72 0 125 -53t53 -125q0 -74 -53 -126t-125 -52q-74 0 -126 52.5t-52 125.5z" />
<glyph unicode="&#x452;" horiz-adv-x="1957" d="M51 1245q182 -6 619 -6q449 0 637 6q-14 -170 -15 -303q0 -123 6 -188h-47q-57 242 -140 343t-216 101h-18v-641q84 63 207.5 100t283.5 37q162 0 291 -43t203.5 -128t74.5 -204q0 -166 -159.5 -257t-403.5 -91q-102 0 -193 32t-148.5 97.5t-57.5 161.5q0 94 64.5 148.5 t156.5 54.5q88 0 139 -50t51 -139q0 -88 -53 -144t-149 -83q66 -27 131 -26q100 0 167.5 79.5t67.5 214.5q0 311 -319 312q-100 0 -202.5 -33t-151.5 -80v-532q-117 29 -295 28q-170 0 -328 -6v41q100 0 146 13.5t63.5 52.5t17.5 125v960h-18q-133 0 -216 -101.5 t-141 -342.5h-47q6 66 7 188q0 133 -15 303z" />
<glyph unicode="&#x453;" horiz-adv-x="1150" d="M59 0v41q66 4 95.5 16.5t40 47t10.5 112.5v811q0 78 -10.5 113t-40 47t-95.5 16v41l97 -2q160 -4 245 -4q90 0 213 4l121 2h367q-15 -180 -15 -323q0 -100 7 -168h-47q-39 231 -135.5 337.5t-221.5 106.5h-4q-45 0 -65.5 -22.5t-20.5 -88.5v-849q0 -78 21.5 -119 t69.5 -57.5t136 -20.5v-41q-137 6 -403 6q-248 0 -365 -6zM371 1413q106 90 196 203q43 49 67.5 73.5t59.5 41.5q33 14 64 14q39 0 74.5 -20.5t54.5 -57.5q12 -25 12 -53q0 -37 -20.5 -70t-57.5 -51q-33 -16 -67.5 -24.5t-94.5 -18.5q-145 -23 -274 -61z" />
<glyph unicode="&#x454;" horiz-adv-x="1374" d="M72 606q0 199 91 350.5t248.5 234.5t350.5 83q131 0 204.5 -34t153.5 -99q23 -18 39 -19q23 0 35 30t18 93h48q-8 -100 -9 -348h-47q-29 106 -98 182q-57 61 -128 97t-144 36q-104 0 -184.5 -71.5t-124.5 -204.5t-44 -311q0 -45 2 -68q33 123 95.5 188.5t134.5 65.5 q39 0 71.5 -17.5t77.5 -52.5q47 -33 73 -47t56 -14q35 0 71 20.5t50 69.5l33 -6q-25 -154 -89.5 -237t-148.5 -83q-39 0 -67.5 16.5t-75.5 51.5q-37 31 -66.5 47t-64.5 16q-39 0 -79 -21.5t-67 -61.5q25 -219 124.5 -339t236.5 -120q76 0 150.5 35.5t125.5 97.5 q39 49 59.5 112.5t35.5 172.5h47q0 -322 8 -451h-47q-6 63 -17.5 93t-33.5 30q-16 0 -41 -19q-90 -68 -168 -100.5t-211 -32.5q-193 0 -348.5 76t-245.5 219.5t-90 339.5z" />
<glyph unicode="&#x455;" horiz-adv-x="1241" d="M98 -14q8 123 8 532h48q16 -238 128.5 -366.5t305.5 -128.5q86 0 148.5 38.5t62.5 118.5q0 74 -55.5 129.5t-196.5 143.5q-213 127 -325.5 236.5t-112.5 244.5q0 166 145 253t383 87q172 0 311 -76q23 -12 40.5 -20.5t29.5 -8.5q18 0 28.5 21.5t16.5 69.5h47 q-10 -133 -10 -459h-47q-29 209 -134.5 316.5t-259.5 107.5q-98 0 -155.5 -37t-57.5 -96q0 -53 39 -101.5t100.5 -91.5t194.5 -127q123 -72 201 -130t131 -139t53 -184q0 -168 -153.5 -258t-409.5 -90q-98 0 -170 21.5t-170 60.5q-55 23 -72 23q-18 0 -28 -21.5t-17 -68.5 h-47z" />
<glyph unicode="&#x456;" horiz-adv-x="804" d="M59 0v41q66 4 95.5 16.5t40 47t10.5 112.5v811q0 78 -11.5 113t-40 47t-94.5 16v41q111 -6 355 -6q217 0 331 6v-41q-66 -4 -95 -16t-39.5 -47t-10.5 -113v-811q0 -78 10.5 -112.5t40 -47t94.5 -16.5v-41q-113 6 -331 6q-244 0 -355 -6z" />
<glyph unicode="&#x457;" horiz-adv-x="804" d="M-39 1589q0 72 52.5 125t125.5 53q72 0 125 -53t53 -125q0 -74 -53 -126t-125 -52q-74 0 -126 52.5t-52 125.5zM59 0v41q66 4 95.5 16.5t40 47t10.5 112.5v811q0 78 -11.5 113t-40 47t-94.5 16v41q111 -6 355 -6q217 0 331 6v-41q-66 -4 -95 -16t-39.5 -47t-10.5 -113 v-811q0 -78 10.5 -112.5t40 -47t94.5 -16.5v-41q-113 6 -331 6q-244 0 -355 -6zM489 1589q0 72 52.5 125t126.5 53q71 0 124.5 -53t53.5 -125q0 -74 -53.5 -126t-124.5 -52q-74 0 -126.5 52.5t-52.5 125.5z" />
<glyph unicode="&#x458;" horiz-adv-x="782" d="M-332 -193q0 72 55.5 115t145.5 43q86 0 135 -39t49 -112q0 -47 -29.5 -89t-89.5 -65q33 -4 56 -4q80 0 137 63q35 37 51.5 110t16.5 196v1003q0 78 -11.5 113t-40 47t-94.5 16v41q104 -6 324 -6q236 0 362 6v-41q-66 -4 -95.5 -16t-39.5 -47t-10 -113v-545v-170 q0 -119 -7.5 -209t-27.5 -155q-47 -147 -193.5 -240.5t-361.5 -93.5q-150 0 -229 39q-102 51 -103 153z" />
<glyph unicode="&#x459;" horiz-adv-x="2025" d="M-27 199q0 94 66.5 152.5t167.5 58.5q82 0 130 -41t48 -117q0 -84 -60.5 -146.5t-152.5 -78.5q16 -16 59 -17q141 0 218 148.5t105 351.5t50 518q2 16 2 45q0 53 -14 80t-49 37t-105 14v41q51 -4 191 -4q33 0 45 2q12 0 35.5 1t81.5 1q72 0 165 -4l158 -2q193 0 313 6 v-41q-66 -4 -95 -16t-39.5 -47t-10.5 -113v-287h55q357 0 499 -92t142 -260q0 -389 -551 -389q-37 0 -98 4q-72 2 -242 2q-236 0 -346 -6v41q66 4 95.5 16.5t40 47t10.5 112.5v811q0 78 -8.5 115t-29 49t-67.5 12h-26q-45 0 -64.5 -12t-27 -45t-15.5 -119l-12 -147 q-20 -272 -51 -456.5t-116 -319t-243 -134.5q-111 0 -182.5 64.5t-71.5 163.5zM1282 217q0 -72 8 -106.5t32 -49t75 -18.5h12q82 0 121 80t39 244q0 156 -54.5 244.5t-197.5 88.5h-35v-483z" />
<glyph unicode="&#x45a;" horiz-adv-x="2154" d="M59 0v41q66 4 95.5 16.5t40 47t10.5 112.5v811q0 78 -11.5 113t-40 47t-94.5 16v41q111 -6 355 -6q217 0 331 6v-41q-66 -4 -95 -16t-39.5 -47t-10.5 -113v-348h422v348q0 78 -10.5 113t-40 47t-94.5 16v41q98 -6 313 -6q256 0 393 6v-41q-74 -4 -107.5 -16t-46 -47 t-12.5 -113v-348h56q247 0 387.5 -39t197 -110.5t56.5 -180.5q0 -178 -138.5 -263t-429.5 -85q-74 0 -125 2l-252 2q-195 0 -292 -6v41q66 4 94 16.5t39.5 47t11.5 112.5v422h-422v-422q0 -78 10.5 -112.5t40 -47t94.5 -16.5v-41q-113 6 -331 6q-244 0 -355 -6zM1417 217 q0 -104 20.5 -140t84.5 -36q98 0 140 73.5t42 221.5q0 150 -52.5 226.5t-199.5 76.5h-35v-422z" />
<glyph unicode="&#x45b;" horiz-adv-x="1818" d="M41 1245q182 -6 618 -6q449 0 637 6q-14 -170 -14 -305q0 -78 6 -125h-47q-43 211 -125 297t-231 86h-19v-577q68 29 163 51t204 22q92 0 176 -18.5t145 -52.5q78 -45 109 -114t31 -181v-111q0 -78 10 -112.5t40 -47t95 -16.5v-41q-111 6 -338 6t-348 -6v41 q66 4 95.5 16.5t39.5 47t10 112.5v176q0 94 -13 143.5t-51 71t-114 21.5q-66 0 -136.5 -13.5t-117.5 -35.5v-342q0 -86 11.5 -125t40 -53.5t94.5 -18.5v-41q-94 6 -361 6q-289 0 -387 -6v41q92 4 133 18.5t57.5 53.5t16.5 125v960h-18q-150 0 -232 -86t-125 -297h-47 q6 47 6 125q0 135 -14 305z" />
<glyph unicode="&#x45c;" horiz-adv-x="1513" d="M59 0v41q66 4 95.5 16.5t40 47t10.5 112.5v811q0 78 -11.5 113t-40 47t-94.5 16v41q111 -6 355 -6q217 0 331 6v-41q-66 -4 -95 -16t-39.5 -47t-10.5 -113v-348q96 12 171 50t153 112l47 45q88 90 88 176q0 61 -45 100t-113 43v39q172 -6 340 -6q147 0 232 6v-39 q-143 -39 -297 -182l-381 -350q178 -10 306 -74.5t167 -216.5l43 -168q20 -84 41.5 -108.5t52.5 -24.5q37 0 63 27l27 -27q-55 -59 -129 -85t-170 -26q-133 0 -212 49.5t-101 172.5l-52 253q-18 94 -61 145.5t-152 51.5h-18v-426q0 -78 10.5 -112.5t40 -47t94.5 -16.5v-41 q-113 6 -331 6q-244 0 -355 -6zM553 1413q106 90 197 203q43 49 67.5 73.5t59.5 41.5q32 14 63 14q39 0 75 -20.5t54 -57.5q12 -25 12 -53q0 -37 -20.5 -70t-56.5 -51q-33 -16 -68 -24.5t-94 -18.5q-145 -23 -275 -61z" />
<glyph unicode="&#x45d;" horiz-adv-x="1701" d="M59 0v41q66 4 95.5 16.5t40 47t10.5 112.5v811q0 78 -11.5 113t-40 47t-94.5 16v41q104 -6 324 -6q236 0 362 6v-41q-66 -4 -95 -16t-39.5 -47t-10.5 -113v-774l502 797q-2 66 -13.5 96.5t-41 41.5t-91.5 15v41q125 -6 363 -6q78 0 192 4q115 4 131 2v-41 q-65 -4 -94.5 -16t-40 -47t-10.5 -113v-811q0 -78 11.5 -112.5t40 -47t93.5 -16.5v-41q-104 6 -323 6q-236 0 -363 -6v41q66 4 95.5 16.5t40 47t10.5 112.5v748l-502 -793q4 -55 17.5 -82t42 -36t85.5 -13v-41q-125 6 -362 6q-219 0 -324 -6zM465 1614q0 29 12 53 q18 37 54 57.5t75 20.5q31 0 64 -14q35 -17 59.5 -41.5t67.5 -73.5q90 -113 196 -203l-14 -24q-129 39 -274 61q-59 10 -94.5 18.5t-67.5 24.5q-37 18 -57.5 51t-20.5 70z" />
<glyph unicode="&#x45e;" horiz-adv-x="1302" d="M-8 1204v41q82 -6 336 -6q258 0 350 6v-41q-39 -4 -64.5 -24.5t-25.5 -57.5t35 -90l272 -407l68 123q109 197 108 309q0 141 -162 147v41q154 -6 269 -6q96 0 157 6v-41q-47 -23 -98 -87t-119 -185l-321 -570l-111 -194q-55 -96 -94 -135q-61 -61 -180 -62 q-129 0 -205 59.5t-76 147.5q0 82 64.5 136.5t175.5 54.5q94 0 153.5 -41t59.5 -115q0 -68 -52.5 -118t-138.5 -72q12 -10 53 -11q66 0 108 38t89 122l49 90l-553 813q-41 61 -80 93t-67 36zM156 1604q0 63 55 107t141 44t143.5 -44t57.5 -112q0 -57 -43 -96t-109 -55 q131 -31 279 -31q147 0 276 33q-68 18 -107.5 56t-39.5 93q0 68 56.5 112t142.5 44t142 -44t56 -107q0 -51 -38 -91t-101 -69q-66 -31 -166 -49.5t-221 -18.5t-221.5 18.5t-167.5 49.5q-61 27 -98 67.5t-37 92.5z" />
<glyph unicode="&#x45f;" d="M59 0v41q66 4 95.5 16.5t40 47t10.5 112.5v811q0 78 -11.5 113t-40 47t-94.5 16v41q104 -6 324 -6q236 0 362 6v-41q-66 -4 -95 -16t-39.5 -47t-10.5 -113v-811q0 -78 11.5 -113.5t41 -49t92.5 -13.5h170q66 0 95.5 13.5t40 49t10.5 113.5v811q0 78 -11.5 113t-40 47 t-94.5 16v41q125 -6 363 -6q219 0 324 6v-41q-66 -4 -95.5 -16t-40 -47t-10.5 -113v-811q0 -78 11.5 -112.5t40 -47t94.5 -16.5v-41q-104 6 -324 6h-39q-145 -6 -251.5 -97t-129.5 -288h-47q-20 195 -125.5 287t-251.5 98h-51q-219 0 -324 -6z" />
<glyph unicode="&#x462;" horiz-adv-x="1392" d="M0 1108v41h203v84q0 78 -11.5 112.5t-40 47t-94.5 16.5v41q117 -6 365 -6q221 0 342 6v-41q-66 -4 -95.5 -16.5t-40 -47t-10.5 -112.5v-84h273v-41h-273v-244h76q363 0 512.5 -114.5t149.5 -300.5q0 -205 -157 -326t-458 -121q-57 0 -96 2l-248 2q-223 0 -340 -6v41 q66 4 94.5 16.5t40 47t11.5 112.5v891h-203zM618 217q0 -104 20.5 -140t84.5 -36q111 0 157 91t46 284t-53.5 300t-198.5 107h-56v-606z" />
<glyph unicode="&#x463;" horiz-adv-x="1337" d="M0 944v41h205v43q0 78 -10.5 113t-40 47t-95.5 16v41q98 -6 303 -6q266 0 404 6v-41q-74 -4 -107.5 -16t-46 -47t-12.5 -113v-43h250v-41h-250v-203h55q357 0 499 -92t142 -260q0 -195 -137 -291t-438 -96q-61 0 -109 2l-262 2q-193 0 -291 -6v41q66 4 94.5 16.5t40 47 t11.5 112.5v727h-205zM600 217q0 -74 8 -110.5t32 -51t71 -14.5q96 0 136 80t40 246q0 156 -54.5 244.5t-197.5 88.5h-35v-483z" />
<glyph unicode="&#x46a;" horiz-adv-x="2168" d="M-33 82l27 27q27 -27 61 -27q37 0 58.5 28.5t36.5 104.5l59 285q33 147 172 208.5t418 67.5l-318 518q-39 66 -76.5 90.5t-103.5 24.5v43q403 -8 836 -8q328 0 649 8v-41q-88 -27 -146.5 -85t-132.5 -187l-213 -363h4q211 0 346.5 -24.5t214 -84t101.5 -167.5l59 -285 q14 -76 36 -104.5t59 -28.5q35 0 61 27l27 -27q-61 -61 -135 -86t-173 -25q-143 0 -220 50.5t-95 171.5l-53 352q-18 109 -68.5 150.5t-165.5 47.5v-526q0 -78 10.5 -112.5t40 -47t95.5 -16.5v-41q-117 6 -365 6q-221 0 -342 -6v41q66 4 94.5 16.5t40 47t11.5 112.5v430 l-56 90q-84 -10 -123 -53t-55 -139l-53 -352q-18 -121 -95 -171.5t-221 -50.5q-98 0 -171.5 24.5t-135.5 86.5zM950 1341q0 -27 25 -67l282 -465l86 145q117 195 117 299q0 80 -71.5 118t-221.5 38q-112 0 -164.5 -14.5t-52.5 -53.5z" />
<glyph unicode="&#x46b;" horiz-adv-x="2097" d="M2 82l27 27q27 -27 63 -27q31 0 52.5 24.5t41.5 108.5l43 168q43 170 196 230.5t361 64.5l-290 409q-6 6 -37 43t-65 52.5t-79 19.5v43q131 -8 341 -10t429 -2q240 0 629 12v-41q-61 -14 -103 -52t-110 -120q-29 -35 -86 -100l-182 -254q86 0 148.5 -4t109.5 -12 q139 -23 234.5 -87.5t127.5 -191.5l43 -168q20 -84 42 -108.5t53 -24.5q37 0 63 27l27 -27q-55 -59 -129 -85t-170 -26q-133 0 -212 49.5t-102 172.5l-63 319q-14 68 -51 99.5t-105 31.5h-10v-426q0 -78 10.5 -112.5t40 -47t94.5 -16.5v-41q-113 6 -331 6q-244 0 -355 -6v41 q66 4 95.5 16.5t40 47t10.5 112.5v377l-33 49q-57 -6 -89 -38t-44 -93l-64 -319q-23 -123 -101.5 -172.5t-211.5 -49.5q-96 0 -170 26t-129 85zM958 1143q0 -31 33 -78l230 -340l43 59q98 131 98 240q0 84 -61.5 131t-172.5 47q-88 0 -129 -13t-41 -46z" />
<glyph unicode="&#x490;" horiz-adv-x="1169" d="M57 0v41q66 4 94.5 16.5t40 47t11.5 112.5v1016q0 78 -10.5 112.5t-40 47t-95.5 16.5v41q41 0 140 -4q164 -4 254 -4q59 0 145 4q70 4 88 4q86 0 173 42t152.5 115.5t92.5 166.5h47q-6 -56 -6 -148q0 -143 14 -229q-102 6 -373 6q-74 0 -107.5 -11.5t-46 -46 t-12.5 -112.5v-1016q0 -78 12.5 -112.5t46.5 -47t107 -16.5v-41q-125 6 -362 6q-248 0 -365 -6z" />
<glyph unicode="&#x491;" horiz-adv-x="1071" d="M59 0v41q66 4 95.5 16.5t40 47t10.5 112.5v811q0 78 -10.5 113t-40 47t-95.5 16v41l99 -2q160 -4 248 -4q190 0 258 18q113 31 203.5 115t121.5 197h47q-6 -56 -6 -148q0 -143 14 -229q-90 6 -339 6q-57 0 -81 -28.5t-24 -120.5v-811q0 -78 21.5 -119t69.5 -57.5 t136 -20.5v-41q-137 6 -403 6q-248 0 -365 -6z" />
<glyph unicode="&#x492;" horiz-adv-x="1232" d="M0 709v41h203v483q0 78 -10.5 112.5t-40 47t-95.5 16.5v41q238 -6 717 -6q301 0 428 6q-14 -192 -14 -344q0 -94 6 -148h-47q-49 238 -150.5 341.5t-226.5 103.5h-27q-55 0 -80.5 -9.5t-35 -35t-9.5 -84.5v-524h273v-41h-273v-492q0 -78 12.5 -112.5t46.5 -47t107 -16.5 v-41q-125 6 -362 6q-248 0 -365 -6v41q66 4 94.5 16.5t40 47t11.5 112.5v492h-203z" />
<glyph unicode="&#x493;" horiz-adv-x="1150" d="M0 606v41h205v381q0 78 -10.5 113t-40 47t-95.5 16v41l97 -2q160 -4 245 -4q90 0 213 4l121 2h367q-15 -180 -15 -323q0 -100 7 -168h-47q-39 231 -135.5 337.5t-221.5 106.5h-4q-45 0 -65.5 -22.5t-20.5 -88.5v-440h229v-41h-229v-368q0 -78 21.5 -119t69.5 -57.5 t136 -20.5v-41q-137 6 -403 6q-248 0 -365 -6v41q66 4 95.5 16.5t40 47t10.5 112.5v389h-205z" />
<glyph unicode="&#x496;" horiz-adv-x="2168" d="M-33 82l27 27q27 -27 61 -27q37 0 58.5 28.5t36.5 104.5l59 285q29 135 144.5 196.5t338.5 75.5l-362 414q-158 178 -336 225v39q84 -6 207 -6q174 0 346 6v-39q-74 -4 -121 -40t-47 -95q0 -82 90 -184l70 -78q115 -129 185.5 -180.5t152.5 -57.5v457q0 78 -10.5 112.5 t-40 47t-95.5 16.5v41q119 -6 342 -6q248 0 365 6v-41q-66 -4 -94.5 -16.5t-40 -47t-11.5 -112.5v-457q82 6 153 57.5t185 180.5l70 78q90 102 90 184q0 59 -47 95t-121 40v39q172 -6 346 -6q123 0 207 6v-39q-178 -47 -336 -225l-362 -414q223 -14 339.5 -76.5 t143.5 -195.5l59 -285q14 -74 33 -109.5t51.5 -50t94.5 -14.5h20q-14 -158 -14 -283q0 -86 6 -137h-47q-18 119 -52 191.5t-94.5 115.5t-163.5 62q-129 29 -196.5 69.5t-81.5 137.5l-49 348q-16 109 -66.5 150.5t-167.5 47.5v-526q0 -78 10.5 -112.5t40 -47t95.5 -16.5v-41 q-117 6 -365 6q-221 0 -342 -6v41q66 4 94.5 16.5t40 47t11.5 112.5v526q-115 -6 -165 -48t-69 -150l-53 -352q-18 -121 -95 -171.5t-221 -50.5q-98 0 -171.5 24.5t-135.5 86.5z" />
<glyph unicode="&#x497;" horiz-adv-x="2097" d="M2 82l27 27q27 -27 63 -27q31 0 52.5 24.5t41.5 108.5l43 168q39 152 167 216.5t306 74.5l-380 350q-154 143 -297 182v39q84 -6 206 -6q193 0 365 6v-39q-70 -4 -118 -43t-48 -100q0 -84 92 -176l47 -45q66 -63 131.5 -99t143.5 -53v338q0 78 -11.5 113t-40 47t-94.5 16 v41q111 -6 355 -6q217 0 331 6v-41q-66 -4 -95 -16t-39.5 -47t-10.5 -113v-338q78 16 143.5 52t130.5 100l48 45q92 92 92 176q0 61 -48.5 100t-117.5 43v39q172 -6 364 -6q125 0 207 6v-39q-143 -39 -297 -182l-381 -350q178 -10 306.5 -74.5t166.5 -216.5l43 -168 q27 -104 66 -139t129 -35h20q-14 -158 -14 -283q0 -86 6 -137h-47q-18 119 -52 190.5t-94.5 114.5t-162.5 64q-125 27 -191.5 68.5t-87.5 138.5l-51 249q-16 84 -54 135.5t-124 59.5v-424q0 -78 10.5 -112.5t40 -47t94.5 -16.5v-41q-113 6 -331 6q-244 0 -355 -6v41 q66 4 95.5 16.5t40 47t10.5 112.5v426h-10q-68 0 -105 -31.5t-51 -99.5l-64 -319q-23 -123 -101.5 -172.5t-211.5 -49.5q-96 0 -170 26t-129 85z" />
<glyph unicode="&#x49a;" horiz-adv-x="1536" d="M57 0v41q66 4 95.5 16.5t40 47t10.5 112.5v1016q0 78 -11.5 112.5t-40 47t-94.5 16.5v41q117 -6 365 -6q221 0 342 6v-41q-66 -4 -95.5 -16.5t-40 -47t-10.5 -112.5v-457q84 6 162 59.5t189 178.5l69 78q90 102 90 184q0 59 -47 95t-120 40v39q172 -6 346 -6q125 0 206 6 v-39q-172 -45 -335 -225l-375 -414q225 -14 341 -75.5t142 -196.5l60 -285q14 -74 32.5 -109.5t51 -50t94.5 -14.5h20q-14 -158 -14 -283q0 -86 6 -137h-47q-18 119 -52 190.5t-94.5 114.5t-162.5 64q-129 29 -197 69.5t-82 137.5l-49 348q-14 109 -65.5 150.5t-168.5 47.5 v-526q0 -78 11.5 -112.5t40 -47t94.5 -16.5v-41q-119 6 -342 6q-248 0 -365 -6z" />
<glyph unicode="&#x49b;" horiz-adv-x="1513" d="M59 0v41q66 4 95.5 16.5t40 47t10.5 112.5v811q0 78 -11.5 113t-40 47t-94.5 16v41q111 -6 355 -6q217 0 331 6v-41q-66 -4 -95 -16t-39.5 -47t-10.5 -113v-348q96 12 171 50t153 112l47 45q88 90 88 176q0 61 -45 100t-113 43v39q172 -6 340 -6q147 0 232 6v-39 q-143 -39 -297 -182l-381 -350q178 -10 306 -74.5t167 -216.5l43 -168q18 -72 40.5 -108.5t57.5 -51t96 -14.5h21q-15 -158 -15 -283q0 -86 7 -137h-48q-18 119 -52 190.5t-94 114.5t-163 64q-125 27 -191.5 68.5t-86.5 138.5l-52 249q-18 94 -61 145.5t-152 51.5h-18v-426 q0 -78 10.5 -112.5t40 -47t94.5 -16.5v-41q-113 6 -331 6q-244 0 -355 -6z" />
<glyph unicode="&#x4a2;" horiz-adv-x="1697" d="M57 0v41q66 4 95.5 16.5t40 47t10.5 112.5v1016q0 78 -11.5 112.5t-40 47t-94.5 16.5v41q117 -6 365 -6q221 0 342 6v-41q-66 -4 -95.5 -16.5t-40 -47t-10.5 -112.5v-483h461v483q0 78 -11 112.5t-40 47t-94 16.5v41q127 -6 362 -6q233 0 344 6v-41q-66 -4 -95 -16.5 t-39.5 -47t-10.5 -112.5v-1016q0 -78 11.5 -112.5t40 -47t93.5 -16.5h62q-14 -158 -14 -283q0 -86 6 -137h-47q-37 203 -141.5 293t-248.5 92q-209 0 -323 -6v41q66 4 95.5 16.5t39.5 47t10 112.5v492h-461v-492q0 -78 11.5 -112.5t40 -47t94.5 -16.5v-41q-119 6 -342 6 q-248 0 -365 -6z" />
<glyph unicode="&#x4a3;" d="M59 0v41q66 4 95.5 16.5t40 47t10.5 112.5v811q0 78 -11.5 113t-40 47t-94.5 16v41q104 -6 324 -6q236 0 362 6v-41q-66 -4 -95 -16t-39.5 -47t-10.5 -113v-381h461v381q0 78 -11.5 113t-40 47t-94.5 16v41q125 -6 363 -6q219 0 324 6v-41q-66 -4 -95.5 -16t-40 -47 t-10.5 -113v-811q0 -78 11.5 -112.5t40 -47t94.5 -16.5h61q-14 -158 -14 -283q0 -86 6 -137h-47q-35 203 -139.5 292t-247.5 93q-197 0 -306 -6v41q66 4 95.5 16.5t40 47t10.5 112.5v389h-461v-389q0 -78 11.5 -112.5t40 -47t93.5 -16.5v-41q-125 6 -362 6q-219 0 -324 -6z " />
<glyph unicode="&#x4ae;" horiz-adv-x="1318" d="M-18 1409v43q127 -12 282 -12q176 0 451 12v-43q-82 0 -123 -8t-41 -39q0 -14 8 -31l293 -561l92 184q96 193 96 306q0 145 -163 151v41q154 -6 268 -6q97 0 158 6v-41q-104 -51 -218 -272l-190 -377v-545q0 -78 11.5 -112.5t40 -47t93.5 -16.5v-41q-119 6 -352 6 q-244 0 -354 -6v41q66 4 95.5 16.5t39.5 47t10 112.5v377l-379 700q-33 59 -63.5 87t-54.5 28z" />
<glyph unicode="&#x4af;" horiz-adv-x="1263" d="M-2 1202v43q125 -12 283 -12q160 0 409 12v-43q-121 0 -121 -53q0 -18 15 -41l252 -459l53 99q102 193 102 307q0 143 -164 149v41q154 -6 269 -6q96 0 157 6v-41q-47 -23 -98 -87t-119 -185l-176 -332v-362q0 -86 16.5 -125t57.5 -53.5t133 -18.5v-41q-113 6 -414 6 q-297 0 -395 -6v41q92 4 133 18.5t57.5 53.5t16.5 125v229l-348 620q-33 57 -59.5 83t-59.5 32z" />
<glyph unicode="&#x4b0;" horiz-adv-x="1318" d="M-18 1409v43q127 -12 282 -12q176 0 451 12v-43q-82 0 -123 -8t-41 -39q0 -14 8 -31l293 -561l92 184q96 193 96 306q0 145 -163 151v41q154 -6 268 -6q97 0 158 6v-41q-104 -51 -218 -272l-190 -377v-166h283v-41h-283v-338q0 -78 11.5 -112.5t40 -47t93.5 -16.5v-41 q-119 6 -352 6q-244 0 -354 -6v41q66 4 95.5 16.5t39.5 47t10 112.5v338h-311v41h309l-377 698q-33 59 -63.5 87t-54.5 28z" />
<glyph unicode="&#x4b1;" horiz-adv-x="1263" d="M-2 1202v43q125 -12 283 -12q160 0 409 12v-43q-121 0 -121 -53q0 -18 15 -41l252 -459l53 99q102 193 102 307q0 143 -164 149v41q154 -6 269 -6q96 0 157 6v-41q-47 -23 -98 -87t-119 -185l-176 -332v-135h307v-41h-307v-186q0 -86 16.5 -125t57.5 -53.5t133 -18.5v-41 q-113 6 -414 6q-297 0 -395 -6v41q92 4 133 18.5t57.5 53.5t16.5 125v186h-307v41h307v2l-348 620q-33 57 -59.5 83t-59.5 32z" />
<glyph unicode="&#x4ba;" horiz-adv-x="1642" d="M57 0v41q65 4 95 16.5t40 47t10 112.5v1016q0 78 -10 112.5t-40 47t-95 16.5v41l98 -2q172 -4 268 -4q145 0 422 6v-47q-100 0 -146 -13.5t-63.5 -52.5t-17.5 -125v-372q72 29 176.5 51t222.5 22q205 0 330 -71q78 -45 108.5 -114t30.5 -181v-330q0 -78 10.5 -112.5 t40 -47t95.5 -16.5v-41q-117 6 -357 6q-229 0 -350 -6v41q66 4 94.5 16.5t40 47t11.5 112.5v395q0 96 -13.5 144.5t-51.5 70t-116 21.5q-70 0 -144.5 -13.5t-127.5 -35.5v-582q0 -78 11.5 -112.5t40 -47t93.5 -16.5v-41q-117 6 -364 6q-223 0 -342 -6z" />
<glyph unicode="&#x4bb;" horiz-adv-x="1642" d="M57 0v41q66 4 95.5 16.5t40 47t10.5 112.5v811q0 78 -10.5 113t-40 47t-95.5 16v41l99 -2q172 -4 268 -4q145 0 422 6v-47q-100 0 -146.5 -13.5t-64 -52t-17.5 -124.5v-373q72 29 176.5 51.5t223.5 22.5q205 0 330 -72q78 -45 108.5 -113.5t30.5 -181.5v-125 q0 -78 10 -112.5t40 -47t95 -16.5v-41q-117 6 -356 6q-229 0 -350 -6v41q66 4 94.5 16.5t39.5 47t11 112.5v191q0 96 -13.5 144t-51 69.5t-115.5 21.5q-70 0 -144.5 -13.5t-128.5 -35.5v-377q0 -78 11.5 -112.5t40 -47t94.5 -16.5v-41q-117 6 -365 6q-221 0 -342 -6z" />
<glyph unicode="&#x4c9;" horiz-adv-x="1697" d="M57 0v41q66 4 95.5 16.5t40 47t10.5 112.5v1016q0 78 -11.5 112.5t-40 47t-94.5 16.5v41q117 -6 365 -6q221 0 342 6v-41q-66 -4 -95.5 -16.5t-40 -47t-10.5 -112.5v-483h461v483q0 78 -11 112.5t-40 47t-94 16.5v41q127 -6 362 -6q233 0 344 6v-41q-66 -4 -95 -16.5 t-39.5 -47t-10.5 -112.5v-1016q0 -78 11.5 -112.5t40 -47t93.5 -16.5h29v-41q-68 -84 -142.5 -198.5t-119.5 -198.5l-45 22q70 139 70 228q0 84 -60.5 116.5t-175.5 36.5l-90 -2q-82 0 -172 -4v41q66 4 95.5 16.5t39.5 47t10 112.5v492h-461v-492q0 -78 11.5 -112.5t40 -47 t94.5 -16.5v-41q-119 6 -342 6q-248 0 -365 -6z" />
<glyph unicode="&#x4ca;" d="M59 0v41q66 4 95.5 16.5t40 47t10.5 112.5v811q0 78 -11.5 113t-40 47t-94.5 16v41q104 -6 324 -6q236 0 362 6v-41q-66 -4 -95 -16t-39.5 -47t-10.5 -113v-381h461v381q0 78 -11.5 113t-40 47t-94.5 16v41q125 -6 363 -6q219 0 324 6v-41q-66 -4 -95.5 -16t-40 -47 t-10.5 -113v-811q0 -78 11.5 -112.5t40 -47t94.5 -16.5h28v-41q-68 -84 -142.5 -198.5t-119.5 -198.5l-45 22q70 139 70 230q0 80 -59.5 113.5t-170.5 37.5l-248 -6v41q66 4 95.5 16.5t40 47t10.5 112.5v389h-461v-389q0 -78 11.5 -112.5t40 -47t93.5 -16.5v-41 q-125 6 -362 6q-219 0 -324 -6z" />
<glyph unicode="&#x4d8;" horiz-adv-x="1587" d="M74 623h1013q2 25 3 75q0 385 -143.5 547t-356.5 162q-123 0 -213 -53q-96 -57 -134 -152.5t-55 -263.5h-47q0 367 -8 512h47q6 -66 17.5 -93.5t31.5 -27.5q16 0 43 17q10 6 69.5 42.5t166 64.5t235.5 28q220 0 394 -80t275 -248t101 -420t-102 -424t-272 -255t-377 -83 q-190 0 -349 71t-251 218.5t-88 362.5zM502 498q0 -205 77.5 -342.5t217.5 -137.5q125 0 200.5 133.5t94.5 432.5h-586q-4 -57 -4 -86z" />
<glyph unicode="&#x4d9;" horiz-adv-x="1605" d="M94 520h1014q2 25 2 76q0 330 -142.5 468t-357.5 138q-123 0 -213 -53q-96 -57 -134 -152.5t-54 -263.5h-47q0 367 -8 512h47q6 -66 17 -93.5t32 -27.5q16 0 43 17q10 6 69.5 43t166 64.5t235.5 27.5q219 0 393 -69.5t275.5 -214t101.5 -361.5q0 -219 -102.5 -366.5 t-272.5 -220.5t-377 -73q-190 0 -349 60.5t-251 183.5t-88 305zM522 410q0 -168 78 -280t217 -112q125 0 201 109t94 354h-586q-4 -49 -4 -71z" />
<glyph unicode="&#x4e8;" horiz-adv-x="1693" d="M74 713q0 225 98 399t274.5 270.5t401.5 96.5q231 0 405 -88t270.5 -255t96.5 -399q0 -225 -98.5 -399t-274.5 -270.5t-401 -96.5q-231 0 -405.5 88t-270.5 255t-96 399zM504 709q0 -209 48 -369t127 -246t175 -86q98 0 174 88t118 248t44 365h-686zM504 750h686 q-2 207 -49 364.5t-126 242.5t-175 85q-99 0 -173.5 -87t-117.5 -244t-45 -361z" />
<glyph unicode="&#x4e9;" horiz-adv-x="1607" d="M72 610q0 197 93 347.5t260 233.5t380 83q219 0 384 -75t256 -219t91 -345q0 -197 -93 -347.5t-260 -233.5t-380 -83q-219 0 -384 75t-256 219.5t-91 344.5zM481 606q2 -180 46 -315t119 -209t165 -74q92 0 162.5 76t110.5 211t42 311h-645zM481 647h645 q-2 176 -47 310.5t-118.5 207t-163.5 72.5q-92 0 -163 -75t-111 -208t-42 -307z" />
<glyph unicode="&#x2000;" horiz-adv-x="969" />
<glyph unicode="&#x2001;" horiz-adv-x="1939" />
<glyph unicode="&#x2002;" horiz-adv-x="969" />
<glyph unicode="&#x2003;" horiz-adv-x="1939" />
<glyph unicode="&#x2004;" horiz-adv-x="646" />
<glyph unicode="&#x2005;" horiz-adv-x="484" />
<glyph unicode="&#x2006;" horiz-adv-x="323" />
<glyph unicode="&#x2007;" horiz-adv-x="323" />
<glyph unicode="&#x2008;" horiz-adv-x="242" />
<glyph unicode="&#x2009;" horiz-adv-x="387" />
<glyph unicode="&#x200a;" horiz-adv-x="107" />
<glyph unicode="&#x2010;" horiz-adv-x="1001" d="M131 512v203h739v-203h-739z" />
<glyph unicode="&#x2011;" horiz-adv-x="1001" d="M131 512v203h739v-203h-739z" />
<glyph unicode="&#x2012;" horiz-adv-x="1001" d="M131 512v203h739v-203h-739z" />
<glyph unicode="&#x2013;" horiz-adv-x="1316" d="M131 473v285h1055v-285h-1055z" />
<glyph unicode="&#x2014;" horiz-adv-x="1918" d="M131 473v285h1657v-285h-1657z" />
<glyph unicode="&#x2018;" horiz-adv-x="542" d="M76 1161q0 106 55 196t162 140l18 -37q-53 -25 -95 -71t-59 -97q-10 -29 -10 -68q0 -31 4 -45q53 63 150 64q82 0 131 -46t49 -130q0 -80 -53 -128.5t-139 -48.5q-111 0 -162 76q-23 31 -37 82t-14 113z" />
<glyph unicode="&#x2019;" horiz-adv-x="528" d="M53 1303q0 80 53.5 128t139.5 48q111 0 162 -76q23 -31 37 -82t14 -113q0 -106 -55.5 -196t-161.5 -140l-19 37q53 25 95 71t59 97q10 29 10 68q0 31 -4 45q-53 -63 -150 -64q-82 0 -131 46.5t-49 130.5z" />
<glyph unicode="&#x201a;" horiz-adv-x="569" d="M84 147q0 80 53 128.5t139 48.5q111 0 162 -76q23 -31 37 -82t14 -113q0 -106 -55 -196t-162 -140l-18 37q53 25 95 71t59 97q10 29 10 68q0 31 -4 45q-53 -63 -150 -64q-82 0 -131 46t-49 130z" />
<glyph unicode="&#x201c;" horiz-adv-x="1013" d="M75 1159q0 106 55.5 196t162.5 140l18 -37q-53 -25 -95 -71t-59 -97q-10 -29 -10 -68q0 -31 4 -45q53 63 150 64q82 0 131 -46t49 -130q0 -80 -53.5 -128.5t-139.5 -48.5q-110 0 -161 76q-23 31 -37.5 82t-14.5 113zM547 1159q0 106 55 196t162 140l18 -37 q-53 -25 -95 -71t-59 -97q-10 -29 -10 -68q0 -31 4 -45q53 63 150 64q82 0 131 -46t49 -130q0 -80 -53 -128.5t-139 -48.5q-111 0 -162 76q-23 31 -37 82t-14 113z" />
<glyph unicode="&#x201d;" horiz-adv-x="999" d="M53 1302q0 80 53 128.5t139 48.5q111 0 162 -76q23 -31 37 -82t14 -113q0 -106 -55 -196t-162 -140l-18 37q53 25 95 71t59 97q10 29 10 68q0 31 -4 45q-53 -63 -150 -64q-82 0 -131 46t-49 130zM524 1302q0 80 53.5 128.5t139.5 48.5q110 0 161 -76q23 -31 37.5 -82 t14.5 -113q0 -106 -55.5 -196t-162.5 -140l-18 37q53 25 95 71t59 97q10 29 10 68q0 31 -4 45q-53 -63 -150 -64q-82 0 -131 46t-49 130z" />
<glyph unicode="&#x201e;" horiz-adv-x="1040" d="M84 147q0 80 53 128.5t139 48.5q111 0 162 -76q23 -31 37 -82t14 -113q0 -106 -55 -196t-162 -140l-18 37q53 25 95 71t59 97q10 29 10 68q0 31 -4 45q-53 -63 -150 -64q-82 0 -131 46t-49 130zM555 147q0 80 53.5 128.5t139.5 48.5q110 0 161 -76q23 -31 37.5 -82 t14.5 -113q0 -106 -55.5 -196t-162.5 -140l-18 37q53 25 95 71t59 97q10 29 10 68q0 31 -4 45q-53 -63 -150 -64q-82 0 -131 46t-49 130z" />
<glyph unicode="&#x2020;" horiz-adv-x="761" d="M63 932l78 51l240 -51l240 51l77 -51l-77 -51l-240 49l-240 -49zM305 788q16 10 23.5 25.5t12.5 38t11 39.5l29 12l29 -12q4 -14 9 -38t13 -39t25 -26q0 -291 -17.5 -660.5t-58.5 -446.5q-43 76 -59.5 441t-16.5 666zM319 1253q0 35 13.5 64t48.5 29t48 -29t13 -64 q-14 0 -18 -29.5t-6 -101.5t-7 -110.5t-22 -48.5h-16q-16 10 -21.5 49t-7.5 110q-2 72 -6 101.5t-19 29.5z" />
<glyph unicode="&#x2021;" horiz-adv-x="778" d="M72 74l78 51l239 -51l240 51l78 -51l-78 -51l-240 49l-239 -49zM72 932l78 51l239 -51l240 51l78 -51l-78 -51l-240 49l-239 -49zM313 217q0 78 4 135q0 27 2.5 65t4.5 91q-6 123 -7 160q-4 47 -4 120q16 10 23.5 25.5t12.5 38t11 39.5l29 12l29 -12q4 -14 9 -38 t13.5 -39t24.5 -26q0 -72 -2 -118l-8 -162q2 -53 4 -91t2 -65q4 -57 4 -135q-18 -12 -25.5 -28.5t-12.5 -38t-9 -35.5l-29 -13l-29 13q-6 16 -11 39.5t-12 38t-24 24.5zM328 -248q14 0 18 30t6 101q2 72 7.5 111t21.5 49h16q17 -10 22 -49t7 -111t6 -101.5t19 -29.5 q0 -35 -13.5 -63.5t-48.5 -28.5t-48 28.5t-13 63.5zM328 1253q0 35 13 64t48 29t48.5 -29t13.5 -64q-14 0 -18.5 -29.5t-6.5 -101.5t-7 -110.5t-22 -48.5h-16q-16 10 -21.5 49t-7.5 110q-2 72 -6 101.5t-18 29.5z" />
<glyph unicode="&#x2022;" horiz-adv-x="1005" d="M123 627q0 104 50 191t137 138.5t192 51.5q104 0 191 -51.5t138.5 -138.5t51.5 -191t-51.5 -191.5t-138.5 -137.5t-191 -50t-191.5 50t-137.5 137t-50 192z" />
<glyph unicode="&#x2026;" horiz-adv-x="1724" d="M86 147q0 86 52 131.5t151 45.5q98 0 150.5 -45.5t52.5 -131.5t-52.5 -131t-150.5 -45t-150.5 45t-52.5 131zM661 147q0 86 52 131.5t151 45.5q98 0 150.5 -45.5t52.5 -131.5t-52.5 -131t-150.5 -45t-150.5 45t-52.5 131zM1235 147q0 86 52 131.5t151 45.5 q98 0 150.5 -45.5t52.5 -131.5t-52.5 -131t-150.5 -45t-150.5 45t-52.5 131z" />
<glyph unicode="&#x202f;" horiz-adv-x="387" />
<glyph unicode="&#x2030;" horiz-adv-x="2314" d="M76 1214q0 100 46 179.5t126 122.5t180 43q158 0 254 -89.5t96 -244.5q0 -102 -45 -180t-125 -121t-180 -43q-158 0 -255 89t-97 244zM150 -86l1198 1774l38 -27l-1198 -1774zM307 1217q0 -147 33 -223t92 -76q115 0 115 303q0 150 -32 225.5t-91 75.5q-117 0 -117 -305z M715 305q0 100 46 179t126 122t180 43q158 0 254 -89t96 -245q0 -102 -45 -180t-125 -121t-180 -43q-158 0 -255 89.5t-97 244.5zM946 307q0 -147 33 -223t92 -76q115 0 115 303q0 150 -32 225.5t-91 75.5q-117 0 -117 -305zM1554 305q0 100 46.5 179t126 122t180.5 43 q157 0 253.5 -89t96.5 -245q0 -102 -45 -180t-125 -121t-180 -43q-158 0 -255.5 89.5t-97.5 244.5zM1786 307q0 -147 32.5 -223t92.5 -76q115 0 114 303q0 150 -31.5 225.5t-90.5 75.5q-117 0 -117 -305z" />
<glyph unicode="&#x2039;" horiz-adv-x="821" d="M55 606v41q164 111 312.5 242t314.5 303l29 -8q-31 -133 -107 -305t-141 -252q66 -80 141.5 -252t106.5 -303l-29 -9q-164 170 -312.5 301.5t-314.5 241.5z" />
<glyph unicode="&#x203a;" horiz-adv-x="821" d="M111 70q31 133 106.5 305t140.5 252q-66 80 -141.5 252t-105.5 303l28 8q164 -170 312.5 -301t314.5 -242v-41q-164 -111 -312.5 -242t-314.5 -303z" />
<glyph unicode="&#x2044;" horiz-adv-x="122" d="M-557 -86l1198 1774l39 -27l-1198 -1774z" />
<glyph unicode="&#x205f;" horiz-adv-x="484" />
<glyph unicode="&#x20ac;" horiz-adv-x="1384" d="M61 506v41h150q-2 20 -2 63q0 51 6 101h-154v41h160q31 156 122 274.5t228.5 183t296.5 64.5q109 0 184.5 -13.5t135.5 -48.5q104 -59 104 -151q0 -72 -55 -115t-145 -43q-86 0 -135.5 39t-49.5 113q0 47 35 94t94 70q-70 16 -133 16q-129 0 -207 -127t-94 -356h418 l-23 -41h-397q-2 -29 -2 -93v-71h307l-24 -41h-281q12 -248 85 -372t218 -124q78 0 133 17q-59 23 -94 69.5t-35 93.5q0 74 49.5 113t135.5 39q90 0 145 -43t55 -115q0 -49 -27.5 -90t-76.5 -61q-133 -61 -320 -62q-281 0 -452.5 139.5t-200.5 395.5h-154z" />
<glyph unicode="&#x2122;" horiz-adv-x="2252" d="M123 1450q121 -6 414 -6q291 0 411 6q-14 -113 -14 -201q0 -66 6 -106h-47q-20 135 -69.5 197.5t-102.5 62.5h-49v-612q0 -59 10 -86t40 -36.5t95 -13.5v-41q-111 6 -280 7q-190 0 -283 -7v41q66 4 95.5 13.5t39.5 36t10 86.5v612h-49q-53 0 -102 -62.5t-70 -197.5h-47 q6 37 6 106q0 88 -14 201zM1024 614v41q49 4 69.5 11.5t27.5 30t7 73.5v524q0 51 -7 74t-27.5 30t-69.5 11v41q84 -6 252 -6q72 0 139 6l182 -453l170 447h158q141 0 219 6v-41q-49 -4 -69.5 -11t-27.5 -29.5t-7 -74.5v-524q0 -51 7 -73.5t27.5 -30t69.5 -11.5v-41 q-94 6 -239 7q-147 0 -222 -7v41q37 4 54.5 12.5t23.5 30t6 72.5v545l-268 -711h-33l-290 715v-549q0 -51 6 -72.5t23.5 -30t54.5 -12.5v-41q-43 6 -107 7q-82 0 -129 -7z" />
<glyph unicode="&#x2202;" horiz-adv-x="1146" d="M63 383q0 135 70 269t210 222.5t339 88.5q121 0 207 -59.5t108 -205.5q6 66 7 133q0 150 -82 228t-240 78q-66 0 -165 -19.5t-210 -56.5l-16 22q115 197 217 296.5t227 99.5q96 0 165 -82t104.5 -223.5t35.5 -319.5q0 -244 -57 -443.5t-176 -319.5t-297 -120 q-207 0 -327 104.5t-120 307.5zM442 354q0 -160 46.5 -231.5t119.5 -71.5q82 0 158 63.5t133 181.5t84 273q-10 182 -72.5 246t-138.5 64q-90 0 -166 -71t-120 -190.5t-44 -263.5z" />
<glyph unicode="&#x220f;" horiz-adv-x="1677" d="M68 -330q66 4 94 16.5t39.5 47.5t11.5 112v1387q0 78 -11.5 112.5t-40 47t-93.5 16.5v41q111 -6 344 -6q74 0 120 2q143 4 314 4q154 0 297 -4q47 -2 123 -2q233 0 344 6v-41q-66 -4 -94.5 -16.5t-40 -47t-11.5 -112.5v-1387q0 -78 11.5 -112.5t40 -47t94.5 -16.5v-41 q-111 6 -344 6q-209 0 -322 -6v41q66 4 94.5 16.5t40 47.5t11.5 112v1387q0 78 -12.5 113.5t-47.5 49t-106 13.5h-170q-72 0 -107 -13.5t-47 -49t-12 -113.5v-1387q0 -78 11 -112.5t40 -47t94 -16.5v-41q-113 6 -321 6q-233 0 -344 -6v41z" />
<glyph unicode="&#x2211;" horiz-adv-x="1286" d="M61 1409v41q180 -6 580 -6q358 0 510 6q-14 -193 -14 -344q0 -94 6 -148h-47q-37 238 -137.5 341.5t-239.5 103.5h-236l394 -606l-730 -750h289q211 0 347.5 52.5t214 176t98.5 338.5h47q-6 -92 -6 -229q0 -233 14 -385q-164 6 -551 6q-375 0 -518 -6v41l514 532z" />
<glyph unicode="&#x221a;" horiz-adv-x="1499" d="M0 825v43q117 -12 262 -12q119 0 307 12v-43q-25 0 -24 -26q0 -20 12 -51l197 -488l407 1346q10 37 10 53q0 27 -28 27v43q18 -2 78 -3l249 3h66l2 -52q-199 0 -246 -8q-39 -6 -59.5 -25.5t-38.5 -72.5l-477 -1571q-51 6 -109 6q-53 0 -108 -6l-287 680q-25 57 -48.5 86 t-60 41t-104.5 18z" />
<glyph unicode="&#x221e;" horiz-adv-x="1753" d="M96 723q0 164 80 234.5t236 70.5q80 0 175 -40t220 -114l41 17q172 72 289.5 108.5t216.5 36.5q149 0 225 -79.5t76 -227.5q0 -164 -80 -234.5t-236 -70.5q-80 0 -175 40t-220 114l-41 -17q-172 -72 -289.5 -108.5t-216.5 -36.5q-145 0 -223 86t-78 221zM184 852 q0 -47 38 -77t102 -30q90 0 194.5 29t239.5 82q-219 131 -346 131q-111 0 -169.5 -37t-58.5 -98zM991 596q221 -131 348 -131q111 0 169.5 37t58.5 98q0 47 -38 77t-102 30q-92 0 -197.5 -29t-238.5 -82z" />
<glyph unicode="&#x222b;" horiz-adv-x="1312" d="M-16 -193q0 72 55 115t145 43q86 0 135.5 -39t49.5 -112q0 -47 -30 -89t-89 -65q37 -4 55 -4q82 0 119 42t46 110.5t9 199.5v1045q0 180 33 278.5t113 167.5q51 45 139 74t186 29q160 0 266.5 -56.5t106.5 -177.5q0 -76 -50 -127t-130 -51q-84 0 -134.5 45t-50.5 119 q0 66 35 116t99 72q-23 18 -80 19q-96 0 -130 -74t-34 -227v-1096q0 -180 -33 -278.5t-113 -168.5q-117 -102 -387 -102q-125 0 -228 42t-103 150z" />
<glyph unicode="&#x2248;" horiz-adv-x="1409" d="M106 301q8 137 53.5 243.5t113 165t145.5 58.5q74 0 138.5 -25.5t150.5 -76.5q90 -49 148 -73t124 -24q207 0 287 201l37 -6q-10 -143 -60.5 -255t-127.5 -172.5t-165 -60.5q-76 0 -141.5 26t-157.5 77q-96 49 -154.5 72.5t-127.5 23.5q-164 0 -226 -180zM106 696 q10 143 60.5 255t127.5 172.5t165 60.5q76 0 141.5 -25.5t157.5 -77.5q96 -49 154.5 -72.5t127.5 -23.5q164 0 226 180l37 -6q-8 -137 -53.5 -243.5t-113 -165t-145.5 -58.5q-74 0 -138.5 25.5t-150.5 77.5q-90 49 -148 72.5t-124 23.5q-207 0 -287 -201z" />
<glyph unicode="&#x2260;" horiz-adv-x="1269" d="M121 553v61h424l131 226h-555v61h590l166 287l57 -33l-148 -254h361v-61h-395l-131 -226h526v-61h-561l-166 -287l-58 33l148 254h-389z" />
<glyph unicode="&#x2264;" horiz-adv-x="1253" d="M100 727l998 465l34 -74l-837 -391l837 -391l-34 -74zM117 0v62h1026v-62h-1026z" />
<glyph unicode="&#x2265;" horiz-adv-x="1243" d="M127 0v62h1026v-62h-1026zM146 336l34 -74l998 465l-998 465l-34 -74l837 -391z" />
<glyph unicode="&#x25ca;" horiz-adv-x="1005" d="M57 504l430 956h33l430 -870l-430 -957h-33zM246 825l401 -809l113 252l-402 807z" />
<glyph unicode="&#x25fc;" horiz-adv-x="1249" d="M0 0v1249h1249v-1249h-1249z" />
</font>
</defs>
</svg>
