<svg width="80" height="80" xmlns="http://www.w3.org/2000/svg" xmlns:xlink="http://www.w3.org/1999/xlink"><defs><path id="a" d="M0 .001h49.377v62.99H0z"/><path id="c" d="M.635.551H35.18v16.034H.635z"/><path id="e" d="M.363 0h10.124v14.472H.363z"/></defs><g fill="none" fill-rule="evenodd"><path d="M0 0h80v80H0z"/><path d="M24.66 21.423c-10.886 0-18.789 7.402-18.789 17.599 0 8.295 5.236 14.9 13.363 16.94v9.069h10.7v-9.034c8.225-1.994 13.518-8.601 13.518-16.975 0-10.197-7.903-17.599-18.791-17.599" fill="#FAA477"/><path d="M19.874 33.662a1.526 1.526 0 1 1-3.051 0 1.526 1.526 0 0 1 3.051 0" fill="#000"/><path d="M19.844 65.97h9.447" stroke="#000" stroke-width="2.109" stroke-linecap="round" stroke-linejoin="round"/><path d="M23.652 44.892c-1.743-2.161-6.04-2.297-6.04-4.529 0-2.231 4.55-2.59 6.04-5.175" stroke="#000" stroke-width="2" stroke-linecap="round" stroke-linejoin="round"/><path d="M30.952 33.662a1.526 1.526 0 1 1-3.053-.001 1.526 1.526 0 0 1 3.053.001" fill="#000"/><path d="M19.52 47.089c2.22 2.9 7.666 2.661 9.41 0" stroke="#000" stroke-width="2" stroke-linecap="round" stroke-linejoin="round"/><g transform="translate(0 .975)"><mask id="b" fill="#fff"><use xlink:href="#a"/></mask><path d="M49.27 51.133c-.344-2.57-1.653-4.705-2.918-6.77-.917-1.498-1.782-2.912-2.296-4.463-.28-.846-.456-1.45-.571-2.098-.108-8.885-6.237-15.594-15.094-17.056 4.031-1.546 6.906-5.446 6.906-10.015 0-5.917-4.813-10.73-10.73-10.73-5.916 0-10.729 4.813-10.729 10.73 0 4.598 2.911 8.518 6.983 10.043-5.141.9-9.34 3.581-11.957 7.428l-.021.032c-1.79 2.648-2.846 5.837-2.922 9.387-.114.719-.295 1.356-.6 2.279-.513 1.551-1.379 2.965-2.296 4.461C1.76 46.428.452 48.563.107 51.133c-.585 4.396 1.249 8.292 4.789 10.168 1.986 1.052 4.437 1.69 6.878 1.69 2.713 0 5.411-.788 7.442-2.674.021-.018.037-.043.058-.062v-7.406C12.38 50.901 7.968 45.18 7.968 38.038c0-3.072.835-5.847 2.3-8.183.481.05 1.173.101 2.012.101 3.409 0 9.154-.858 12.294-6.04 3.147 5.16 8.93 6.025 12.385 6.025.919 0 1.663-.059 2.157-.113 1.475 2.341 2.318 5.125 2.318 8.21 0 7.223-4.477 12.956-11.477 14.857l.018 2.583v4.635c.064.065.119.14.186.203 2.031 1.887 4.729 2.675 7.44 2.675 2.44 0 4.894-.639 6.882-1.691 3.54-1.876 5.373-5.772 4.786-10.168" fill="#000" mask="url(#b)"/></g><path d="M10.438 51.726a3.126 3.126 0 1 1-6.251 0 3.126 3.126 0 0 1 6.251 0m34.697 0a3.125 3.125 0 1 1-6.25.002 3.125 3.125 0 0 1 6.25-.002" fill="#FFF"/><g transform="translate(6.83 63.414)"><mask id="d" fill="#fff"><use xlink:href="#c"/></mask><path d="M33.636 16.586c1.399 0 2.076-1.718 1.051-2.67a90.391 90.391 0 0 1-3.33-3.253c-2.656-2.96-5.043-6.105-7.109-9.544-.023-.04-.064-.063-.092-.1a1.106 1.106 0 0 0-.161-.177 1.178 1.178 0 0 0-.18-.123 1.11 1.11 0 0 0-.203-.092 1.147 1.147 0 0 0-.234-.048c-.046-.006-.087-.028-.134-.028H12.488c-.028 0-.052.015-.08.017a1.194 1.194 0 0 0-.42.058c-.3.29-.595.583-.895.874-2.797 4.577-6.138 8.654-9.988 12.437-.988.971-.317 2.649 1.07 2.649h31.46z" fill="#000" mask="url(#d)"/></g><path d="M56.33 10.163A3.963 3.963 0 0 1 52.369 6.2V3.658a.977.977 0 0 0-1.951 0V6.2a3.964 3.964 0 0 1-3.964 3.963.975.975 0 1 0 0 1.95 3.964 3.964 0 0 1 3.964 3.964v2.541a.975.975 0 1 0 1.951 0v-2.541a3.963 3.963 0 0 1 3.963-3.963.976.976 0 0 0 0-1.951" fill="#FFEA2D"/><g transform="translate(55.61 15.61)"><mask id="f" fill="#fff"><use xlink:href="#e"/></mask><path d="M9.652 6.402A3.393 3.393 0 0 1 6.26 3.009V.836a.834.834 0 1 0-1.668 0v2.173A3.393 3.393 0 0 1 1.2 6.402a.835.835 0 1 0 0 1.669 3.392 3.392 0 0 1 3.392 3.391v2.176a.833.833 0 1 0 1.668 0v-2.176a3.392 3.392 0 0 1 3.392-3.391.835.835 0 1 0 0-1.67" fill="#FFEA2D" mask="url(#f)"/></g></g></svg>