<svg width="80" height="80" xmlns="http://www.w3.org/2000/svg"><g fill="none" fill-rule="evenodd"><path d="M0 0h80v80H0z"/><path d="M61.684 43.618a4.93 4.93 0 0 0-.522-1.746c-.909-1.761-2.77-3.035-4.752-3.185-2.643-.2-5.274 1.493-6.359 3.912a128.085 128.085 0 0 0-25.437.055c-.57-2.174-1.338-4.6-3.349-5.606-2.17-1.084-5.024.182-6.131 2.343-1.179-1.316-3.122-1.89-4.827-1.428-1.704.464-3.089 1.942-3.44 3.673-2.462-.904-5.691.114-6.602 2.573-.674 1.824.026 3.892 1.114 5.503 2.416 3.578 6.555 5.633 10.72 6.77 4.166 1.136 8.507 1.507 12.69 2.577 1.808.462 3.644 1.089 5.008 2.362 2.234 2.083 2.724 5.393 2.977 8.437.11 1.31-.004 2.963 1.531 3.255 1.752.334 3.599.467 5.377.573 3.86.23 7.745 0 11.55-.683 1.075-.193 2.439-.302 3 .636.113.188.184.412.354.55.31.253.806.085 1.039-.237.232-.324.269-.744.293-1.142.25-4.196-.082-8.41.297-12.602.396-4.396 2.156-7.892 4.204-11.701.809-1.504 1.444-3.215 1.265-4.89" fill="#FAA477"/><path d="M44.38 14.792v8.272L33.782 10.425a.476.476 0 0 0-.73 0L22.836 22.611a1.632 1.632 0 0 0-.379 1.044v25.938c0 .306.248.553.553.553h27.657a.552.552 0 0 0 .553-.553V14.792a.552.552 0 0 0-.553-.553h-5.735a.553.553 0 0 0-.553.553" fill="#36A14B"/><path d="M56.258 79.485H32.834a.664.664 0 0 1-.664-.662V71.11c0-.367.298-.664.664-.664h23.424c.366 0 .662.297.662.664v7.712a.662.662 0 0 1-.662.662" fill="#000"/><path d="M37.723 27.653a3.438 3.438 0 0 1-3.437-3.438V22.01a.846.846 0 0 0-1.692 0v2.204a3.438 3.438 0 0 1-3.438 3.438.846.846 0 1 0 0 1.692 3.437 3.437 0 0 1 3.438 3.437v2.204a.846.846 0 0 0 1.692 0v-2.204a3.437 3.437 0 0 1 3.437-3.437.846.846 0 1 0 0-1.692" fill="#FFEA2D"/><path d="M16.834 8.074v3.11m0 4.604v3.11m5.411-5.412h-3.11m-4.603 0h-3.11M41.989 34.14v3.11m0 4.604v3.11m5.412-5.412h-3.11m-4.604 0h-3.11m9.534-29.009c2.154-3.203 5.597-5.836 9.259-7.076 2.477-.838 5.307-.758 6.466 2.002 1.273 3.03-1.544 7.495-4.954 7.281-1.015-.064-1.622-.858-1.29-1.866.151-.455.464-.838.8-1.182 1.749-1.79 4.287-2.733 6.777-2.727 1.521.004 3.239.542 3.852 1.935.715 1.626-.457 3.483-1.852 4.585M15.142 41.291s-2.06 9.226 3.994 15.031M6.363 42.883s-.148 7.64 8.44 12.6" stroke="#000" stroke-width="2" stroke-linecap="round" stroke-linejoin="round"/></g></svg>