<svg width="80" height="80" xmlns="http://www.w3.org/2000/svg" xmlns:xlink="http://www.w3.org/1999/xlink"><defs><path id="a" d="M.23.665h24.056v31.519H.231z"/><path id="c" d="M.452.665h24.055v31.519H.452z"/></defs><g fill="none" fill-rule="evenodd"><path d="M0 0h80v80H0z"/><path d="M57.945 44.001c1.058 4.19-2.494 8.105-6.766 7.457a6.045 6.045 0 0 0-6.097 2.88c-2.214 3.71-7.494 3.968-10.058.488a6.043 6.043 0 0 0-6.346-2.274c-4.19 1.058-8.106-2.494-7.458-6.766a6.041 6.041 0 0 0-2.879-6.097c-3.711-2.214-3.969-7.494-.49-10.057a6.044 6.044 0 0 0 2.276-6.347c-1.059-4.19 2.494-8.105 6.766-7.458a6.042 6.042 0 0 0 6.096-2.879c2.215-3.711 7.495-3.968 10.057-.489a6.044 6.044 0 0 0 6.348 2.275c4.19-1.058 8.106 2.494 7.457 6.766a6.041 6.041 0 0 0 2.88 6.097c3.712 2.213 3.968 7.495.489 10.057a6.042 6.042 0 0 0-2.275 6.347" fill="#36A14B"/><g transform="translate(19.31 43.893)"><mask id="b" fill="#fff"><use xlink:href="#a"/></mask><path d="M9.879.665L.314 25.973c-.328.868.367 1.711 1.2 1.457l7.326-2.233 4.017 6.52c.457.742 1.537.569 1.865-.298L24.286 6.11" fill="#36A14B" mask="url(#b)"/></g><g transform="translate(34.023 43.893)"><mask id="d" fill="#fff"><use xlink:href="#c"/></mask><path d="M14.86.665l9.564 25.308c.329.868-.367 1.711-1.2 1.457l-7.326-2.233-4.017 6.52c-.457.742-1.537.569-1.865-.298L.452 6.11" fill="#36A14B" mask="url(#d)"/></g><path d="M53.043 33.4c0 7.735-6.272 14.006-14.007 14.006-7.736 0-14.007-6.271-14.007-14.007 0-7.735 6.271-14.006 14.007-14.006 7.735 0 14.007 6.271 14.007 14.006" fill="#FFF"/><path d="M49.379 51.456a6.043 6.043 0 0 0-4.297 2.882c-2.213 3.711-7.493 3.968-10.057.488a6.045 6.045 0 0 0-6.348-2.275m5.798-20.339l4.553 7.132 6.318-13.109m-30.995-.229L.001 22.442M11.64 31.59H0m10.72 6.388l-8.11 1.994m62.831-13.966l14.351-3.564M68.153 31.59h11.639m-10.719 6.388l8.11 1.994" stroke="#000" stroke-width="2" stroke-linecap="round" stroke-linejoin="round"/></g></svg>